<svg id="Antenatal_Module" data-name="Antenatal Module" xmlns="http://www.w3.org/2000/svg" width="65" height="65" viewBox="0 0 65 65">
  <defs>
    <style>
      .cls-1 {
        fill: #3498db;
      }
    </style>
  </defs>
  <path id="Path_66" data-name="Path 66" class="cls-1" d="M32.5,0A32.3,32.3,0,0,0,12.437,7.141a22.43,22.43,0,0,1,3.017,5.905,18.77,18.77,0,0,0,4.931,7.683,5.631,5.631,0,0,1,8.187-1.976,13.176,13.176,0,0,1,2.582-3.757A13.33,13.33,0,1,1,45.3,36.885a20.815,20.815,0,0,1-6.068,13.12l-1.884,1.886a13.346,13.346,0,0,1-18.851,0,14.339,14.339,0,0,1-4.112-11.377,5.639,5.639,0,0,1-4.4-1.657,5.727,5.727,0,0,1,0-8.082,10.187,10.187,0,0,1,10.021-2.729,20.877,20.877,0,0,1-.306-2.982,22.555,22.555,0,0,1-7.858-10.812A18.634,18.634,0,0,0,9.551,9.694,32.355,32.355,0,1,0,32.5,0Z"/>
  <path id="Path_67" data-name="Path 67" class="cls-1" d="M96.306,135.82a1.958,1.958,0,0,0-.14,2.834,1.907,1.907,0,0,0,2.693,0l2.02-2.018L103,139.6l-.807,1.17a10.581,10.581,0,0,0,2.483,10.918,9.534,9.534,0,0,0,13.466,0l1.884-1.886a17.044,17.044,0,0,0,5.017-11.865l.02-1.451a11.1,11.1,0,0,0,5.735-2.843,9.514,9.514,0,1,0-10.291,2.1l-1.425,3.533a13.225,13.225,0,0,1-8.261-13.2l-.052,0a1.913,1.913,0,0,0-1.787-2.023,1.949,1.949,0,0,0-2.016,1.785c-.439,7.015,2.833,8.91,3.16,12.964a9.513,9.513,0,0,1-2.758,7.5l-2.693-2.693a5.709,5.709,0,0,0,1.655-4.5c-.39-4.806-6.221-7.088-10.024-3.286Z" transform="translate(-83.485 -102.493)"/>
</svg>
