<svg id="Human_Resource" data-name="Human Resource" xmlns="http://www.w3.org/2000/svg" width="65" height="65" viewBox="0 0 65 65">
  <defs>
    <style>
      .cls-1 {
        fill: #3498db;
      }
    </style>
  </defs>
  <g id="Group_38" data-name="Group 38">
    <g id="Group_37" data-name="Group 37" transform="translate(0 14.341)">
      <path id="Path_54" data-name="Path 54" class="cls-1" d="M19.943,112.961a10.768,10.768,0,0,1-15.766,0A9.518,9.518,0,0,0,0,120.837v5.078a1.9,1.9,0,0,0,1.9,1.9H22.217a1.9,1.9,0,0,0,1.9-1.9v-5.078A9.518,9.518,0,0,0,19.943,112.961Z" transform="translate(0 -112.961)"/>
    </g>
    <path id="Path_55" data-name="Path 55" class="cls-1" d="M46.982,13.965a6.982,6.982,0,1,1,6.982-6.982A6.99,6.99,0,0,1,46.982,13.965Z" transform="translate(-34.922)"/>
  </g>
  <g id="Group_40" data-name="Group 40" transform="translate(0 35.801)">
    <g id="Group_39" data-name="Group 39" transform="translate(0 14.341)">
      <path id="Path_56" data-name="Path 56" class="cls-1" d="M19.943,394.961a10.768,10.768,0,0,1-15.766,0A9.518,9.518,0,0,0,0,402.837v5.078a1.9,1.9,0,0,0,1.9,1.9H22.217a1.9,1.9,0,0,0,1.9-1.9v-5.078A9.518,9.518,0,0,0,19.943,394.961Z" transform="translate(0 -394.961)"/>
    </g>
    <path id="Path_57" data-name="Path 57" class="cls-1" d="M46.982,295.965a6.982,6.982,0,1,1,6.982-6.982A6.99,6.99,0,0,1,46.982,295.965Z" transform="translate(-34.922 -282)"/>
  </g>
  <g id="Group_41" data-name="Group 41" transform="translate(28.184 35.801)">
    <path id="Path_58" data-name="Path 58" class="cls-1" d="M229.617,282H223.9a1.9,1.9,0,0,0-1.9,1.9v6.982a1.9,1.9,0,0,0,1.9,1.9h5.713Z" transform="translate(-222 -282)"/>
    <path id="Path_59" data-name="Path 59" class="cls-1" d="M335.486,282H312v10.791h23.486a1.9,1.9,0,0,0,1.9-1.9V283.9A1.9,1.9,0,0,0,335.486,282Z" transform="translate(-300.574 -282)"/>
  </g>
  <g id="Group_42" data-name="Group 42" transform="translate(28.184 54.209)">
    <path id="Path_60" data-name="Path 60" class="cls-1" d="M246.121,427H223.9a1.9,1.9,0,0,0-1.9,1.9v6.982a1.9,1.9,0,0,0,1.9,1.9h22.217Z" transform="translate(-222 -427)"/>
    <path id="Path_61" data-name="Path 61" class="cls-1" d="M448.982,427H442v10.791h6.982a1.9,1.9,0,0,0,1.9-1.9V428.9A1.9,1.9,0,0,0,448.982,427Z" transform="translate(-414.07 -427)"/>
  </g>
  <g id="Group_43" data-name="Group 43" transform="translate(28.184)">
    <path id="Path_62" data-name="Path 62" class="cls-1" d="M431.521,0H422V10.791h9.521a1.9,1.9,0,0,0,1.9-1.9V1.9A1.9,1.9,0,0,0,431.521,0Z" transform="translate(-396.609)"/>
    <path id="Path_63" data-name="Path 63" class="cls-1" d="M243.582,0H223.9A1.9,1.9,0,0,0,222,1.9V8.887a1.9,1.9,0,0,0,1.9,1.9h19.678Z" transform="translate(-222)"/>
  </g>
  <g id="Group_44" data-name="Group 44" transform="translate(28.184 18.408)">
    <path id="Path_64" data-name="Path 64" class="cls-1" d="M370.408,145H352v10.791h18.408a1.9,1.9,0,0,0,1.9-1.9V146.9A1.9,1.9,0,0,0,370.408,145Z" transform="translate(-335.496 -145)"/>
    <path id="Path_65" data-name="Path 65" class="cls-1" d="M234.7,145H223.9a1.9,1.9,0,0,0-1.9,1.9v6.982a1.9,1.9,0,0,0,1.9,1.9H234.7Z" transform="translate(-222 -145)"/>
  </g>
</svg>
