<svg xmlns="http://www.w3.org/2000/svg" width="53.953" height="64.748" viewBox="0 0 53.953 64.748">
  <defs>
    <style>
      .cls-1 {
        fill: #3498db;
      }
    </style>
  </defs>
  <g id="Laboratory_Department" data-name="Laboratory Department" transform="translate(-2.001)">
    <path id="Path_70" data-name="Path 70" class="cls-1" d="M26.885,5.4H10.7a2.7,2.7,0,1,1,0-5.4H26.885a2.7,2.7,0,0,1,0,5.4Z" transform="translate(10.186)"/>
    <path id="Path_71" data-name="Path 71" class="cls-1" d="M43.6,63.9H16.764C8.328,63.9,2.4,59.386,2.02,52.665a11.887,11.887,0,0,1,1.986-7.33L19.462,22.868a8.1,8.1,0,0,0,1.422-4.589V3.2a2.7,2.7,0,1,1,5.4,0V18.279A13.43,13.43,0,0,1,23.9,25.924L8.471,48.36a6.517,6.517,0,0,0-1.066,4c.213,3.734,3.885,6.146,9.359,6.146H43.6a6.848,6.848,0,0,0,6.95-6.143,6.51,6.51,0,0,0-1.087-4.031L34.052,25.924a13.43,13.43,0,0,1-2.377-7.646V3.2a2.7,2.7,0,0,1,5.4,0V18.279A8.065,8.065,0,0,0,38.5,22.865L53.927,45.3a11.916,11.916,0,0,1,2.007,7.362A12.158,12.158,0,0,1,43.6,63.9Z" transform="translate(0 0.849)"/>
    <path id="Path_72" data-name="Path 72" class="cls-1" d="M35.261,31.031H9.113A3.057,3.057,0,0,1,6,28.045a2.882,2.882,0,0,1,.61-1.775c.035-.046.073-.092.113-.135L14.35,16.19a2.023,2.023,0,0,1,1.5-.788,3.521,3.521,0,0,0,1.333-.318l1.683-.839a7.806,7.806,0,0,1,6.629-.008l1.716.855a3.591,3.591,0,0,0,1.314.31,2.028,2.028,0,0,1,1.5.788l7.627,9.942c.04.043.078.089.113.135a2.918,2.918,0,0,1,.6,1.778,3.057,3.057,0,0,1-3.113,2.987Z" transform="translate(6.79 22.925)"/>
  </g>
</svg>
