<svg xmlns="http://www.w3.org/2000/svg" width="79.825" height="64.298" viewBox="0 0 79.825 64.298">
  <defs>
    <style>
      .cls-1 {
        fill: #3498db;
        fill-rule: evenodd;
      }
    </style>
  </defs>
  <g id="Layer_x0020_1" transform="translate(-3157.76 -3429.939)">
    <path id="Path_20" data-name="Path 20" class="cls-1" d="M3160.121,3429.94h47.941a2.364,2.364,0,0,1,2.36,2.36v25.3h-14.5a5.512,5.512,0,0,0-5.507,5.506v8.538h-10.852a2.268,2.268,0,0,0-1.422.476l-5.691,4.3-2.541,1.918a2.36,2.36,0,0,1-3.782-1.884V3474a2.364,2.364,0,0,0-2.36-2.36h-3.647a2.365,2.365,0,0,1-2.36-2.36V3432.3A2.364,2.364,0,0,1,3160.121,3429.94Zm35.8,30.806h39.3a2.364,2.364,0,0,1,2.36,2.36v21.507a2.365,2.365,0,0,1-2.36,2.36h-1.835a2.365,2.365,0,0,0-2.36,2.36v2.536a2.361,2.361,0,0,1-3.782,1.884l-2.54-1.918-6.323-4.773.117-.088h-22.58a2.365,2.365,0,0,1-2.36-2.36v-21.507A2.364,2.364,0,0,1,3195.922,3460.746Zm4.587,14h30.129a1.7,1.7,0,0,1,1.691,1.691h0a1.7,1.7,0,0,1-1.691,1.691h-30.129a1.7,1.7,0,0,1-1.691-1.691h0A1.7,1.7,0,0,1,3200.509,3474.749Zm0-6.557h30.129a1.7,1.7,0,0,1,1.691,1.691h0a1.7,1.7,0,0,1-1.691,1.691h-30.129a1.7,1.7,0,0,1-1.691-1.691h0A1.7,1.7,0,0,1,3200.509,3468.192Zm-18.053-30.554h3.271a2.322,2.322,0,0,1,2.317,2.317v6.2h6.2a2.321,2.321,0,0,1,2.317,2.317v3.271a2.321,2.321,0,0,1-2.317,2.317h-6.2v6.2a2.322,2.322,0,0,1-2.317,2.317h-3.271a2.322,2.322,0,0,1-2.317-2.317v-6.2h-6.2a2.322,2.322,0,0,1-2.317-2.317v-3.271a2.321,2.321,0,0,1,2.317-2.317h6.2v-6.2A2.322,2.322,0,0,1,3182.456,3437.638Z" transform="translate(0 0)"/>
  </g>
</svg>
