<svg xmlns="http://www.w3.org/2000/svg" width="69.333" height="65" viewBox="0 0 69.333 65">
  <defs>
    <style>
      .cls-1 {
        fill: #3498db;
      }
    </style>
  </defs>
  <g id="Mortuaty_Management" data-name="Mortuaty Management" transform="translate(0 -16)">
    <path id="Path_605" data-name="Path 605" class="cls-1" d="M0,16V81H69.333V16Zm65.271,4.063v16.25H60.7a6.023,6.023,0,0,0,.374-2.031,6.1,6.1,0,0,0-6.094-6.094H26.542a6.082,6.082,0,0,0-5.463,3.446,6.04,6.04,0,0,0,.182-1.414,6.163,6.163,0,1,0-.631,2.648,5.65,5.65,0,0,0,.192,3.446H4.063V20.063ZM54.979,48.5H26.542a6.082,6.082,0,0,0-5.463,3.446,6.04,6.04,0,0,0,.182-1.414,6.163,6.163,0,1,0-.631,2.648,5.65,5.65,0,0,0,.192,3.446H4.063V40.375H65.271v16.25H60.7a6.023,6.023,0,0,0,.374-2.031A6.1,6.1,0,0,0,54.979,48.5ZM60.7,76.938a6.023,6.023,0,0,0,.374-2.031,6.1,6.1,0,0,0-6.094-6.094H26.542a6.082,6.082,0,0,0-5.463,3.446,6.04,6.04,0,0,0,.182-1.414,6.163,6.163,0,1,0-.631,2.648,5.65,5.65,0,0,0,.192,3.446H4.063V60.688H65.271v16.25Z"/>
  </g>
</svg>
