<svg id="Page-1" xmlns="http://www.w3.org/2000/svg" width="60.229" height="62.305" viewBox="0 0 60.229 62.305">
  <defs>
    <style>
      .cls-1 {
        fill: #3498db;
      }
    </style>
  </defs>
  <g id="_042---Big-Data" data-name="042---Big-Data">
    <circle id="Oval" class="cls-1" cx="2.077" cy="2.077" r="2.077" transform="translate(17.653 19.73)"/>
    <circle id="Oval-2" data-name="Oval" class="cls-1" cx="2.077" cy="2.077" r="2.077" transform="translate(28.037 12.461)"/>
    <circle id="Oval-3" data-name="Oval" class="cls-1" cx="2.077" cy="2.077" r="2.077" transform="translate(38.422 19.73)"/>
    <path id="Shape" class="cls-1" d="M11.367,34.268H29V30.114H21.73A3.125,3.125,0,0,1,18.615,27V25.825a4.154,4.154,0,1,1,2.077,0V27a1.038,1.038,0,0,0,1.038,1.038H29V18.557a4.154,4.154,0,1,1,2.077,0v9.481h7.269A1.038,1.038,0,0,0,39.383,27V25.825a4.154,4.154,0,1,1,2.077,0V27a3.125,3.125,0,0,1-3.115,3.115H31.076v4.154H46.912a11.34,11.34,0,0,0,11.163-11.5,11.408,11.408,0,0,0-9.356-11.329A13.241,13.241,0,0,0,35.769,0,12.993,12.993,0,0,0,24.762,6.179a10.152,10.152,0,0,0-2.8-.384,10.625,10.625,0,0,0-10.4,9.211h-.187A9.507,9.507,0,0,0,2,24.631a9.509,9.509,0,0,0,9.367,9.637Z" transform="translate(0.077)"/>
    <path id="Shape-2" data-name="Shape" class="cls-1" d="M22.845,54H2.077A2.083,2.083,0,0,0,0,56.077v2.077a2.083,2.083,0,0,0,2.077,2.077H3.115V58.154a1.038,1.038,0,0,1,2.077,0v2.077H7.269V58.154a1.038,1.038,0,0,1,2.077,0v2.077h13.5a2.083,2.083,0,0,0,2.077-2.077V56.077A2.083,2.083,0,0,0,22.845,54Z" transform="translate(0 2.075)"/>
    <rect id="Rectangle-path" class="cls-1" width="20.768" height="4.154" rx="1" transform="translate(2.077 50.883)"/>
    <path id="Shape-3" data-name="Shape" class="cls-1" d="M56.845,54H36.077A2.083,2.083,0,0,0,34,56.077v2.077a2.083,2.083,0,0,0,2.077,2.077h1.038V58.154a1.038,1.038,0,0,1,2.077,0v2.077h2.077V58.154a1.038,1.038,0,0,1,2.077,0v2.077h13.5a2.083,2.083,0,0,0,2.077-2.077V56.077A2.083,2.083,0,0,0,56.845,54Z" transform="translate(1.306 2.075)"/>
    <path id="Shape-4" data-name="Shape" class="cls-1" d="M58.151,42.269H48.806V41.231a3.115,3.115,0,0,0-3.115-3.115H31.153V35H29.076v3.115H14.538a3.125,3.125,0,0,0-3.115,3.115v1.038H2.077A2.083,2.083,0,0,0,0,44.346v2.077A2.083,2.083,0,0,0,2.077,48.5H3.115V46.423a1.038,1.038,0,1,1,2.077,0V48.5H7.269V46.423a1.038,1.038,0,1,1,2.077,0V48.5h13.5a2.083,2.083,0,0,0,2.077-2.077V44.346a2.083,2.083,0,0,0-2.077-2.077H13.5V41.231a1.038,1.038,0,0,1,1.038-1.038H45.69a1.038,1.038,0,0,1,1.038,1.038v1.038H37.383a2.083,2.083,0,0,0-2.077,2.077v2.077A2.083,2.083,0,0,0,37.383,48.5h1.038V46.423a1.038,1.038,0,1,1,2.077,0V48.5h2.077V46.423a1.038,1.038,0,1,1,2.077,0V48.5h13.5a2.083,2.083,0,0,0,2.077-2.077V44.346A2.083,2.083,0,0,0,58.151,42.269Z" transform="translate(0 1.345)"/>
    <rect id="Rectangle-path-2" data-name="Rectangle-path" class="cls-1" width="20.768" height="4.154" rx="1" transform="translate(37.383 50.883)"/>
  </g>
</svg>
