<svg xmlns="http://www.w3.org/2000/svg" width="109" height="109.002" viewBox="0 0 109 109.002">
  <defs>
    <style>
      .cls-1 {
        fill: #fff;
      }
    </style>
  </defs>
  <g id="Pay_for_what_you_use" data-name="Pay for what you use" transform="translate(-0.003)">
    <g id="Group_343" data-name="Group 343" transform="translate(0.003 0)">
      <g id="Group_342" data-name="Group 342" transform="translate(0)">
        <path id="Path_1325" data-name="Path 1325" class="cls-1" d="M101.571,89.183H84.23a19.818,19.818,0,0,1,0-39.636h17.341a2.476,2.476,0,0,0,2.477-2.477V39.638a9.888,9.888,0,0,0-9.12-9.829L80.7,4.959A9.8,9.8,0,0,0,67.25,1.335L18.478,29.729H9.912A9.919,9.919,0,0,0,0,39.638V99.092A9.919,9.919,0,0,0,9.912,109H94.139a9.919,9.919,0,0,0,9.909-9.909V91.661A2.476,2.476,0,0,0,101.571,89.183ZM83.773,20.3l5.4,9.428H67.579ZM28.325,29.729,69.744,5.617a4.791,4.791,0,0,1,3.68-.5,4.857,4.857,0,0,1,2.976,2.3l.005.009-38.3,22.3Z" transform="translate(-0.003 0)"/>
        <path id="Path_1326" data-name="Path 1326" class="cls-1" d="M330.875,234.674H313.534a14.864,14.864,0,0,0,0,29.727h17.341a7.44,7.44,0,0,0,7.432-7.432V242.106A7.44,7.44,0,0,0,330.875,234.674Zm-17.341,19.818a4.954,4.954,0,1,1,4.954-4.954A4.961,4.961,0,0,1,313.534,254.492Z" transform="translate(-229.306 -180.172)"/>
      </g>
    </g>
  </g>
</svg>
