<svg id="Patien_Engagement_App" data-name="Patien Engagement App" xmlns="http://www.w3.org/2000/svg" width="72.352" height="72.352" viewBox="0 0 72.352 72.352">
  <defs>
    <style>
      .cls-1 {
        fill: #3498db;
      }
    </style>
  </defs>
  <path id="Path_606" data-name="Path 606" class="cls-1" d="M25.581,40.118a3.015,3.015,0,0,1-2.508-1.342l-5.134-7.7H12.015a3.015,3.015,0,0,1,0-6.029h7.537a3.019,3.019,0,0,1,2.508,1.342l3.147,4.721,6.72-13.442A3.019,3.019,0,0,1,34.507,16a2.973,2.973,0,0,1,2.7,1.459l8.167,13.614h5.83a3.015,3.015,0,1,1,0,6.029H43.668a3.01,3.01,0,0,1-2.584-1.462L34.866,25.277,28.279,38.454a3.018,3.018,0,0,1-2.511,1.661C25.707,40.118,25.644,40.118,25.581,40.118Z" transform="translate(18.132 32.234)"/>
  <circle id="Ellipse_34" data-name="Ellipse 34" class="cls-1" cx="15.073" cy="15.073" r="15.073" transform="translate(12.059)"/>
  <path id="Path_607" data-name="Path 607" class="cls-1" d="M21.1,36.117a9.055,9.055,0,0,1,9.044-9.044h7.537a9.038,9.038,0,0,1,4.4,1.137l2.59-5.182a8.993,8.993,0,0,1,6.674-4.805A15.025,15.025,0,0,0,39.19,12H15.073A15.075,15.075,0,0,0,0,27.073v9.8a2.262,2.262,0,0,0,2.261,2.261h19.4A8.942,8.942,0,0,1,21.1,36.117Z" transform="translate(0 24.176)"/>
</svg>
