<svg xmlns="http://www.w3.org/2000/svg" width="48.561" height="64.748" viewBox="0 0 48.561 64.748">
  <defs>
    <style>
      .cls-1 {
        fill: #3498db;
      }
    </style>
  </defs>
  <g id="Pharmacy_Dept" data-name="Pharmacy Dept" transform="translate(-64)">
    <g id="Group_46" data-name="Group 46" transform="translate(64)">
      <g id="Group_45" data-name="Group 45" transform="translate(0)">
        <path id="Path_73" data-name="Path 73" class="cls-1" d="M200.094,196.047A4.051,4.051,0,0,0,196.047,192H192v8.094h4.047A4.051,4.051,0,0,0,200.094,196.047Z" transform="translate(-175.813 -167.719)"/>
        <path id="Path_74" data-name="Path 74" class="cls-1" d="M112.164,13.883,98.678.4a1.344,1.344,0,0,0-.955-.4H69.4A5.4,5.4,0,0,0,64,5.4V59.352a5.4,5.4,0,0,0,5.4,5.4h37.77a5.4,5.4,0,0,0,5.4-5.4V14.838A1.344,1.344,0,0,0,112.164,13.883ZM98.82,51.824a1.349,1.349,0,1,1-2.195,1.568l-4.053-5.674-4.587,5.734a1.35,1.35,0,1,1-2.108-1.686l5.064-6.33-7.4-10.363H80.187v6.745a1.349,1.349,0,1,1-2.7,0V22.932a1.348,1.348,0,0,1,1.349-1.349h5.4a6.729,6.729,0,0,1,2.311,13.055l6.149,8.608,3.976-4.97a1.35,1.35,0,0,1,2.108,1.686l-4.453,5.567Zm2.949-38.335a2.7,2.7,0,0,1-2.7-2.7V4.605l8.884,8.884Z" transform="translate(-64)"/>
      </g>
    </g>
  </g>
</svg>
