<?xml version="1.0" encoding="UTF-8"?>
<!DOCTYPE svg PUBLIC "-//W3C//DTD SVG 1.1//EN" "http://www.w3.org/Graphics/SVG/1.1/DTD/svg11.dtd">
<!-- Creator: CorelDRAW 2020 (64-Bit Evaluation Version) -->
<?xml-stylesheet href="In-Hospital Communication Tool.css" type="text/css"?>
<svg xmlns="http://www.w3.org/2000/svg" xml:space="preserve" width="300mm" height="250mm" version="1.1" style="shape-rendering:geometricPrecision; text-rendering:geometricPrecision; image-rendering:optimizeQuality; fill-rule:evenodd; clip-rule:evenodd"
viewBox="0 0 30000 25000"
 xmlns:xlink="http://www.w3.org/1999/xlink"
 xmlns:xodm="http://www.corel.com/coreldraw/odm/2003">
 <defs>
 <linearGradient id="id0" gradientUnits="userSpaceOnUse" x1="16782.83" y1="9729.92" x2="18756.86" y2="11214.83">
  <stop offset="0" style="stop-opacity:1; stop-color:white"/>
  <stop offset="1" style="stop-opacity:1; stop-color:white"/>
 </linearGradient>
 <linearGradient id="id1" gradientUnits="userSpaceOnUse" x1="17759.55" y1="15315.43" x2="17874.44" y2="16994.95">
  <stop offset="0" style="stop-opacity:1; stop-color:#DBDBDB"/>
  <stop offset="0.470588" style="stop-opacity:1; stop-color:lightgrey"/>
  <stop offset="0.94902" style="stop-opacity:1; stop-color:#C6C6C6"/>
  <stop offset="1" style="stop-opacity:1; stop-color:#C6C6C6"/>
 </linearGradient>
 <linearGradient id="id2" gradientUnits="userSpaceOnUse" xlink:href="#id1" x1="6735.02" y1="15905.21" x2="6922.24" y2="16765.71">
 </linearGradient>
 <linearGradient id="id3" gradientUnits="userSpaceOnUse" xlink:href="#id1" x1="7306.23" y1="15774.79" x2="7053.39" y2="16076.67">
 </linearGradient>
 <linearGradient id="id4" gradientUnits="userSpaceOnUse" xlink:href="#id1" x1="17868.99" y1="15104.61" x2="17735.91" y2="15702.29">
 </linearGradient>
 <linearGradient id="id5" gradientUnits="userSpaceOnUse" xlink:href="#id1" x1="7002.91" y1="15443.39" x2="6552.93" y2="16127.02">
 </linearGradient>
 <linearGradient id="id6" gradientUnits="userSpaceOnUse" x1="20292.28" y1="18554.16" x2="14952.17" y2="18554.16">
  <stop offset="0" style="stop-opacity:1; stop-color:#9A9A9A"/>
  <stop offset="0.160784" style="stop-opacity:1; stop-color:#A2A2A2"/>
  <stop offset="0.4" style="stop-opacity:1; stop-color:#B8B8B8"/>
  <stop offset="0.690196" style="stop-opacity:1; stop-color:#DBDBDB"/>
  <stop offset="0.94902" style="stop-opacity:1; stop-color:white"/>
  <stop offset="1" style="stop-opacity:1; stop-color:white"/>
 </linearGradient>
 <linearGradient id="id7" gradientUnits="userSpaceOnUse" x1="29745.97" y1="-18073.96" x2="29701.42" y2="-16322.02">
  <stop offset="0" style="stop-opacity:1; stop-color:#0F1E2D"/>
  <stop offset="1" style="stop-opacity:1; stop-color:#082947"/>
 </linearGradient>
 <linearGradient id="id8" gradientUnits="userSpaceOnUse" xlink:href="#id7" x1="18940.02" y1="15938.27" x2="19683.08" y2="17918.8">
 </linearGradient>
 <linearGradient id="id9" gradientUnits="userSpaceOnUse" xlink:href="#id6" x1="21232.23" y1="26208.91" x2="20492.52" y2="25469.2">
 </linearGradient>
 <linearGradient id="id10" gradientUnits="userSpaceOnUse" xlink:href="#id7" x1="33359.1" y1="69707.76" x2="32602.16" y2="71497.87">
 </linearGradient>
 <linearGradient id="id11" gradientUnits="userSpaceOnUse" xlink:href="#id0" x1="16690.03" y1="9856.5" x2="18672.51" y2="11332.85">
 </linearGradient>
 <linearGradient id="id12" gradientUnits="userSpaceOnUse" xlink:href="#id6" x1="18175.8" y1="26633.95" x2="17792.09" y2="26250.24">
 </linearGradient>
 <linearGradient id="id13" gradientUnits="userSpaceOnUse" xlink:href="#id0" x1="13783.16" y1="6352.21" x2="17270.5" y2="9663.23">
 </linearGradient>
 <linearGradient id="id14" gradientUnits="userSpaceOnUse" xlink:href="#id6" x1="21238.19" y1="27813.58" x2="20492.52" y2="27067.9">
 </linearGradient>
 <linearGradient id="id15" gradientUnits="userSpaceOnUse" xlink:href="#id6" x1="22222.47" y1="27819.55" x2="21476.79" y2="27073.87">
 </linearGradient>
 <linearGradient id="id16" gradientUnits="userSpaceOnUse" xlink:href="#id6" x1="22222.47" y1="26208.91" x2="21476.79" y2="25463.24">
 </linearGradient>
 <linearGradient id="id17" gradientUnits="userSpaceOnUse" xlink:href="#id6" x1="20150.34" y1="25828.66" x2="19766.63" y2="25444.94">
 </linearGradient>
 <linearGradient id="id18" gradientUnits="userSpaceOnUse" xlink:href="#id0" x1="16681.6" y1="9864.92" x2="18664.03" y2="11349.81">
 </linearGradient>
 <linearGradient id="id19" gradientUnits="userSpaceOnUse" xlink:href="#id1" x1="7467.12" y1="15782.95" x2="7690.68" y2="16748.65">
 </linearGradient>
 <linearGradient id="id20" gradientUnits="userSpaceOnUse" xlink:href="#id0" x1="10351.18" y1="6912.3" x2="13771.58" y2="8667.03">
 </linearGradient>
 <linearGradient id="id21" gradientUnits="userSpaceOnUse" xlink:href="#id6" x1="19160.27" y1="27439.23" x2="18776.55" y2="27055.51">
 </linearGradient>
 <linearGradient id="id22" gradientUnits="userSpaceOnUse" xlink:href="#id0" x1="16850.33" y1="9637.17" x2="18832.78" y2="11121.94">
 </linearGradient>
 <linearGradient id="id23" gradientUnits="userSpaceOnUse" xlink:href="#id1" x1="18503.79" y1="15220.84" x2="18596.59" y2="16610.82">
 </linearGradient>
 <linearGradient id="id24" gradientUnits="userSpaceOnUse" xlink:href="#id0" x1="13647.8" y1="5361.57" x2="17908.59" y2="9133.45">
 </linearGradient>
 <linearGradient id="id25" gradientUnits="userSpaceOnUse" xlink:href="#id6" x1="20247.86" y1="27813.58" x2="19508.17" y2="27073.87">
 </linearGradient>
 <linearGradient id="id26" gradientUnits="userSpaceOnUse" xlink:href="#id0" x1="13721.47" y1="6144.61" x2="17379.17" y2="9544.39">
 </linearGradient>
 <linearGradient id="id27" gradientUnits="userSpaceOnUse" xlink:href="#id7" x1="18495.09" y1="16092.79" x2="19206.7" y2="17947.27">
 </linearGradient>
 <linearGradient id="id28" gradientUnits="userSpaceOnUse" x1="-394495.43" y1="14097.61" x2="-394497.15" y2="14295.05">
  <stop offset="0" style="stop-opacity:1; stop-color:#A7A6A6"/>
  <stop offset="0.501961" style="stop-opacity:1; stop-color:#BEBEBE"/>
  <stop offset="0.988235" style="stop-opacity:1; stop-color:#D0D1D1"/>
  <stop offset="1" style="stop-opacity:1; stop-color:#D0D1D1"/>
 </linearGradient>
 <linearGradient id="id29" gradientUnits="userSpaceOnUse" xlink:href="#id1" x1="18372.64" y1="15065.27" x2="18591.15" y2="15347.45">
 </linearGradient>
 <linearGradient id="id30" gradientUnits="userSpaceOnUse" xlink:href="#id0" x1="10788.56" y1="6567.09" x2="13278.89" y2="7651.05">
 </linearGradient>
 <linearGradient id="id31" gradientUnits="userSpaceOnUse" xlink:href="#id6" x1="18273.33" y1="26208.91" x2="17527.68" y2="25463.24">
 </linearGradient>
 <linearGradient id="id32" gradientUnits="userSpaceOnUse" xlink:href="#id6" x1="18273.33" y1="27819.55" x2="17527.68" y2="27073.87">
 </linearGradient>
 <linearGradient id="id33" gradientUnits="userSpaceOnUse" xlink:href="#id6" x1="21129.12" y1="25828.66" x2="20745.41" y2="25444.95">
 </linearGradient>
 <linearGradient id="id34" gradientUnits="userSpaceOnUse" xlink:href="#id0" x1="10559.47" y1="6970.06" x2="13736.62" y2="8645.19">
 </linearGradient>
 <linearGradient id="id35" gradientUnits="userSpaceOnUse" xlink:href="#id0" x1="13998.41" y1="6101.04" x2="17458.49" y2="9411.81">
 </linearGradient>
 <linearGradient id="id36" gradientUnits="userSpaceOnUse" xlink:href="#id6" x1="20247.86" y1="26202.95" x2="19508.17" y2="25463.23">
 </linearGradient>
 <linearGradient id="id37" gradientUnits="userSpaceOnUse" xlink:href="#id6" x1="22124.87" y1="26633.95" x2="21741.16" y2="26250.24">
 </linearGradient>
 <linearGradient id="id38" gradientUnits="userSpaceOnUse" xlink:href="#id0" x1="13727.48" y1="5683.06" x2="17730.31" y2="9345.86">
 </linearGradient>
 <linearGradient id="id39" gradientUnits="userSpaceOnUse" xlink:href="#id6" x1="22222.47" y1="27008.26" x2="21482.75" y2="26268.55">
 </linearGradient>
 <linearGradient id="id40" gradientUnits="userSpaceOnUse" xlink:href="#id7" x1="41050.01" y1="43651.4" x2="40455.02" y2="45350.81">
 </linearGradient>
 <linearGradient id="id41" gradientUnits="userSpaceOnUse" xlink:href="#id0" x1="13847.11" y1="5329.06" x2="17965.48" y2="9058.61">
 </linearGradient>
 <linearGradient id="id42" gradientUnits="userSpaceOnUse" xlink:href="#id6" x1="22119.23" y1="27439.23" x2="21735.51" y2="27055.51">
 </linearGradient>
 <linearGradient id="id43" gradientUnits="userSpaceOnUse" xlink:href="#id6" x1="22119.23" y1="25828.67" x2="21735.51" y2="25444.95">
 </linearGradient>
 <linearGradient id="id44" gradientUnits="userSpaceOnUse" xlink:href="#id6" x1="19160.28" y1="25828.66" x2="18776.56" y2="25444.94">
 </linearGradient>
 <linearGradient id="id45" gradientUnits="userSpaceOnUse" xlink:href="#id6" x1="18273.33" y1="27008.26" x2="17533.65" y2="26268.55">
 </linearGradient>
 <linearGradient id="id46" gradientUnits="userSpaceOnUse" xlink:href="#id6" x1="20150.34" y1="27439.23" x2="19766.62" y2="27055.51">
 </linearGradient>
 <linearGradient id="id47" gradientUnits="userSpaceOnUse" xlink:href="#id6" x1="19263.58" y1="27819.55" x2="18517.92" y2="27073.87">
 </linearGradient>
 <linearGradient id="id48" gradientUnits="userSpaceOnUse" xlink:href="#id0" x1="10527.93" y1="6490.51" x2="13268.39" y2="7637.81">
 </linearGradient>
 <linearGradient id="id49" gradientUnits="userSpaceOnUse" xlink:href="#id6" x1="18170.16" y1="25828.67" x2="17786.44" y2="25444.95">
 </linearGradient>
 <linearGradient id="id50" gradientUnits="userSpaceOnUse" xlink:href="#id6" x1="18170.16" y1="27439.23" x2="17786.44" y2="27055.51">
 </linearGradient>
 <linearGradient id="id51" gradientUnits="userSpaceOnUse" xlink:href="#id6" x1="21134.77" y1="27433.58" x2="20751.05" y2="27049.87">
 </linearGradient>
 <linearGradient id="id52" gradientUnits="userSpaceOnUse" xlink:href="#id6" x1="19263.59" y1="26208.91" x2="18517.93" y2="25463.23">
 </linearGradient>
 <linearGradient id="id53" gradientUnits="userSpaceOnUse" xlink:href="#id7" x1="19542.74" y1="63338.92" x2="18785.76" y2="65129.03">
 </linearGradient>
 <linearGradient id="id54" gradientUnits="userSpaceOnUse" xlink:href="#id28" x1="43135.38" y1="17002.31" x2="43566.14" y2="16388.48">
 </linearGradient>
 <radialGradient id="id55" gradientUnits="userSpaceOnUse" gradientTransform="matrix(1.0067 -1.00669 1.0067 1.00669 -19107 15419)" cx="15442.32" cy="18876.42" r="264.83" fx="15442.32" fy="18876.42">
  <stop offset="0" style="stop-opacity:1; stop-color:#9A9A9A"/>
  <stop offset="0.2" style="stop-opacity:1; stop-color:#9E9E9E"/>
  <stop offset="0.380392" style="stop-opacity:1; stop-color:darkgray"/>
  <stop offset="0.560784" style="stop-opacity:1; stop-color:#BDBDBD"/>
  <stop offset="0.74902" style="stop-opacity:1; stop-color:#D8D8D8"/>
  <stop offset="0.929412" style="stop-opacity:1; stop-color:#FAFAFA"/>
  <stop offset="0.94902" style="stop-opacity:1; stop-color:white"/>
  <stop offset="1" style="stop-opacity:1; stop-color:white"/>
 </radialGradient>
 <radialGradient id="id56" gradientUnits="userSpaceOnUse" gradientTransform="matrix(1.00669 -1.00669 1.00669 1.00669 -19099 14425)" xlink:href="#id55" cx="14454.45" cy="18876.42" r="264.83" fx="14454.45" fy="18876.42">
 </radialGradient>
 </defs>
 <g id="Layer_x0020_1">
  <metadata id="CorelCorpID_0Corel-Layer"/>
  <path class="fil0" d="M24279.18 19392.72c0,-116.42 -95.34,-210.9 -210.91,-210.9l-20661.78 0c-116.42,0 -210.9,95.33 -210.9,210.9l0 13.49c0,116.42 95.33,210.91 210.9,210.91l20661.78 0c116.42,0 210.91,-95.33 210.91,-210.91l0 -13.49z"/>
  <g id="_2111097463328">
   <g>
    <path class="fil1" d="M5901.9 15608.27c10.12,-21.09 46.4,-80.15 59.9,-72.56 38.81,23.63 10.12,117.26 -12.66,159.45 -16.87,31.22 -42.18,11.81 -42.18,11.81 0,0 -26.15,-55.68 -5.06,-98.7z"/>
    <path class="fil1" d="M6302.62 16408.01c-176.32,-135.82 -384.69,-545.81 -455.55,-648.74 -57.37,-31.21 -90.27,-48.09 -140.04,-116.42 -47.24,-64.96 36.27,-186.43 137.51,-137.5 26.99,12.65 135.82,80.14 88.58,203.31 8.43,59.05 336.6,383 442.05,493.51 48.09,49.77 113.89,129.91 87.74,171.25 -41.34,66.65 -95.33,85.21 -160.29,34.59z"/>
   </g>
   <g>
    <g>
     <path class="fil1" d="M6643.43 16240.14c0,0 -167.03,146.79 -224.39,181.37 -41.34,24.47 -70.87,-35.43 -89.43,-71.71 -18.56,-36.27 48.93,-173.78 140.03,-265.73 69.19,-69.18 179.71,137.51 173.79,156.07z"/>
     <path class="fil2" d="M7135.27 15759.27c-106.29,151.01 -554.26,590.53 -554.26,590.53 0,0 -60.74,-6.75 -152.69,-83.51 -137.51,-116.42 -151.01,-193.19 -151.01,-193.19 0,0 229.46,-350.94 406.62,-571.97 140.04,-174.63 355.17,-205 474.95,-78.46 97.86,104.61 36.28,252.24 -23.61,336.6z"/>
    </g>
   </g>
  </g>
  <g id="_2111097459392">
   <g>
    <rect class="fil3" x="10214.46" y="17300.56" width="1316.03" height="352.63"/>
    <path class="fil4" d="M11664.63 17593.29c0,-70.02 -57.36,-126.54 -126.54,-126.54l-1330.39 0c-69.18,0 -126.54,57.36 -126.54,126.54l0 1679.64c0,70.02 57.36,126.54 126.54,126.54l1330.38 0c70.02,0 126.54,-57.36 126.54,-126.54l0.01 -1679.64z"/>
    <path class="fil0" d="M11710.18 17077.84c0,-70.01 -57.36,-126.54 -126.54,-126.54l-1421.49 0c-70.02,0 -126.54,57.37 -126.54,126.54l0 174.63c0,70.02 57.36,126.54 126.54,126.54l1421.49 0c70.02,0 126.54,-57.36 126.54,-126.54l0 -174.63z"/>
    <rect class="fil5" x="10081.16" y="17918.08" width="1583.46" height="1029.21"/>
   </g>
  </g>
  <g id="_2111097458816">
   <path class="fil6" d="M10957.68 11366.58c186.43,0 338.29,-151.85 338.29,-338.29l0 -792.15c0,-186.44 -151.86,-338.29 -338.29,-338.29l-2208.59 0c-186.43,0 -338.29,151.86 -338.29,338.3l0.01 792.99c0,186.44 151.85,338.29 338.29,338.29l2208.58 0 0 -0.85z"/>
   <path class="fil6" d="M15789.9 11366.58c-186.44,0 -338.3,-151.85 -338.3,-338.29l0 -792.15c0,-186.44 151.86,-338.29 338.3,-338.29l2209.42 0c186.44,0 338.29,151.86 338.29,338.3l-0.01 792.99c0,186.44 -151.85,338.29 -338.29,338.29l-2209.41 0 0 -0.85z"/>
  </g>
  <path class="fil6" d="M13373.79 14482.05c-217.66,0 -442.9,-84.36 -690.08,-258.15 -57.36,-40.49 -109.67,-80.98 -152.69,-117.25l-5.91 5.9 -102.07 -102.08 -2643.89 -2643.89c-507.01,-507.01 -786.25,-1181.06 -786.25,-1898.13 0,-717.07 279.23,-1391.12 786.25,-1898.13 507.01,-507.01 1181.06,-786.25 1898.13,-786.25 621.74,0 1219.03,213.43 1696.51,604.02 477.48,-390.59 1074.76,-604.02 1696.5,-604.02 717.07,0 1391.12,279.23 1898.13,786.25 507.01,507 786.25,1181.06 786.25,1898.13 0,717.07 -279.23,1391.11 -786.25,1898.13l-2745.96 2745.96 -5.9 -5.9c-43.03,35.43 -95.33,76.77 -152.7,117.26 -246.33,173.79 -472.43,258.15 -690.07,258.15z"/>
  <g id="_2111097452480">
   <path class="fil7" d="M18095.49 11029.14c0,53.14 -43.87,96.17 -96.17,96.17l-1871.14 0c-53.15,0 -96.17,-43.87 -96.17,-96.17l0 -792.15c0,-53.15 43.86,-96.18 96.17,-96.18l1871.14 0c53.14,0 96.17,43.87 96.17,96.18l0 792.15z"/>
   <path class="fil7" d="M8652.08 11029.14c0,53.14 43.87,96.17 96.17,96.17l1871.14 0c53.14,0 96.17,-43.87 96.17,-96.17l0 -792.15c0,-53.15 -43.87,-96.18 -96.17,-96.18l-1870.3 0c-53.14,0 -96.17,43.87 -96.17,96.18l0 792.15 -0.84 0z"/>
   <path class="fil7" d="M16525.53 8014.07c-803.12,-803.13 -2105.66,-803.13 -2908.78,0l0 0 -242.12 242.12 -242.12 -242.12 0 0c-803.13,-803.13 -2105.66,-803.13 -2908.78,0 -803.13,803.12 -803.13,2105.66 0,2908.78l2643.88 2643.88c0,0.84 308.76,287.68 507.86,287.68 199.09,0 507,-287.68 507.85,-287.68l2643.89 -2643.88c801.43,-803.12 801.43,-2105.67 -1.68,-2908.78z"/>
  </g>
  <path class="fil4" d="M17999.32 10140.81l-984.5 0c248.87,-720.44 85.21,-1551.4 -490.13,-2126.74 -803.12,-803.13 -2105.66,-803.13 -2908.78,0l0 0 -242.12 242.12 -242.12 -242.12 0 0c-803.13,-803.13 -2105.66,-803.13 -2908.78,0 -575.35,575.34 -738.16,1406.3 -490.14,2126.74l-983.66 0c-53.14,0 -96.17,43.87 -96.17,96.18l0 792.15c0,53.14 43.87,96.17 96.17,96.17l1676.27 0 2441.41 2441.41c0,0.84 308.76,287.68 507.86,287.68 199.09,0 507,-287.68 507.85,-287.68l2441.42 -2441.41 1676.26 0c53.14,0 96.17,-43.87 96.17,-96.17l0 -792.15c-0.84,-53.15 -43.87,-96.18 -97.01,-96.18z"/>
  <g id="_2111097434480">
   <path class="fil8" d="M17951.23 10740.62c-26.99,0 -48.09,21.93 -48.09,48.09l0 16.03c0,26.99 21.94,48.09 48.09,48.09 26.15,0 48.09,-21.94 48.09,-48.09l0 -16.03c0,-26.16 -21.94,-48.09 -48.09,-48.09z"/>
   <path class="fil9" d="M17951.23 10236.99l-178 0c-26.99,0 -48.09,21.93 -48.09,48.08 0,27 21.94,48.09 48.09,48.09l129.92 0 0 299.48c0,26.99 21.93,48.09 48.09,48.09 26.15,0 48.09,-21.94 48.09,-48.09l0 -347.57c-0.01,-26.16 -21.95,-48.08 -48.1,-48.08z"/>
   <path class="fil10" d="M17623.91 10236.99l-215.97 0c-26.99,0 -48.09,21.93 -48.09,48.08 0,27 21.94,48.09 48.09,48.09l215.97 0c26.99,0 48.09,-21.94 48.09,-48.09 0,-26.16 -21.94,-48.08 -48.09,-48.08z"/>
   <path class="fil11" d="M17259.47 10236.99l-32.06 0c-26.99,0 -48.09,21.93 -48.09,48.08 0,27 21.94,48.09 48.09,48.09l32.06 0c26.99,0 48.09,-21.94 48.09,-48.09 -0.01,-26.16 -21.94,-48.08 -48.09,-48.08z"/>
  </g>
  <g id="_2111097495680">
   <path class="fil12" d="M13029.59 8116.14c-5.9,-5.9 -11.81,-11.81 -17.71,-17.71 -57.36,-55.68 -149.32,-54.84 -205,2.53 -55.68,57.36 -54.83,149.31 2.53,205 5.06,5.06 10.12,10.12 15.18,15.18 28.68,28.68 64.96,42.18 102.08,42.18 37.12,0 74.23,-14.35 102.07,-42.18 57.37,-56.52 57.37,-148.48 0.85,-205z"/>
   <path class="fil13" d="M12563.07 7773.63c-270.8,-141.72 -577.03,-216.8 -885.79,-216.8 -80.15,0 -145.1,64.96 -145.1,145.1 0,80.14 64.96,145.1 145.1,145.1 262.36,0 522.19,63.27 751.65,183.91 21.09,10.97 44.72,16.87 67.49,16.87 52.31,0 102.93,-27.84 128.23,-77.61 37.12,-72.55 9.29,-159.44 -61.58,-196.57z"/>
  </g>
  <g id="_2111097483632">
   <path class="fil14" d="M16968.42 9238.99c-2.53,-21.09 -5.06,-42.17 -8.43,-62.42 -11.81,-79.3 -86.05,-133.3 -165.35,-121.49 -79.3,11.81 -133.29,86.05 -121.48,165.35 2.52,17.71 5.06,35.44 7.59,53.15 8.43,73.39 71.7,127.39 143.41,127.39 5.9,0 11.81,0 17.71,-0.84 79.31,-9.29 135.83,-81.84 126.55,-161.14z"/>
   <path class="fil15" d="M16736.43 8860.2c72.55,-33.74 104.61,-119.79 70.87,-192.34 -67.49,-145.95 -152.7,-283.45 -254.77,-408.31 -50.62,-61.58 -141.73,-70.86 -204.15,-20.25 -61.59,50.62 -70.87,141.73 -20.25,204.16 86.05,105.45 159.44,221.87 215.97,345.88 24.46,53.14 76.77,84.36 131.6,84.36 20.23,0 41.32,-4.21 60.73,-13.5z"/>
   <path class="fil16" d="M16181.33 7911.98c-323.94,-231.99 -708.64,-355.16 -1111.03,-355.16 -80.15,0 -145.1,64.96 -145.1,145.1 0,80.14 64.96,145.1 145.1,145.1 341.66,0 667.3,103.76 942.31,301.17 25.31,18.56 54.84,26.99 84.37,26.99 44.71,0 89.42,-21.09 118.11,-60.74 46.38,-65.79 31.2,-156.06 -33.76,-202.46z"/>
  </g>
  <g id="_2111097486464">
   <path class="fil17" d="M17555.58 9075.33c-2.53,-16.87 -5.07,-33.74 -8.44,-50.62 -11.8,-65.8 -74.23,-109.66 -140.03,-97.85 -65.8,11.8 -109.67,74.23 -97.86,140.03 2.53,15.19 5.06,30.37 7.59,45.55 9.28,59.9 60.74,102.08 118.95,102.08 5.9,0 12.65,-0.84 18.56,-1.69 66.64,-10.12 112.19,-71.7 101.23,-137.5z"/>
   <path class="fil18" d="M17355.64 8735.35c62.43,-23.62 93.64,-92.79 70.02,-155.22 -100.39,-265.73 -243.81,-510.38 -428.56,-729.73 -43.02,-50.61 -118.95,-57.36 -170.41,-14.34 -50.62,43.03 -57.36,118.95 -14.35,170.41 166.19,197.41 296.96,419.28 387.22,658.86 18.57,48.09 64.12,78.46 113.05,78.46 14.34,0 28.69,-2.53 43.03,-8.44z"/>
   <path class="fil19" d="M16636.88 7499.46c-409.15,-326.48 -901.82,-513.76 -1425.71,-542.44 -66.64,-3.38 -123.16,47.24 -127.39,113.89 -3.37,66.64 47.25,123.16 113.9,127.39 473.26,26.15 918.69,195.71 1288.2,490.13 21.93,17.71 48.93,26.15 75.08,26.15 35.43,0 70.87,-15.18 94.48,-45.55 42.18,-52.31 32.9,-128.24 -18.56,-169.57z"/>
  </g>
  <g id="_2111819947920">
   <path class="fil20" d="M13266.65 7518.86c-7.6,-5.91 -15.19,-12.66 -23.63,-18.56 -52.3,-41.34 -128.23,-32.9 -169.56,19.4 -41.34,52.3 -32.9,128.23 19.4,169.56 6.75,5.91 14.34,10.97 21.09,16.88 22.77,18.56 49.77,26.99 75.92,26.99 34.58,0 70.02,-15.19 93.64,-44.71 43.03,-51.45 35.44,-127.38 -16.86,-169.56z"/>
   <path class="fil21" d="M12859.18 7247.22c-362.76,-192.34 -771.07,-294.42 -1181.9,-294.42 -66.65,0 -120.64,53.99 -120.64,120.64 0,66.64 53.99,120.63 120.64,120.63 371.18,0 740.69,91.96 1068.01,266.59 17.72,9.28 37.13,14.34 56.53,14.34 43.02,0 85.2,-23.62 106.29,-64.11 32.05,-59.06 9.28,-132.46 -48.93,-163.67z"/>
  </g>
  <g id="_2111819943264">
   <g>
    <g>
     <path class="fil4" d="M20918.22 15696.85l-126.55 0 0 -1195.4c0,-197.41 -161.13,-358.54 -358.54,-358.54l-598.95 0c-267.43,0 -485.08,-217.65 -485.08,-485.08l0 -2603.39c0,-197.4 -161.14,-358.54 -358.54,-358.54l-1494.88 0.01 0 -126.54 1494.88 -0.01c267.42,0 485.08,217.66 485.08,485.08l0 2603.39c0,197.41 161.13,358.54 358.54,358.54l598.96 0c267.42,0 485.08,217.66 485.08,485.08l0 1195.4z"/>
    </g>
   </g>
   <g>
    <g>
     <path class="fil4" d="M5956.74 15696.85l-126.55 0 0 -1195.4c0,-267.42 217.66,-485.08 485.08,-485.08l598.97 0c197.4,0 358.53,-161.13 358.53,-358.54l0 -2603.39c0,-267.42 217.66,-485.08 485.08,-485.08l1494.88 0 0 126.54 -1494.88 0.01c-197.4,0 -358.54,161.13 -358.54,358.54l0 2603.39c0,267.42 -217.65,485.08 -485.07,485.08l-598.97 -0.01c-197.4,0 -358.54,161.13 -358.54,358.54l0.01 1195.4z"/>
    </g>
   </g>
  </g>
  <g id="_2111819943792">
   <g>
    <g>
     <path class="fil22" d="M20671.88 15434.49c3.38,-22.78 21.09,-90.27 36.28,-86.05 43.86,10.97 43.02,108.82 33.74,156.91 -6.75,34.58 -37.12,23.62 -37.12,23.62 0,0 -40.49,-46.4 -32.9,-94.48z"/>
     <path class="fil22" d="M21286.03 16084.91c-207.53,-79.3 -525.57,-410.84 -623.43,-489.3 -63.27,-13.49 -100.38,-19.4 -167.87,-70.86 -64.12,-48.93 -19.4,-188.97 91.95,-171.26 29.53,4.22 153.54,37.12 143.41,168.73 25.31,54.83 432.78,269.11 566.07,344.19 59.9,33.75 146.79,91.11 133.29,139.2 -19.41,75.92 -65.81,108.83 -143.42,79.3z"/>
    </g>
    <g>
     <g>
      <g>
       <path class="fil3" d="M21616.73 16011.51c0,0 -210.06,73.4 -276.7,83.52 -47.25,7.59 -52.31,-59.05 -56.53,-100.39 -3.37,-40.5 110.52,-142.57 229.47,-193.19 91.95,-38.8 115.57,194.88 103.76,210.06z"/>
       <path class="fil3" d="M22252.81 15750.84c-156.06,100.39 -735.63,338.29 -735.63,338.29 0,0 -53.99,-28.68 -109.66,-134.98 -84.37,-159.44 -67.49,-236.21 -67.49,-236.21 0,0 345.03,-238.75 591.37,-376.26 194.87,-108.82 406.62,-56.52 469.89,106.3 52.31,133.3 -60.74,247.18 -148.48,302.86z"/>
      </g>
     </g>
    </g>
    <g>
     <g>
      <path class="fil23" d="M21946.58 19328.6c0,0 271.64,-70.01 291.89,-75.92 21.94,-6.75 56.52,-19.4 60.74,52.31 4.21,71.7 6.75,94.48 6.75,94.48 0,0 -314.67,0.84 -348.41,-3.38 -34.59,-3.37 -61.59,-29.52 -10.97,-67.49z"/>
      <path class="fil24" d="M21825.94 16660.25c0,0 16.04,914.48 26.16,1096.7 10.97,183.07 362.75,221.03 458.92,-16.03 97.02,-236.21 225.25,-566.06 226.09,-806.5 0.84,-240.43 -57.36,-424.33 -231.15,-566.9 -172.94,-141.73 -485.08,46.4 -480.02,292.73z"/>
      <path class="fil25" d="M21853.79 17772.98c40.49,221.02 56.52,218.49 113.04,484.23 57.36,265.74 217.65,1030.05 217.65,1030.05 0,0 21.09,17.71 43.87,11.81 32.9,-8.44 35.43,-27.84 35.43,-27.84 0,0 -22.77,-192.35 -3.37,-323.11 19.4,-130.76 66.64,-941.47 71.7,-1103.44 5.07,-161.14 -47.24,-281.77 -231.15,-272.49 -183.06,10.97 -264.89,103.78 -247.17,200.79z"/>
      <g>
       <path class="fil26" d="M22754.77 19306.67c0.84,-6.75 1.68,-12.66 2.52,-18.56 9.29,-48.93 37.97,-38.81 57.37,-32.9 3.37,0.84 15.18,4.22 32.05,9.28 16.88,-4.22 28.68,-7.59 32.06,-9.28 19.4,-5.9 48.93,-16.87 57.36,32.9 0.84,5.06 1.69,11.81 2.53,18.56 4.22,70.02 6.75,92.79 6.75,92.79 0,0 -43.02,0 -98.7,0 -55.68,0 -98.7,-0.84 -98.7,-0.84 0,0 2.53,-21.93 6.76,-91.95z"/>
       <path class="fil27" d="M22252.81 16785.95c0,0 259.84,977.76 309.61,1149.85 49.77,172.09 393.97,132.44 435.31,-114.73 41.33,-247.18 136.66,-746.6 -43.87,-1250.23 -97.02,-272.49 -758.42,-19.41 -701.05,215.11z"/>
       <path class="fil27" d="M22523.62 17789.01c36.27,273.33 288.51,1520.19 288.51,1520.19 0,0 5.9,10.97 38.81,4.22 32.05,-6.75 35.43,-26.99 35.43,-26.99 0,0 -11.81,-175.47 12.66,-302.86 25.3,-127.39 80.98,-712.01 93.64,-869.76 12.66,-157.76 -3.38,-484.24 -183.06,-483.4 -179.7,0.84 -290.21,127.38 -285.99,158.6z"/>
      </g>
     </g>
     <path class="fil4" d="M22154.96 15261.55c-284.3,43.02 -273.33,300.33 -293.58,513.76 -47.24,494.36 -72.56,1150.68 -72.56,1150.68 0,0 156.07,76.77 611.62,45.55 591.37,-40.49 640.3,-212.59 640.3,-212.59 0,0 -140.03,-810.71 -264.04,-1205.52 -43.03,-137.51 -194.88,-307.08 -430.25,-308.76 -68.33,0 -121.48,5.91 -191.49,16.88z"/>
     <g>
      <path class="fil27" d="M22000.57 14985.68c-95.33,-71.71 -145.94,-329.01 -21.93,-389.75 153.54,-75.08 179.68,91.96 273.33,86.89 204.15,-10.97 265.73,118.11 248.86,279.24 -10.97,100.38 -85.2,199.09 -169.56,246.33 -37.13,20.25 -47.25,-151.85 -152.7,-198.24 -106.29,-46.4 -178,-24.47 -178,-24.47z"/>
      <path class="fil3" d="M22043.6 15298.66c-9.28,86.05 -53.15,277.54 147.63,250.55 235.37,-31.22 266.58,-280.08 250.55,-306.23 -35.43,-60.74 -126.54,-18.56 -185.6,-10.12 -59.05,8.44 -204.99,-7.6 -212.58,65.8z"/>
      <g>
       <path class="fil22" d="M22379.35 15242.99c-11.8,0 -22.77,0 -35.43,0.84 -67.49,3.37 -119.79,12.65 -188.96,27.84 -21.94,4.21 -42.18,10.12 -59.9,17.71 -2.53,55.68 -44.72,211.75 106.29,196.56 155.23,-17.71 185.6,-190.65 178,-242.95z"/>
       <g>
        <path class="fil22" d="M22358.27 15253.95c-50.62,-140.03 -59.9,-223.56 -113.9,-347.57 0,-5.06 -189.81,35.44 -242.96,-59.9 0,0 -8.43,126.54 12.66,230.31 20.25,97.86 51.46,150.16 146.79,99.55 1.69,48.08 -4.22,106.29 -10.12,147.62 -11.81,84.37 43.86,110.52 84.36,110.52 40.49,0.85 177.16,-31.21 123.17,-180.53z"/>
        <path class="fil22" d="M22348.15 14940.13c15.18,22.77 0,59.9 -33.75,82.67 -33.74,22.78 -74.23,21.94 -89.43,-0.84 -15.18,-22.77 0,-59.9 33.75,-82.67 34.58,-22.79 74.23,-22.79 89.43,0.84z"/>
       </g>
      </g>
     </g>
    </g>
    <g>
     <path class="fil3" d="M22116.15 15542.47l30.37 85.2 66.64 2.53 53.14 -111.36c0.01,-0.84 -107.13,-38.8 -150.15,23.63z"/>
     <path class="fil3" d="M22145.68 15626.83l-105.46 899.29 148.48 366.13 146.79 -356 -123.16 -906.88c0.84,-0.01 -22.79,-43.04 -66.65,-2.54z"/>
    </g>
    <g>
     <g>
      <path class="fil3" d="M23178.26 15953.3c0,0 129.08,181.38 157.76,242.12 20.25,43.87 -42.18,66.65 -80.15,81.83 -37.96,15.18 -167.88,-66.64 -249.71,-166.19 -63.27,-76.77 154.38,-165.35 172.1,-157.76z"/>
      <path class="fil3" d="M22614.72 15334.09c174.63,127.39 666.46,692.61 666.46,692.61 0,0 -12.66,59.9 -99.55,143.41 -129.92,124.85 -207.53,130.76 -207.53,130.76 0,0 -192.34,-151.01 -355.16,-299.48 -79.3,-72.56 -102.93,-113.05 -101.24,-334.92 1.7,-143.4 13.51,-393.12 97.02,-332.38z"/>
     </g>
    </g>
    <g>
     <path class="fil22" d="M22435.04 16540.46c-18.56,-13.5 -70.02,-60.74 -59.05,-72.56 30.37,-33.74 116.42,12.66 154.38,43.03 27.84,22.78 3.37,43.03 3.37,43.03 0,0 -60.74,16.03 -98.7,-13.5z"/>
     <path class="fil22" d="M23297.21 16300.04c-167.04,146.78 -609.09,272.48 -723.83,323.1 -41.33,49.77 -64.11,80.15 -140.88,115.57 -72.55,33.75 -175.47,-70.86 -108.83,-161.97 17.72,-23.62 104.61,-118.11 215.97,-48.09 59.9,3.38 440.37,-257.3 568.59,-339.98 58.21,-37.12 149.32,-86.89 185.6,-53.14 57.37,53.99 64.96,110.51 3.38,164.51z"/>
    </g>
   </g>
   <path class="fil3" d="M20909.78 15822.55c-5.06,7.59 -16.03,9.28 -23.63,4.21l-192.34 -134.98c-7.59,-5.06 -9.28,-16.03 -4.21,-23.62l86.89 -124.01c5.06,-7.6 16.03,-9.28 23.62,-4.22l192.34 134.98c7.6,5.07 9.28,16.03 4.22,23.63l-86.89 124.01z"/>
  </g>
  <g id="_2112973312064">
   <g>
    <g>
     <g>
      <path class="fil28" d="M5394.05 15534.03c14.35,-35.43 32.9,-70.01 55.68,-66.64 34.59,5.07 5.07,54 15.19,118.95 6.75,42.18 -68.33,75.08 -68.33,75.08 0,0 -24.48,-73.4 -2.54,-127.39z"/>
      <path class="fil28" d="M4805.21 16160.84c126.54,-207.53 477.49,-383.85 586.31,-513.76 47.24,-57.36 92.8,-200.78 166.19,-176.32 48.09,12.66 134.98,97.02 107.14,142.57 -21.94,36.28 -151,120.64 -205,94.49 -53.99,26.15 -373.72,393.96 -479.17,504.48 -47.24,49.77 -118.11,112.2 -161.14,87.74 -69.17,-37.97 -61.57,-71.72 -14.33,-139.2z"/>
     </g>
     <g>
      <path class="fil28" d="M4613.71 16159.99c0,0 122.32,107.98 180.53,139.2 41.34,22.77 115.57,-8.44 131.6,-44.72 16.88,-36.27 -54.83,-167.87 -147.63,-253.92 -71.71,-65.81 -171.26,141.73 -164.5,159.44z"/>
      <path class="fil29" d="M4269.51 15753.37c122.32,329.01 377.09,540.75 377.09,540.75 0,0 89.43,-9.28 168.73,-96.17 71.7,-80.14 77.61,-136.67 77.61,-136.67 0,0 -183.91,-259.83 -274.18,-477.48 -25.3,-61.59 -115.57,-246.34 -212.59,-209.22 -117.26,43.87 -217.65,161.13 -136.66,378.79z"/>
     </g>
     <g>
      <path class="fil22" d="M6019.17 15477.51c30.37,-52.3 88.58,-91.1 102.92,-79.3 26.99,22.78 -28.68,54.84 -17.71,82.68 10.12,26.15 -91.96,80.15 -91.96,80.15 0,0 -9.29,-56.53 6.75,-83.53z"/>
      <path class="fil22" d="M5599.04 16141.43c105.45,-96.17 421.81,-460.61 475.8,-501.1 130.76,37.96 173.78,-48.09 209.22,-102.93 33.74,-52.3 -86.9,-154.38 -108.83,-138.35 -28.68,20.24 -27,18.56 -73.4,67.49 -35.43,37.12 -107.14,-41.34 -87.74,103.76 -66.64,70.02 -250.55,220.18 -250.55,220.18 0,0 -217.65,182.22 -318.88,269.12 -27.84,23.62 -91.11,88.57 -35.43,141.72 45.56,43.03 129.92,-5.06 189.81,-59.89z"/>
     </g>
     <g>
      <path class="fil23" d="M4239.14 19306.67c-0.84,-6.75 -0.84,-12.66 -2.53,-18.56 -8.43,-48.93 -37.96,-38.81 -57.36,-32.9 -3.37,0.84 -15.18,4.22 -32.06,9.28 -16.87,-4.22 -28.68,-7.59 -32.05,-9.28 -19.4,-5.9 -48.93,-16.87 -57.36,32.9 -0.84,5.06 -1.69,11.81 -2.53,18.56 -4.22,70.02 -6.75,92.79 -6.75,92.79 0,0 43.02,0 98.69,0 55.69,0 98.7,0 98.7,0 0,0 -2.53,-22.77 -6.75,-92.79z"/>
      <path class="fil28" d="M4547.06 16850.91c0,0 -161.14,880.73 -200.79,1055.36 -39.65,174.63 -385.53,155.22 -441.2,-88.58 -55.69,-243.81 -133.3,-610.78 -52.31,-976.9 51.46,-230.3 85.2,-239.59 275.87,-349.26 190.65,-109.67 462.3,122.32 418.43,359.38z"/>
      <path class="fil28" d="M4376.65 17758.64c-20.25,275.02 -198.25,1534.53 -198.25,1534.53 0,0 -5.9,11.81 -38.81,6.75 -32.05,-5.06 -37.12,-24.46 -37.12,-24.46 0,0 1.69,-176.32 -30.37,-301.17 -32.05,-125.7 -123.16,-706.1 -145.1,-862.17 -21.93,-156.07 -25.3,-483.39 154.38,-493.51 179.7,-10.98 297.8,107.97 295.27,140.03z"/>
     </g>
     <g>
      <path class="fil23" d="M5003.45 19330.29c0,0 -265.73,-68.33 -285.14,-75.08 -21.09,-6.75 -55.68,-19.4 -59.05,51.46 -4.22,70.02 -6.75,92.79 -6.75,92.79 0,0 307.92,0.84 341.66,-2.53 32.06,-4.21 58.21,-28.68 9.28,-66.64z"/>
      <path class="fil28" d="M5012.73 16880.44c0,0 -70.01,780.34 -94.48,958.34 -25.3,177.16 -325.63,304.55 -401.56,65.8 -75.92,-238.74 -220.18,-688.39 -201.62,-923.76 18.56,-235.36 89.43,-409.99 270.8,-534.84 180.53,-124.86 443.74,269.96 426.86,434.46z"/>
      <path class="fil28" d="M4924.16 17818.53c-25.31,274.18 -21.94,288.51 -41.34,457.24 -29.53,264.05 -118.95,1002.22 -118.95,1002.22 0,0 -4.22,17.71 -42.18,26.15 -21.09,5.06 -37.12,-11.81 -37.12,-11.81 0,0 5.07,-188.96 -25.3,-314.66 -30.37,-125.7 -136.67,-754.2 -156.07,-911.11 -19.4,-156.91 8.43,-437.83 188.12,-444.58 179.69,-7.6 242.12,88.57 232.84,196.55z"/>
     </g>
     <path class="fil0" d="M3829.14 16846.69c-19.4,185.6 -23.62,602.34 -11.8,804.81 11.8,202.47 11.8,247.18 11.8,247.18 0,0 68.33,81.82 501.11,86.89 432.77,5.9 615.83,-120.64 615.83,-120.64 0,0 62.43,-786.25 67.49,-944.84 5.07,-158.6 -215.11,-490.14 -674.89,-497.73 -459.77,-8.44 -493.5,269.95 -509.54,424.33z"/>
     <path class="fil28" d="M4588.39 15376.28c20.25,-70.02 25.31,-108.83 48.09,-171.26 218.5,-2.52 275.87,-148.47 294.42,-237.05 0,0 14.34,116.42 0.84,226.09 -14.34,97.01 -21.94,131.6 -122.32,112.2 -9.28,69.18 -6.76,79.3 -14.35,129.92 -12.66,82.67 -54.83,106.29 -94.48,107.14 -38.8,-0.01 -155.21,-17.73 -112.2,-167.04z"/>
     <path class="fil4" d="M5026.23 15668.17c-11.81,-143.42 -27.84,-239.59 -258.14,-285.15 -68.33,-13.49 -120.64,-15.18 -185.6,-24.46 -225.25,-32.06 -329.85,79.3 -425.18,309.61 -240.43,579.56 -339.98,1170.93 -339.98,1170.93 0,0 98.7,101.24 647.89,145.95 445.43,36.27 561,-52.31 561,-52.31 0,0 24.48,-971 0.01,-1264.57z"/>
     <g>
      <path class="fil3" d="M5224.48 16133.84c0,0 148.47,69.18 212.59,82.67 46.4,10.12 107.98,-40.49 113.89,-80.14 5.9,-39.65 -100.39,-145.95 -213.43,-201.63 -87.74,-43.01 -124.01,183.07 -113.05,199.1z"/>
      <path class="fil3" d="M4779.89 15841.11c210.91,280.92 514.61,411.68 514.61,411.68 0,0 83.51,-33.74 134.13,-140.03 46.4,-97.02 35.43,-153.54 35.43,-153.54 0,0 -249.71,-197.41 -398.19,-380.47 -42.18,-51.46 -180.53,-204.15 -263.21,-140.89 -99.54,75.93 -161.96,216.81 -22.77,403.25z"/>
     </g>
     <path class="fil0" d="M4782.43 15391.46c-25.3,-216.8 86.05,-258.99 101.24,-275.86 29.53,-32.06 82.67,-72.56 69.17,-146.79 -18.56,-97.86 -45.55,-220.18 -253.08,-247.18 -172.94,-21.93 -326.47,149.32 -453.02,472.43 -56.52,145.94 -323.94,64.11 -529.79,356 -126.54,179.68 -120.64,523.88 210.06,728.04 184.75,113.89 835.18,212.59 931.35,-365.29 24.46,-144.26 -67.5,-454.71 -75.93,-521.35z"/>
     <path class="fil28" d="M4809.42 15064.98c-21.08,16.87 -17.71,55.68 6.76,86.89 25.3,31.22 62.42,43.03 83.51,26.15 21.09,-16.87 18.56,-55.68 -6.75,-86.89 -25.31,-31.21 -62.43,-43.02 -83.52,-26.15z"/>
    </g>
   </g>
   <path class="fil30" d="M5885.87 15863.89c6.76,6.75 16.88,6.75 23.63,0.84l170.41 -161.98c6.75,-6.75 6.75,-16.87 0.84,-23.62l-104.61 -109.67c-6.75,-6.75 -16.87,-6.75 -23.62,-0.84l-170.42 161.97c-6.75,6.76 -6.75,16.88 -0.84,23.63l104.61 109.67z"/>
  </g>
  <path class="fil0" d="M18975.37 19251.83c0,80.99 -66.64,147.63 -147.63,147.63l-4796.78 0.01c-80.99,0 -147.63,-66.64 -147.63,-147.63l0 -2359.59c0,-80.99 66.64,-147.63 147.63,-147.63l4796.78 0c80.99,0 147.63,66.64 147.63,147.63l0 2359.58z"/>
  <path class="fil31" d="M17916.64 18074.15c0,143.41 -118.1,261.52 -261.52,261.52l-2451.54 0c-143.41,0 -261.52,-118.11 -261.52,-261.52l0 -4.22c0,-143.41 118.11,-261.52 261.52,-261.52l2451.54 0c143.42,0 261.52,118.11 261.52,261.52l0 4.22z"/>
  <g id="_2075099982816">
   <g>
    <circle class="fil6" cx="14454.45" cy="17267.66" r="253.08"/>
    <path class="fil32" d="M14610.52 17466.75c8.43,-5.9 16.03,-13.49 23.63,-20.25 7.59,-7.59 14.34,-15.18 20.25,-23.62l-355.17 -355.16c-8.43,5.9 -16.03,13.49 -23.62,20.24 -7.6,7.6 -14.35,15.19 -20.25,23.63l355.16 355.16z"/>
    <path class="fil33" d="M14581.84 17394.2c-98.7,98.7 -236.21,122.32 -306.23,51.46 98.7,98.69 258.99,98.69 357.69,0 98.7,-98.7 98.7,-259 0,-357.7 70.86,70.87 47.24,207.54 -51.46,306.24z"/>
   </g>
   <g>
    <circle class="fil6" cx="15442.32" cy="17267.66" r="253.08"/>
    <path class="fil34" d="M15597.55 17466.75c8.43,-5.9 16.03,-13.49 23.62,-20.25 7.59,-7.59 14.34,-15.18 20.25,-23.62l-355.16 -355.16c-8.44,5.9 -16.04,13.49 -23.63,20.24 -7.59,7.6 -14.34,15.19 -20.25,23.63l355.17 355.16z"/>
    <path class="fil35" d="M15569.71 17394.2c-98.7,98.7 -236.21,122.32 -306.23,51.46 98.7,98.69 258.99,98.69 357.69,0 98.7,-98.7 98.7,-259 0,-357.7 70.02,70.87 47.24,207.54 -51.46,306.24z"/>
   </g>
   <g>
    <circle class="fil6" cx="16429.35" cy="17267.66" r="253.08"/>
    <path class="fil36" d="M16585.42 17466.75c8.43,-5.9 16.03,-13.49 23.62,-20.25 7.59,-7.59 14.35,-15.18 20.25,-23.62l-355.16 -355.16c-8.44,5.9 -16.04,13.49 -23.63,20.24 -7.59,7.6 -14.34,15.19 -20.25,23.63l355.17 355.16z"/>
    <path class="fil37" d="M16556.74 17394.2c-98.7,98.7 -236.22,122.32 -306.24,51.46 98.7,98.69 258.99,98.69 357.69,0 98.7,-98.7 98.7,-259 0,-357.7 70.87,70.87 47.25,207.54 -51.45,306.24z"/>
   </g>
   <g>
    <circle class="fil6" cx="17417.22" cy="17267.66" r="253.08"/>
    <path class="fil38" d="M17572.45 17466.75c8.43,-5.9 16.03,-13.49 23.62,-20.25 7.6,-7.59 14.35,-15.18 20.25,-23.62l-355.16 -355.16c-8.43,5.9 -16.03,13.49 -23.63,20.24 -7.59,7.6 -14.34,15.19 -20.24,23.63l355.16 355.16z"/>
    <path class="fil39" d="M17543.77 17394.2c-98.7,98.7 -236.22,122.32 -306.24,51.46 98.7,98.69 259,98.69 357.7,0 98.69,-98.7 98.69,-259 0,-357.7 70.86,70.87 48.09,207.54 -51.46,306.24z"/>
   </g>
   <g>
    <circle class="fil6" cx="18404.25" cy="17267.66" r="253.08"/>
    <path class="fil40" d="M18560.32 17466.75c8.43,-5.9 16.03,-13.49 23.63,-20.25 7.59,-7.59 14.34,-15.18 20.24,-23.62l-355.16 -355.16c-8.43,5.9 -16.03,13.49 -23.62,20.24 -7.6,7.6 -14.35,15.19 -20.25,23.63l355.16 355.16z"/>
    <path class="fil41" d="M18531.64 17394.2c-98.7,98.7 -236.22,122.32 -306.23,51.46 98.69,98.69 258.99,98.69 357.69,0 98.7,-98.7 98.7,-259 0,-357.7 70.02,70.87 47.24,207.54 -51.46,306.24z"/>
   </g>
   <g>
    <path class="fil42" d="M14693.2 19115.17c-131.61,131.6 -345.89,131.6 -477.49,0 -131.61,-131.61 -131.61,-345.89 0,-477.49 131.6,-131.61 345.88,-131.61 477.49,0 131.6,132.45 131.6,345.89 0,477.49z"/>
    <circle class="fil43" cx="14454.45" cy="18877.27" r="253.08"/>
    <path class="fil44" d="M14610.52 19076.36c8.43,-5.9 16.03,-13.49 23.63,-20.24 7.59,-7.6 14.34,-15.19 20.25,-23.63l-355.17 -355.16c-8.43,5.9 -16.03,13.49 -23.62,20.25 -7.6,7.59 -14.35,15.18 -20.25,23.62l355.16 355.16z"/>
    <path class="fil45" d="M14581.84 19003.81c-98.7,98.7 -236.21,122.32 -306.23,51.46 98.7,98.7 258.99,98.7 357.69,0 98.7,-98.7 98.7,-258.99 0,-357.69 70.86,70.86 47.24,207.53 -51.46,306.23z"/>
   </g>
   <g>
    <path class="fil46" d="M15681.07 19115.17c-131.61,131.6 -345.88,131.6 -477.49,0 -131.6,-131.61 -131.6,-345.89 0,-477.49 131.61,-131.61 345.88,-131.61 477.49,0 131.6,132.45 131.6,345.89 0,477.49z"/>
    <circle class="fil43" cx="15442.32" cy="18877.27" r="253.08"/>
    <path class="fil47" d="M15597.55 19076.36c8.43,-5.9 16.03,-13.49 23.62,-20.24 7.59,-7.6 14.34,-15.19 20.25,-23.63l-355.16 -355.16c-8.44,5.9 -16.04,13.49 -23.63,20.25 -7.59,7.59 -14.34,15.18 -20.25,23.62l355.17 355.16z"/>
    <path class="fil48" d="M15569.71 19003.81c-98.7,98.7 -236.21,122.32 -306.23,51.46 98.7,98.7 258.99,98.7 357.69,0 98.7,-98.7 98.7,-258.99 0,-357.69 70.02,70.86 47.24,207.53 -51.46,306.23z"/>
   </g>
   <g>
    <circle class="fil6" cx="16429.35" cy="18877.27" r="253.08"/>
    <path class="fil49" d="M16585.42 19076.36c8.43,-5.9 16.03,-13.49 23.62,-20.24 7.59,-7.6 14.35,-15.19 20.25,-23.63l-355.16 -355.16c-8.44,5.9 -16.04,13.49 -23.63,20.25 -7.59,7.59 -14.34,15.18 -20.25,23.62l355.17 355.16z"/>
    <path class="fil50" d="M16556.74 19003.81c-98.7,98.7 -236.22,122.32 -306.24,51.46 98.7,98.7 258.99,98.7 357.69,0 98.7,-98.7 98.7,-258.99 0,-357.69 70.87,70.86 47.25,207.53 -51.45,306.23z"/>
   </g>
   <g>
    <circle class="fil6" cx="17417.22" cy="18877.27" r="253.08"/>
    <path class="fil51" d="M17572.45 19076.36c8.43,-5.9 16.03,-13.49 23.62,-20.24 7.6,-7.6 14.35,-15.19 20.25,-23.63l-355.16 -355.16c-8.43,5.9 -16.03,13.49 -23.63,20.25 -7.59,7.59 -14.34,15.18 -20.24,23.62l355.16 355.16z"/>
    <path class="fil52" d="M17543.77 19003.81c-98.7,98.7 -236.22,122.32 -306.24,51.46 98.7,98.7 259,98.7 357.7,0 98.69,-98.7 98.69,-258.99 0,-357.69 70.86,70.86 48.09,207.53 -51.46,306.23z"/>
   </g>
   <g>
    <circle class="fil6" cx="18404.25" cy="18877.27" r="253.08"/>
    <path class="fil53" d="M18560.32 19076.36c8.43,-5.9 16.03,-13.49 23.63,-20.24 7.59,-7.6 14.34,-15.19 20.24,-23.63l-355.16 -355.16c-8.43,5.9 -16.03,13.49 -23.62,20.25 -7.6,7.59 -14.35,15.18 -20.25,23.62l355.16 355.16z"/>
    <path class="fil54" d="M18531.64 19003.81c-98.7,98.7 -236.22,122.32 -306.23,51.46 98.69,98.7 258.99,98.7 357.69,0 98.7,-98.7 98.7,-258.99 0,-357.69 70.02,70.86 47.24,207.53 -51.46,306.23z"/>
   </g>
   <g>
    <circle class="fil6" cx="18404.25" cy="18072.46" r="253.08"/>
    <path class="fil55" d="M18560.32 18271.55c8.43,-5.9 16.03,-13.49 23.63,-20.24 7.59,-7.6 14.34,-15.19 20.24,-23.63l-355.16 -355.16c-8.43,5.9 -16.03,13.49 -23.62,20.25 -7.6,7.59 -14.35,15.18 -20.25,23.62l355.16 355.16z"/>
    <path class="fil56" d="M18531.64 18199.01c-98.7,98.7 -236.22,122.32 -306.23,51.46 98.69,98.69 258.99,98.69 357.69,0 98.7,-98.7 98.7,-259 0,-357.7 70.02,70.87 47.24,207.53 -51.46,306.24z"/>
   </g>
   <g>
    <circle class="fil43" cx="14454.45" cy="18072.46" r="253.08"/>
    <path class="fil57" d="M14610.52 18271.55c8.43,-5.9 16.03,-13.49 23.63,-20.24 7.59,-7.6 14.34,-15.19 20.25,-23.63l-355.17 -355.16c-8.43,5.9 -16.03,13.49 -23.62,20.25 -7.6,7.59 -14.35,15.18 -20.25,23.62l355.16 355.16z"/>
    <path class="fil58" d="M14581.84 18199.01c-98.7,98.7 -236.21,122.32 -306.23,51.46 98.7,98.69 258.99,98.69 357.69,0 98.7,-98.7 98.7,-259 0,-357.7 70.86,70.87 47.24,207.53 -51.46,306.24z"/>
   </g>
  </g>
  <path class="fil59" d="M16714.49 17874.21l-177.15 0c-70.02,0 -126.54,56.53 -126.54,126.54l0 166.19 -964.25 -62.42 0 -438.68 -371.2 0 0 209.21 -601.5 0.01 0 1377.62c0,22.78 5.07,43.87 14.35,62.43l587.15 0 0 85.2 371.19 0 0 -314.67 964.25 -62.42 0 166.19c0,70.02 56.52,126.54 126.54,126.54l177.16 0c70.02,0 126.54,-56.52 126.54,-126.54l0 -1187.81c0,-70.86 -56.52,-127.39 -126.54,-127.39z"/>
  <g id="_2075099981664">
   <path class="fil27" d="M9321.06 19191.1c0,-108.83 -89.42,-198.25 -198.24,-198.25l-799.75 -0.01c-108.83,0 -198.24,89.43 -198.24,198.25l0 10.12c0,108.83 89.42,198.24 198.24,198.24l799.75 0.02c108.83,0 198.24,-89.43 198.24,-198.25l0 -10.12z"/>
   <path class="fil4" d="M8323.07 18992l399.87 0 0 407.47 -399.87 0c-108.83,0 -198.24,-89.43 -198.24,-198.25l0 -10.12c0,-109.67 89.41,-199.1 198.24,-199.1z"/>
  </g>
  <g id="_2075099976240">
   <path class="fil27" d="M10239.76 19191.1c0,-108.83 -89.43,-198.25 -198.25,-198.25l-799.74 -0.01c-108.83,0 -198.25,89.43 -198.25,198.25l0 10.12c0,108.83 89.43,198.24 198.25,198.24l799.74 0.02c108.83,0 198.25,-89.43 198.25,-198.25l0 -10.12z"/>
   <path class="fil4" d="M9241.77 18992l399.87 0 0 407.47 -399.87 0c-108.83,0 -198.25,-89.43 -198.25,-198.25l0 -10.12c-0.85,-109.67 88.58,-199.1 198.25,-199.1z"/>
  </g>
  <g id="_2075100030960">
   <path class="fil0" d="M8718.73 18783.63c0,-108.83 89.42,-198.25 198.24,-198.25l799.76 0c108.82,0 198.24,89.43 198.24,198.25l0 10.12c0,108.82 -89.43,198.24 -198.24,198.24l-799.75 0.01c-108.83,0 -198.25,-89.43 -198.25,-198.24l0 -10.13z"/>
   <path class="fil4" d="M9716.73 18585.38l-399.88 0 0 407.47 399.88 -0.01c108.82,0 198.24,-89.43 198.24,-198.24l0 -10.13c0.84,-110.51 -88.58,-199.09 -198.24,-199.09z"/>
  </g>
  <g id="_2075100030912">
   <polygon class="fil27" points="15352.9,18968.38 16548.3,18890.77 16548.3,18217.57 15352.9,18140.8 "/>
   <polygon class="fil60" points="15352.9,18662.99 16548.3,18642.74 16548.3,18465.58 15352.9,18445.34 "/>
   <path class="fil61" d="M16787.05 19148.07c0,23.63 -19.4,42.18 -42.18,42.18l-177.17 0c-23.62,0 -42.17,-19.4 -42.17,-42.18l0 -1187.81c0,-23.62 19.4,-42.17 42.17,-42.17l177.16 -0.01c23.63,0 42.18,19.4 42.18,42.18l0.01 1187.81z"/>
  </g>
  <path class="fil0" d="M8810.68 18560.92c-19.4,12.65 -16.03,23.62 7.59,23.62l1715.07 0c23.62,0 42.17,-16.87 42.17,-36.27 0,-20.25 -19.4,-36.28 -42.17,-36.28l-1607.09 0c-23.62,0 -58.21,10.96 -76.77,23.62l-38.8 25.31z"/>
  <path class="fil4" d="M11011.67 18356.76l-464.83 0c-46.4,0 -84.36,37.96 -84.36,84.36l0 226.94c0,46.4 37.96,84.36 84.36,84.36l464.83 0 0 -395.66z"/>
  <path class="fil0" d="M11011.67 18158.51l-239.59 0c-46.4,0 -84.36,37.96 -84.36,84.36l0 622.59c0,46.4 37.96,84.36 84.36,84.36l239.59 0 0 -791.31z"/>
  <path class="fil62" d="M11128.93 19063.71c-22.78,0 -42.18,-19.4 -42.18,-42.18l0 -934.73c0,-22.77 19.4,-42.17 42.18,-42.17l4183.48 0 0 1019.09 -4183.48 -0.01z"/>
  <g id="_2112116389840">
   <g>
    <path class="fil6" d="M11302.71 19154.82c-23.62,0 -42.18,-19.4 -42.18,-42.17l0 -412.53c0,-23.62 19.41,-42.18 42.18,-42.18l27.84 -0.01c23.63,0 42.18,19.41 42.18,42.18l0 412.53c0,23.62 -19.4,42.17 -42.18,42.17l-27.84 0.01z"/>
    <path class="fil6" d="M11533.02 19154.82c-23.62,0 -42.17,-19.4 -42.17,-42.17l0 -226.94c0,-23.62 19.4,-42.18 42.17,-42.18l27.84 -0.01c23.62,0 42.17,19.41 42.17,42.18l0 226.94c0,23.62 -19.4,42.17 -42.17,42.17l-27.84 0.01z"/>
    <path class="fil6" d="M11792.01 19154.82c-23.63,0 -42.18,-19.4 -42.18,-42.17l0 -226.94c0,-23.62 19.4,-42.18 42.18,-42.18l27.84 -0.01c23.62,0 42.18,19.41 42.18,42.18l0 226.94c0,23.62 -19.4,42.17 -42.18,42.17l-27.84 0.01z"/>
    <path class="fil6" d="M12056.06 19154.82c-23.62,0 -42.17,-19.4 -42.17,-42.17l0 -226.94c0,-23.62 19.4,-42.18 42.17,-42.18l27.84 -0.01c23.62,0 42.17,19.41 42.17,42.18l0 226.94c0,23.62 -19.4,42.17 -42.17,42.17l-27.84 0.01z"/>
    <path class="fil6" d="M12309.14 19154.82c-23.62,0 -42.17,-19.4 -42.17,-42.17l0 -226.94c0,-23.62 19.4,-42.18 42.17,-42.18l27.84 -0.01c23.63,0 42.18,19.41 42.18,42.18l0 226.94c0,23.62 -19.4,42.17 -42.18,42.17l-27.84 0.01z"/>
   </g>
   <g>
    <path class="fil6" d="M12580.78 19154.82c-23.62,0 -42.17,-19.4 -42.17,-42.17l0 -412.53c0,-23.62 19.4,-42.18 42.17,-42.18l27.85 -0.01c23.62,0 42.17,19.41 42.17,42.18l0 412.53c0,23.62 -19.4,42.17 -42.17,42.17l-27.85 0.01z"/>
    <path class="fil6" d="M12811.94 19154.82c-23.63,0 -42.18,-19.4 -42.18,-42.17l0 -226.94c0,-23.62 19.4,-42.18 42.18,-42.18l27.84 -0.01c23.62,0 42.17,19.41 42.17,42.18l0 226.94c0,23.62 -19.4,42.17 -42.17,42.17l-27.84 0.01z"/>
    <path class="fil6" d="M13070.08 19154.82c-23.62,0 -42.18,-19.4 -42.18,-42.17l0 -226.94c0,-23.62 19.4,-42.18 42.18,-42.18l27.84 -0.01c23.63,0 42.18,19.41 42.18,42.18l0 226.94c0,23.62 -19.4,42.17 -42.18,42.17l-27.84 0.01z"/>
    <path class="fil6" d="M13334.98 19154.82c-23.63,0 -42.18,-19.4 -42.18,-42.17l0 -226.94c0,-23.62 19.4,-42.18 42.18,-42.18l27.84 -0.01c23.62,0 42.18,19.41 42.18,42.18l0 226.94c0,23.62 -19.41,42.17 -42.18,42.17l-27.84 0.01z"/>
    <path class="fil6" d="M13588.07 19154.82c-23.63,0 -42.18,-19.4 -42.18,-42.17l0 -226.94c0,-23.62 19.4,-42.18 42.18,-42.18l27.83 -0.01c23.62,0 42.18,19.41 42.18,42.18l0 226.94c0,23.62 -19.41,42.17 -42.18,42.17l-27.83 0.01z"/>
   </g>
   <g>
    <path class="fil6" d="M13859.71 19154.82c-23.63,0 -42.18,-19.4 -42.18,-42.17l0 -412.53c0,-23.62 19.4,-42.18 42.18,-42.18l27.84 -0.01c23.62,0 42.17,19.41 42.17,42.18l0 412.53c0,23.62 -19.4,42.17 -42.17,42.17l-27.84 0.01z"/>
    <path class="fil6" d="M14132.19 19154.82c-23.62,0 -42.17,-19.4 -42.17,-42.17l0 -226.94c0,-23.62 19.4,-42.18 42.17,-42.18l27.85 -0.01c23.62,0 42.17,19.41 42.17,42.18l0 226.94c0,23.62 -19.4,42.17 -42.17,42.17l-27.85 0.01z"/>
    <path class="fil6" d="M14403.84 19154.82c-23.63,0 -42.18,-19.4 -42.18,-42.17l0 -226.94c0,-23.62 19.4,-42.18 42.18,-42.18l27.84 -0.01c23.62,0 42.17,19.41 42.17,42.18l0 226.94c0,23.62 -19.4,42.17 -42.17,42.17l-27.84 0.01z"/>
    <path class="fil6" d="M14676.32 19154.82c-23.62,0 -42.17,-19.4 -42.17,-42.17l0 -226.94c0,-23.62 19.4,-42.18 42.17,-42.18l27.84 -0.01c23.63,0 42.18,19.41 42.18,42.18l0 226.94c0,23.62 -19.4,42.17 -42.18,42.17l-27.84 0.01z"/>
    <path class="fil6" d="M14947.96 19154.82c-23.62,0 -42.17,-19.4 -42.17,-42.17l0 -226.94c0,-23.62 19.4,-42.18 42.17,-42.18l27.85 -0.01c23.62,0 42.17,19.41 42.17,42.18l0 226.94c0,23.62 -19.4,42.17 -42.17,42.17l-27.85 0.01z"/>
   </g>
  </g>
  <path class="fil6" d="M11128.93 19063.71c-22.78,0 -42.18,-19.4 -42.18,-42.18l0 -934.73c0,-22.77 19.4,-42.17 42.18,-42.17l4094.9 0 0 -126.54 -4094.9 -0.01c-92.79,0 -168.73,75.92 -168.73,168.72l0 934.73c0,92.8 75.93,168.73 168.73,168.73l4094.9 -0.01 0 -126.54 -4094.9 0z"/>
  <rect class="fil6" x="15190.08" y="17709.71" width="202.47" height="1689.76"/>
  <g id="_2113442073216">
   <path class="fil63" d="M19694.13 17786.47c0,0 -279.23,29.53 -299.48,31.22 -22.78,0.84 -59.9,1.69 -38.81,70.87 21.09,68.33 26.99,91.1 26.99,91.1 0,0 295.27,-109.66 325.64,-124.85 30.38,-16.87 46.41,-49.77 -14.34,-68.34z"/>
   <path class="fil64" d="M18181.54 15947.4c0,0 879.04,170.41 1053.67,211.75 174.63,41.34 151.86,387.22 -92.79,440.37 -244.65,53.14 -583.78,121.48 -816.62,81.82 -231.99,-39.65 -399.87,-126.54 -507.86,-318.88 -107.14,-192.34 126.54,-461.45 363.6,-415.06z"/>
   <path class="fil65" d="M19345.72 16287.38c22.78,223.56 7.59,226.09 26.99,496.89 19.4,270.8 80.99,1050.29 80.99,1050.29 0,0 -15.18,22.78 -37.96,23.63 -34.59,1.69 -41.34,-16.87 -41.34,-16.87 0,0 -32.05,-190.66 -86.89,-310.45 -54.83,-119.8 -329.01,-884.95 -378.78,-1038.49 -49.77,-153.54 -33.74,-283.46 145.1,-326.48 178.01,-42.18 282.61,23.62 291.89,121.48z"/>
   <path class="fil27" d="M17923.39 15976.08c0,0 840.23,309.61 1005.58,377.94 165.35,69.18 87.74,406.62 -162.82,420.12 -249.71,13.49 -595.59,26.15 -819.15,-50.62 -222.71,-76.77 -501.95,-230.3 -449.64,-647.89 27.85,-219.34 199.94,-183.9 426.03,-99.55z"/>
   <g>
    <path class="fil63" d="M19112.88 18071.62c0,0 -276.7,-44.71 -296.95,-49.77 -22.78,-5.06 -58.21,-14.34 -55.68,58.21 2.52,71.71 1.68,94.48 1.68,94.48 0,0 313.83,-27.84 346.73,-34.58 33.75,-6.75 58.22,-34.59 4.22,-68.34z"/>
    <path class="fil27" d="M19031.9 16512.63c-17.72,223.56 -33.75,223.56 -63.28,493.51 -29.53,269.95 -111.35,1046.92 -111.35,1046.92 0,0 -19.4,19.4 -42.18,16.03 -33.75,-5.06 -37.96,-23.62 -37.96,-23.62 0,0 3.37,-193.19 -29.53,-321.42 -32.06,-128.23 -162.82,-929.66 -183.91,-1089.95 -21.09,-159.44 24.46,-251.4 199.09,-307.92 140.89,-45.55 277.56,88.59 269.12,186.45z"/>
   </g>
   <path class="fil27" d="M18355.32 14836.36c0,0 90.27,-8.43 120.64,-63.27 30.37,-55.68 5.9,-89.43 24.46,-102.92 34.59,-26.16 83.52,-136.67 84.37,-211.75 0.84,-99.55 6.75,-220.19 -256.46,-313.83 -164.5,-58.21 -360.22,96.17 -568.6,356 -97.85,121.49 -249.71,48.93 -345.03,22.78 -173.78,-48.09 -287.67,70.02 -339.98,196.56 -44.71,107.14 20.25,146.79 11.81,165.35 -21.09,48.09 -151.85,218.49 132.44,483.39 158.6,147.63 378.78,275.86 724.67,234.53 345.88,-41.34 446.27,-351.79 427.71,-497.73 -17.72,-147.63 -16.03,-269.11 -16.03,-269.11z"/>
   <g>
    <path class="fil22" d="M19661.24 15554.28c59.05,-16.04 127.38,-1.69 129.07,16.87 3.38,35.43 -59.05,18.56 -70.86,45.55 -10.97,26.15 -121.49,-8.43 -121.49,-8.43 0,0 32.06,-45.55 63.28,-53.99z"/>
    <path class="fil22" d="M18960.19 15734.81c107.98,5.06 523.04,-39.65 624.28,-26.15 65.8,118.94 156.9,88.58 221.02,74.23 60.74,-13.5 47.24,-170.41 21.09,-174.63 -35.44,-5.9 -32.06,-5.9 -99.55,-4.22 -50.62,1.69 -46.4,-105.45 -135.82,10.97 -96.17,2.53 -333.23,-21.09 -333.23,-21.09l-432.77 -36.27c0,0 -110.52,-0.84 -107.98,76.77 1.69,64.12 161.97,97.01 242.96,100.39z"/>
   </g>
   <g>
    <path class="fil22" d="M18584.79 15556.81c0,0 125.7,103.76 184.75,133.29 42.17,21.09 114.73,-11.8 130.75,-48.93 16.03,-37.12 -60.74,-166.19 -156.07,-248.86 -74.23,-64.12 -166.19,146.78 -159.43,164.5z"/>
    <path class="fil66" d="M18227.93 15162c134.14,324.79 394.82,528.1 394.82,528.1 0,0 89.42,-11.8 165.35,-102.07 69.17,-81.83 72.55,-139.2 72.55,-139.2 0,0 -192.34,-253.93 -289.36,-468.2 -27.84,-60.74 -158.6,-202.48 -248.87,-151.01 -158.6,91.11 -167.03,155.22 -94.49,332.38z"/>
   </g>
   <path class="fil4" d="M18489.45 15007.62c11.81,-161.14 -26.15,-188.13 -259.83,-210.9 -69.18,-6.76 -121.48,-3.38 -187.28,-5.91 -226.94,-9.28 -348.42,158.6 -420.12,397.34 -131.61,439.53 -175.47,939.78 -175.47,939.78 0,0 14.34,167.88 590.53,167.88 533.16,0 586.31,-288.51 586.31,-288.51 0,0 -116.42,-29.53 -107.97,-296.96 102.92,-26.15 145.94,-62.42 159.44,-141.72 21.08,-126.54 -208.38,-236.22 -185.61,-561z"/>
   <path class="fil67" d="M17995.09 15820.86c-265.73,-23.62 -248.02,-275.87 -154.38,-375.4 60.74,-64.97 56.53,-161.14 56.53,-161.14 0,0 12.65,37.96 2.52,116.42 -10.13,78.46 -105.45,175.47 -27.84,289.36 78.46,114.74 381.32,48.09 644.52,20.25 -0.84,30.37 0,57.36 1.69,80.99 -101.22,16.02 -328.16,47.23 -523.04,29.52z"/>
   <g>
    <path class="fil27" d="M18155.39 14773.09c-100.39,-2.53 -209.22,-59.05 -223.56,10.12 -14.35,69.18 39.65,333.23 192.34,417.59 151.85,84.36 280.92,27.84 276.71,-57.36 -3.38,-85.2 -31.22,-177.16 -43.87,-243.81 -12.66,-66.64 18.56,-130.76 -51.46,-134.13 -70.02,-3.38 -94.49,8.44 -150.16,7.59z"/>
    <g>
     <path class="fil22" d="M18229.62 14796.72c-69.18,-6.76 -121.48,-3.38 -187.28,-5.91 -19.4,-0.84 -37.97,-1.69 -54.84,-1.69 10.12,99.55 53.15,414.22 277.55,398.19 170.41,-11.81 58.21,-74.23 43.02,-381.31 -22.77,-3.38 -48.92,-5.91 -78.45,-9.28z"/>
     <g>
      <g>
       <g>
        <path class="fil22" d="M18034.75 14818.64c34.59,-136.66 136.67,-239.58 209.22,-350.1 0.84,-4.21 195.71,47.25 262.36,-36.27 0,0 -12.66,124.01 -49.77,220.18 -35.44,91.11 -74.24,136.67 -157.76,72.56 -32.06,49.77 -43.03,66.64 -38.81,118.11 5.9,83.51 -48.93,118.1 -88.58,122.32 -40.49,4.22 -175.47,3.37 -136.66,-146.8z"/>
        <path class="fil22" d="M18154.54 14466.02c-18.56,19.4 -10.12,58.21 19.4,85.2 29.53,26.99 68.33,33.74 86.89,13.5 18.56,-19.41 10.12,-58.21 -19.4,-85.21 -29.52,-26.99 -68.33,-32.89 -86.89,-13.49z"/>
       </g>
      </g>
     </g>
    </g>
   </g>
   <path class="fil68" d="M18003.53 14789.12c127.39,322.26 318.05,530.64 200.79,1107.67 -46.4,227.78 91.95,485.92 91.95,485.92 0,0 -221.02,174.63 -542.44,145.95 -320.57,-27.84 -362.76,-199.94 -362.76,-199.94 0,0 53.15,-605.71 118.11,-883.26 64.96,-277.56 173.78,-654.65 494.35,-656.34z"/>
   <path class="fil69" d="M18296.26 14804.31c0,0 37.96,204.15 177.16,529.79 134.98,314.67 -31.22,403.25 6.75,577.03 27,124.02 137.51,295.27 137.51,295.27l124.01 -158.6c0,0 -163.66,-97.86 -182.22,-221.02 -17.71,-123.16 144.26,-118.11 136.67,-278.39 -7.59,-160.29 -149.32,-246.34 -178.85,-360.22 -29.52,-113.05 15.19,-299.48 -67.49,-347.57 -82.67,-48.09 -153.54,-36.29 -153.54,-36.29z"/>
   <g>
    <g>
     <path class="fil22" d="M18604.19 15888.35c60.73,7.59 125.7,-16.87 124.85,-35.43 -1.69,-35.44 -60.74,-10.12 -76.77,-35.44 -15.19,-24.46 -118.95,26.16 -118.95,26.16 0,0 39.66,41.33 70.87,44.71z"/>
     <path class="fil22" d="M17916.64 15820.86c105.46,-21.09 523.04,-40.5 620.9,-70.02 46.41,-128.23 194.03,-71.7 264.9,-4.21 46.4,43.86 24.46,70.01 -0.84,58.21 -19.4,-9.28 -52.31,-14.35 -111.36,19.4 -43.86,25.3 -26.15,118.94 -132.44,17.71 -96.17,11.81 -325.63,71.7 -325.63,71.7l-421.81 102.08c0,0 -108.83,17.71 -118.95,-59.05 -6.77,-63.27 145.94,-119.8 225.23,-135.82z"/>
    </g>
    <g>
     <path class="fil22" d="M17630.66 15733.12c0,0 21.94,161.97 45.55,223.56 16.87,43.87 92.8,69.18 129.08,52.31 36.27,-16.88 68.33,-162.83 53.99,-289.37 -10.97,-96.17 -221.03,-3.37 -228.62,13.5z"/>
     <path class="fil70" d="M17635.71 15200.8c-121.48,329.85 -67.49,655.48 -67.49,655.48 0,0 73.4,51.46 190.66,37.13 106.29,-13.5 147.63,-53.15 147.63,-53.15 0,0 30.37,-317.2 103.76,-540.75 21.09,-63.28 39.65,-226.94 -80.99,-279.24 -150.99,-65.8 -227.76,0.84 -293.57,180.53z"/>
    </g>
   </g>
   <g>
    <path class="fil6" d="M18415.22 15986.21c0,18.56 16.03,33.74 35.43,33.74l85.21 0.84 378.78 3.38 648.74 5.06c6.75,0 12.65,-1.68 17.71,-5.06 1.69,-0.84 3.38,-1.69 5.06,-3.38 1.69,-0.84 2.53,-2.52 4.22,-3.37 1.69,-1.69 3.38,-3.38 4.22,-5.91 0.84,-0.84 1.68,-1.68 1.68,-2.52 0,0 0,0 0,0l268.28 -469.05c10.12,-16.87 5.06,-38.81 -10.97,-48.09 -5.07,-2.53 -10.12,-3.38 -15.19,-4.22l0 0 -646.2 -5.06c0,0 0,0 0,0l-2.53 0 0 0c-12.66,0 -24.46,5.9 -32.06,17.71l-261.52 456.4 -361.06 -3.38 -43.03 0 -41.34 0c-19.41,0 -35.43,15.19 -35.43,32.91z"/>
    <g>
     <path class="fil71" d="M19205.69 15485.95c-16.04,-9.29 -37.13,-2.53 -47.25,14.34l-261.52 456.4 -404.93 -3.38 -41.34 0c-19.4,0 -36.27,14.35 -36.27,32.9 0,18.56 16.03,33.74 35.43,33.74l463.15 4.22c6.75,0 12.65,-1.69 17.71,-5.06 1.69,-0.84 3.37,-1.69 5.06,-3.38 1.69,-0.84 2.53,-2.53 4.22,-3.38 1.69,-1.68 3.37,-4.21 4.21,-5.9 0.84,-0.84 1.69,-1.69 1.69,-2.53 0,0 0,0 0,0l268.28 -469.05c11.8,-17.71 7.58,-39.64 -8.44,-48.92z"/>
     <path class="fil72" d="M18861.49 16010.67c0,1.69 -1.69,3.38 -3.38,3.38l-38.81 0c-1.68,0 -3.37,-1.69 -3.37,-3.38l0 -38.81c0,-1.68 1.69,-3.37 3.37,-3.37l38.81 0c1.69,0 3.38,1.69 3.38,3.37l0 38.81z"/>
     <g>
      <path class="fil72" d="M18725.67 15983.67c0,1.69 -1.69,3.38 -3.38,3.38l-52.3 -0.84c-1.69,0 -3.38,-1.69 -3.38,-3.38l0 -12.65c0,-1.69 1.69,-3.38 3.38,-3.38l52.3 0.84c1.69,0 3.38,1.69 3.38,3.38l0 12.65z"/>
      <path class="fil72" d="M18725.67 16009.83c0,1.68 -1.69,3.37 -3.38,3.37l-52.3 -0.84c-1.69,0 -3.38,-1.69 -3.38,-3.37l0 -12.66c0,-1.69 1.69,-3.38 3.38,-3.38l52.3 0.84c1.69,0 3.38,1.69 3.38,3.38l0 12.66z"/>
     </g>
     <g>
      <path class="fil72" d="M18799.9 15983.67c0,1.69 -1.68,3.38 -3.37,3.38l-52.31 -0.84c-1.69,0 -3.37,-1.69 -3.37,-3.38l0 -12.65c0,-1.69 1.68,-3.38 3.37,-3.38l52.31 0.84c1.69,0 3.37,1.69 3.37,3.38l0 12.65z"/>
      <path class="fil72" d="M18799.9 16010.67c0,1.69 -1.68,3.38 -3.37,3.38l-52.31 -0.84c-1.69,0 -3.37,-1.69 -3.37,-3.38l0 -12.65c0,-1.69 1.68,-3.38 3.37,-3.38l52.31 0.84c1.69,0 3.37,1.69 3.37,3.38l0 12.65z"/>
     </g>
     <path class="fil73" d="M18596.59 16003.92l22.78 0 0 -29.53 -22.78 0 0 29.53zm-62.42 0l22.77 0 0 -29.53 -22.77 0 0 29.53zm31.21 0l22.77 0 0 -29.53 -22.77 0 0 29.53zm-95.33 -0.84l22.78 0 0 -29.53 -22.78 0 0 29.53zm32.06 0l22.78 0 0 -29.53 -22.78 0 0 29.53zm129.07 -28.68l-2.53 0 0 29.53 2.53 0c8.43,0 16.03,-6.75 16.03,-14.34 0,-8.45 -6.75,-15.19 -16.03,-15.19zm-188.13 13.5c0,8.43 6.75,15.18 16.04,15.18l2.52 0 0 -29.53 -2.52 0c-9.29,-0.84 -16.04,5.91 -16.04,14.35z"/>
    </g>
   </g>
  </g>
  <g id="_2113488562960">
   <path class="fil74" d="M6954.73 16656.88c0,0 -242.12,881.57 -283.45,1060.42 -41.34,178.84 285.98,313.82 445.43,113.89 159.44,-199.94 375.4,-479.18 444.58,-710.32 68.33,-231.15 64.96,-423.49 -61.59,-609.09 -127.38,-184.75 -480.01,-92.8 -544.97,145.1z"/>
   <g>
    <path class="fil23" d="M6763.23 19328.6c0,0 271.64,-70.01 291.89,-75.92 21.94,-6.75 56.52,-19.4 60.74,52.31 4.21,71.7 6.75,94.48 6.75,94.48 0,0 -314.67,0.84 -348.41,-3.38 -34.59,-3.37 -61.59,-29.52 -10.97,-67.49z"/>
    <path class="fil75" d="M6670.44 17772.98c40.49,221.02 56.52,218.49 113.04,484.23 57.36,265.74 217.65,1030.05 217.65,1030.05 0,0 21.09,17.71 43.87,11.81 32.9,-8.44 35.43,-27.84 35.43,-27.84 0,0 -22.77,-192.35 -3.37,-323.11 19.4,-130.76 66.64,-941.47 71.7,-1103.44 5.07,-161.14 -47.24,-281.77 -231.15,-272.49 -183.91,10.97 -264.9,103.78 -247.17,200.79z"/>
   </g>
   <g>
    <path class="fil26" d="M7915.6 19306.67c0.84,-6.75 1.69,-12.66 2.53,-18.56 9.28,-48.93 37.96,-38.81 57.36,-32.9 3.38,0.84 15.19,4.22 32.06,9.28 16.87,-4.22 28.68,-7.59 32.06,-9.28 19.4,-5.9 48.93,-16.87 57.36,32.9 0.84,5.06 1.69,11.81 2.53,18.56 4.21,70.02 6.75,92.79 6.75,92.79 0,0 -43.03,0 -98.7,0 -55.68,0 -98.7,-0.84 -98.7,-0.84 0,0 1.7,-21.93 6.75,-91.95z"/>
    <path class="fil27" d="M7413.66 16785.95c0,0 259.83,977.76 309.61,1149.85 49.77,172.09 393.96,132.44 435.3,-114.73 41.34,-247.18 136.67,-746.6 -43.86,-1250.23 -97.87,-272.49 -759.26,-19.41 -701.05,215.11z"/>
    <path class="fil27" d="M7683.61 17789.01c36.28,273.33 288.52,1520.19 288.52,1520.19 0,0 5.9,10.97 38.8,4.22 32.06,-6.75 35.44,-26.99 35.44,-26.99 0,0 -11.81,-175.48 13.49,-302.02 25.31,-127.39 80.99,-712.01 93.65,-869.76 12.65,-157.76 -3.38,-484.24 -183.06,-483.4 -180.54,0 -291.05,126.54 -286.84,157.76z"/>
   </g>
   <g>
    <path class="fil76" d="M6942.92 15302.04c-269.95,101.23 -259.83,363.59 -180.53,563.53 208.38,528.1 126.54,945.69 126.54,945.69 0,0 183.06,213.43 648.74,112.2 578.72,-125.7 647.89,-253.08 647.89,-253.08 0,0 -163.66,-624.27 -610.78,-1252.77 -83.51,-117.25 -217.65,-219.34 -448.79,-172.09 -66.65,14.34 -116.42,32.05 -183.07,56.52z"/>
    <g>
     <path class="fil27" d="M7067.78 14738.51c-48.09,-51.46 -113.9,-13.5 -147.63,-18.57 -33.75,-5.06 -52.31,-77.61 -141.73,-45.55 -57.36,20.25 -50.61,86.89 -79.3,100.39 -28.68,13.49 -104.61,-32.9 -167.03,35.43 -58.21,63.28 -16.88,220.18 100.38,243.81 0,0 89.43,34.58 205,31.22 7.6,0 15.19,0 21.94,0.84l106.29 61.58c0,0 63.28,105.45 95.33,49.77 0.84,-1.69 2.53,-4.21 3.38,-5.9 1.69,-3.38 4.21,-5.91 5.9,-9.28 43.87,-65.8 98.7,-86.05 97.02,-164.5 -1.69,-82.68 -53.99,-62.43 -69.18,-106.3 -14.35,-43.03 27.84,-110.52 -30.37,-172.94z"/>
     <path class="fil27" d="M6845.91 15362.78c9.28,86.05 5.9,281.77 196.55,214.28 223.56,-79.3 202.47,-329.01 182.23,-351.79 -47.25,-52.3 -127.39,8.44 -183.91,28.68 -56.52,21.09 -202.47,36.28 -194.87,108.83z"/>
     <g>
      <path class="fil28" d="M7163.11 15238.77c-10.97,2.53 -22.78,5.06 -34.59,8.43 -64.96,17.71 -114.73,37.12 -178.84,66.64 -20.25,9.28 -38.81,18.56 -55.69,29.53 8.44,54.84 0,216.81 145.11,169.57 148.47,-48.93 141.72,-224.4 124.01,-274.17z"/>
      <g>
       <path class="fil28" d="M7120.08 15277.57c-48.93,-161.97 -167.04,-238.74 -271.64,-314.67 -2.53,-4.21 -156.91,113.05 -245.49,50.62 0,0 46.41,118.11 110.52,202.47 60.74,80.15 111.35,113.89 175.47,27 38.81,37.12 43.02,75.08 45.55,117.26 5.91,85.2 83.52,102.92 123.17,94.48 39.65,-7.59 108.82,-25.31 62.42,-177.16z"/>
       <path class="fil28" d="M6957.26 14948.56c23.63,14.34 26.15,53.99 4.22,89.43 -21.09,34.58 -57.37,51.45 -80.99,37.12 -23.62,-14.35 -26.15,-54 -4.22,-89.43 21.09,-34.58 57.37,-51.46 80.99,-37.12z"/>
      </g>
     </g>
    </g>
   </g>
   <path class="fil77" d="M7168.16 15205.02c0,0 -61.58,76.77 -32.89,432.78 28.68,356.85 172.09,716.23 124.01,1132.97 -48.08,416.74 -48.93,426.87 -48.93,426.87 0,0 280.92,81.83 604.87,-78.46 323.94,-160.28 428.55,-351.79 428.55,-351.79 0,0 -194.03,-571.97 -331.53,-852.89 -137.51,-280.08 -270.81,-516.29 -417.59,-621.74 -151.01,-107.98 -326.49,-87.74 -326.49,-87.74z"/>
   <path class="fil78" d="M6880.49 15306.26c0,0 -42.18,116.42 -11.81,431.09 30.37,314.66 122.33,604.86 112.21,853.73 -9.28,248.87 -134.14,525.57 -134.14,525.57 0,0 -118.94,-37.96 -134.13,-73.39 -10.97,-23.63 126.54,-360.22 119.8,-559.31 -6.76,-199.94 -131.61,-644.52 -130.76,-825.9 1.67,-180.54 71.69,-296.96 178.83,-351.79z"/>
   <g>
    <g>
     <g>
      <path class="fil28" d="M6981.73 16237.6c0,0 -172.95,140.89 -231.16,172.94 -42.17,23.63 -99.54,-66.64 -117.26,-103.76 -17.71,-37.12 85.21,-142.57 180.54,-231.15 71.7,-68.33 173.78,143.42 167.88,161.97z"/>
      <path class="fil79" d="M7583.22 15854.6c-112.2,146.79 -557.62,550.89 -557.62,550.89 0,0 -60.74,-8.44 -149.32,-89.43 -133.29,-121.48 -143.41,-199.09 -143.41,-199.09 0,0 242.96,-341.67 427.71,-555.94 146.79,-168.73 356.85,-167.04 430.25,-64.96 82.66,116.42 54.82,275.86 -7.61,358.53z"/>
     </g>
    </g>
   </g>
   <g>
    <path class="fil22" d="M6034.35 15772.77c3.38,-22.78 18.56,-91.11 34.59,-86.89 43.86,10.12 46.4,107.98 37.96,155.22 -5.91,35.43 -36.28,24.47 -36.28,24.47 0,0 -42.17,-44.71 -36.27,-92.8z"/>
    <path class="fil22" d="M6666.22 16407.17c-210.06,-74.23 -535.7,-397.34 -635.25,-473.26 -64.11,-11.81 -101.23,-16.87 -169.56,-66.64 -64.96,-47.24 -23.63,-188.13 87.74,-173.78 29.53,3.37 154.38,33.74 147.63,165.35 26.15,53.99 439.52,258.14 574.5,329.85 60.73,32.05 148.47,87.74 136.66,135.82 -18.56,75.91 -64.11,110.5 -141.72,82.66z"/>
   </g>
  </g>
  <path class="fil59" d="M14683.92 10121.41l-870.62 0 0 -870.61c0,-53.14 -43.86,-96.17 -96.17,-96.17l-685.01 0c-53.15,0 -96.17,43.87 -96.17,96.17l0 870.61 -870.61 0c-53.14,0 -96.17,43.86 -96.17,96.17l0 685.01c0,53.15 43.87,96.17 96.17,96.17l870.61 0.01 0 870.61c0,53.15 43.86,96.17 96.17,96.17l685.01 -0.01c53.15,0 96.17,-43.86 96.17,-96.17l0 -869.76 870.62 0c53.14,0 96.17,-43.87 96.17,-96.17l0 -685.02c0,-53.14 -43.03,-97.01 -96.17,-97.01z"/>
 </g>
</svg>
