<?xml version="1.0" encoding="UTF-8"?>
<!DOCTYPE svg PUBLIC "-//W3C//DTD SVG 1.1//EN" "http://www.w3.org/Graphics/SVG/1.1/DTD/svg11.dtd">
<!-- Creator: CorelDRAW 2020 (64-Bit Evaluation Version) -->
<?xml-stylesheet href="Patient Engagement App.css" type="text/css"?>
<svg xmlns="http://www.w3.org/2000/svg" xml:space="preserve" width="300mm" height="250mm" version="1.1" style="shape-rendering:geometricPrecision; text-rendering:geometricPrecision; image-rendering:optimizeQuality; fill-rule:evenodd; clip-rule:evenodd"
viewBox="0 0 30000 25000"
 xmlns:xlink="http://www.w3.org/1999/xlink"
 xmlns:xodm="http://www.corel.com/coreldraw/odm/2003">
 <defs>
 <linearGradient id="id0" gradientUnits="userSpaceOnUse" x1="9997.08" y1="15930.52" x2="9997.08" y2="12868.71">
  <stop offset="0" style="stop-opacity:1; stop-color:white"/>
  <stop offset="1" style="stop-opacity:1; stop-color:white"/>
 </linearGradient>
 <linearGradient id="id1" gradientUnits="userSpaceOnUse" x1="13330.89" y1="8586.38" x2="13330.89" y2="9158.28">
  <stop offset="0" style="stop-opacity:1; stop-color:white"/>
  <stop offset="1" style="stop-opacity:1; stop-color:#9E9E9E"/>
 </linearGradient>
 <linearGradient id="id2" gradientUnits="userSpaceOnUse" x1="13163.51" y1="8928.13" x2="14063.22" y2="8928.13">
  <stop offset="0" style="stop-opacity:1; stop-color:#FF3B73"/>
  <stop offset="1" style="stop-opacity:1; stop-color:#FF2970"/>
 </linearGradient>
 <linearGradient id="id3" gradientUnits="userSpaceOnUse" xlink:href="#id1" x1="13609.88" y1="9241.98" x2="13609.88" y2="10037.07">
 </linearGradient>
 <linearGradient id="id4" gradientUnits="userSpaceOnUse" xlink:href="#id0" x1="10073.81" y1="17918.26" x2="10073.81" y2="15086.59">
 </linearGradient>
 <linearGradient id="id5" gradientUnits="userSpaceOnUse" xlink:href="#id0" x1="10073.81" y1="17918.25" x2="10073.81" y2="15086.69">
 </linearGradient>
 <linearGradient id="id6" gradientUnits="userSpaceOnUse" xlink:href="#id1" x1="13609.88" y1="8628.22" x2="13609.88" y2="9262.91">
 </linearGradient>
 <linearGradient id="id7" gradientUnits="userSpaceOnUse" xlink:href="#id1" x1="12466.06" y1="9241.98" x2="12466.06" y2="10037.07">
 </linearGradient>
 <linearGradient id="id8" gradientUnits="userSpaceOnUse" xlink:href="#id0" x1="9906.42" y1="17918.27" x2="9906.42" y2="15086.59">
 </linearGradient>
 <linearGradient id="id9" gradientUnits="userSpaceOnUse" xlink:href="#id0" x1="22443.56" y1="12351.69" x2="20341.38" y2="10187.03">
 </linearGradient>
 <linearGradient id="id10" gradientUnits="userSpaceOnUse" xlink:href="#id0" x1="14251.53" y1="9067.62" x2="13191.41" y2="8146.98">
 </linearGradient>
 <linearGradient id="id11" gradientUnits="userSpaceOnUse" xlink:href="#id0" x1="15311.66" y1="9737.18" x2="14056.23" y2="8307.39">
 </linearGradient>
 <linearGradient id="id12" gradientUnits="userSpaceOnUse" xlink:href="#id0" x1="23130.07" y1="13238.38" x2="22495.39" y2="11376.18">
 </linearGradient>
 <linearGradient id="id13" gradientUnits="userSpaceOnUse" x1="23424.75" y1="13304.34" x2="22864.5" y2="13304.34">
  <stop offset="0" style="stop-opacity:1; stop-color:white"/>
  <stop offset="1" style="stop-opacity:1; stop-color:#BFBFBF"/>
 </linearGradient>
 <linearGradient id="id14" gradientUnits="userSpaceOnUse" xlink:href="#id0" x1="22090.87" y1="12220.1" x2="20012.46" y2="9548.86">
 </linearGradient>
 <linearGradient id="id15" gradientUnits="userSpaceOnUse" x1="20995.87" y1="11662.13" x2="20995.87" y2="12164.3">
  <stop offset="0" style="stop-opacity:1; stop-color:white"/>
  <stop offset="1" style="stop-opacity:1; stop-color:#A8A8A8"/>
 </linearGradient>
 </defs>
 <g id="Layer_x0020_1">
  <metadata id="CorelCorpID_0Corel-Layer"/>
  <path class="fil0" d="M23409.21 19552.39c0,-144.37 -118.56,-262.94 -262.94,-262.94l-19532.78 0c-144.38,0 -262.94,118.57 -262.94,262.94l0 0c0,144.37 118.56,262.94 262.94,262.94l19532.09 0c145.07,0 263.63,-118.57 263.63,-262.94l0 0z"/>
  <path class="fil1" d="M17005.77 9903.86l-6779.23 0c-184.82,0 -334.77,150.64 -334.77,334.78l0 4280.94 0.01 4661.06c0,184.82 150.64,334.78 334.77,334.78l619.34 0 5541.24 0 619.33 0c184.82,0 334.78,-150.65 334.78,-334.78l0 -4661.06 0 -4280.25c0,-184.83 -150.65,-335.47 -335.47,-335.47z"/>
  <g id="_2113417973936">
   <path class="fil2" d="M14068.1 9311.72l0 -472.87c0,-156.92 -127.63,-284.55 -284.56,-284.55l-335.47 -0.01c-156.93,0 -284.56,127.63 -284.56,284.55l0 472.88 904.59 0z"/>
   <path class="fil3" d="M14068.1 9311.72l0 -472.87c0,-156.92 -127.63,-284.55 -284.56,-284.55l-335.47 -0.01c-156.93,0 -284.56,127.63 -284.56,284.55l0 472.88 904.59 0z"/>
   <path class="fil4" d="M13164.21 8838.15l0 473.57 133.91 0 0 -472.87c0,-156.92 89.97,-284.55 200.17,-284.55l-49.52 -0.01c-156.93,0 -284.56,127.64 -284.56,283.86z"/>
   <path class="fil5" d="M15083.59 9970.12l0 -661.88c0,-156.93 -127.63,-284.56 -284.55,-284.56l-2365.76 -0.01c-156.92,0 -284.55,127.64 -284.55,284.56l0 661.88 2934.86 0.01z"/>
   <path class="fil6" d="M15083.59 9970.12l0 -661.88c0,-156.93 -127.63,-284.56 -284.55,-284.56l-2365.76 -0.01c-156.92,0 -284.55,127.64 -284.55,284.56l0 661.88 2934.86 0.01z"/>
   <path class="fil7" d="M12149.42 9308.24l0 661.88 434.51 0 0 -661.88c0,-156.93 89.97,-284.56 200.17,-284.56l-350.13 -0.01c-157.62,0.7 -284.55,128.33 -284.55,284.57z"/>
  </g>
  <path class="fil8" d="M14799.03 9024.37l-730.93 0 0 -185.52c0,-156.92 -127.63,-284.55 -284.56,-284.55l-285.25 -0.01 -49.52 0c-156.93,0 -284.56,127.63 -284.56,284.55l0 185.53 -380.81 0 -350.12 0c-156.92,0 -284.55,127.63 -284.55,284.56l0 661.88 434.5 0 2499.66 0 0 -661.87c0.7,-156.94 -126.93,-284.57 -283.86,-284.57z"/>
  <path class="fil9" d="M13977.43 8808.16c-25.11,0 -45.34,20.23 -45.34,45.34l0 51.61c0,25.11 20.23,45.34 45.34,45.34 25.11,0 45.34,-20.23 45.34,-45.34l0 -51.61c0,-25.11 -20.23,-45.34 -45.34,-45.34zm-16.03 -129.73c-45.34,-50.21 -110.2,-78.81 -177.16,-78.81l-48.82 0.01c-25.11,0 -45.34,20.22 -45.34,45.33 0,25.11 20.23,45.34 45.34,45.34l48.82 -0.01c41.85,0 81.61,18.14 110.2,48.83 9.07,9.76 21.62,14.65 33.48,14.65 10.46,0 21.62,-4.19 30.69,-11.87 18.13,-16.04 19.52,-44.63 2.79,-63.47z"/>
  <path class="fil10" d="M14992.92 9445.63c-25.11,0 -45.33,20.23 -45.33,45.34l0 23.02c0,25.11 20.22,45.33 45.33,45.33 25.11,0 45.34,-20.22 45.34,-45.33l0 -23.02c-0.01,-25.11 -20.92,-45.34 -45.34,-45.34zm-193.89 -375.92l-76.02 0c-25.11,0 -45.34,20.23 -45.34,45.34 0,25.11 20.23,45.34 45.34,45.34l76.02 -0.01c81.6,0 148.56,66.26 148.56,148.56l0 56.49c0,25.11 20.22,45.34 45.33,45.34 25.11,0 45.34,-20.23 45.34,-45.34l0 -56.49c-0.01,-132.52 -107.41,-239.23 -239.23,-239.23z"/>
  <g id="_2113417967984">
   <path class="fil11" d="M17005.77 19552.39l-6185 0c-39.75,0 -72.53,-32.78 -72.53,-72.54 0,-39.75 32.78,-72.53 72.53,-72.53l6185 0c124.84,0 225.97,-101.83 225.97,-225.98l0 -8942.01c0,-124.84 -101.13,-225.97 -225.98,-225.97l-6779.22 0c-124.84,0 -225.97,101.83 -225.97,225.97l0 4282.35c0,39.76 -32.78,72.54 -72.54,72.54 -39.76,0 -72.53,-32.78 -72.53,-72.54l0 -4282.35c0,-205.05 166.69,-371.04 371.04,-371.04l6779.23 -0.01c205.05,0 371.04,166.69 371.04,371.05l0 8941.31c0.7,205.05 -165.99,371.75 -371.04,371.75z"/>
  </g>
  <path class="fil0" d="M6253.17 19552.39c-200.86,0 -364.77,-163.21 -364.77,-364.77l0 -2686.58c0,-200.87 163.21,-364.77 364.77,-364.77l196.69 0.01c181.33,0 328.49,-147.16 328.49,-328.5l0 -394.75 2829.56 -0.01 0 394.75c0,181.34 147.16,328.5 328.5,328.5l196.68 0.01c200.87,0 364.77,163.2 364.77,364.77l0 2686.57c0,200.87 -163.21,364.77 -364.77,364.77l-3879.92 0z"/>
  <path class="fil12" d="M6253.17 19407.32c-120.66,0 -219.69,-98.34 -219.69,-219.7l0 -2686.58c0,-121.36 98.33,-219.7 219.69,-219.7l196.69 0c260.84,0 473.56,-212.03 473.56,-473.57l0 -249.69 2539.42 0.01 0 249.69c0,260.84 212.03,473.57 473.57,473.57l196.68 -0.01c121.36,0 219.7,98.34 219.7,219.7l0 2686.58c0,120.66 -98.34,219.7 -219.7,219.7l-3879.92 0z"/>
  <path class="fil11" d="M6253.17 19256.66c-37.66,0 -69.05,-31.38 -69.05,-69.05l0 -2686.58c0,-37.66 31.38,-69.05 69.05,-69.05l3879.22 0.02c37.66,0 69.05,32.08 69.05,69.05l0 2686.57c0,37.66 -31.38,69.05 -69.05,69.05l-3879.22 -0.01z"/>
  <g id="_2113417964432">
   <path class="fil0" d="M10278.16 14980.6c0,-114.39 -93.45,-207.85 -207.84,-207.85l-3755.07 0.01c-114.39,0 -207.85,93.45 -207.85,207.84l0.01 866.23c0,114.38 93.45,207.85 207.84,207.85l3755.07 0c114.38,0 207.84,-93.46 207.84,-207.85l0 -866.23z"/>
   <path class="fil13" d="M10133.09 15513.45c-39.76,0 -72.54,32.78 -72.54,72.54l0 78.81c0,39.76 32.78,72.54 72.54,72.54 39.76,0 72.54,-32.78 72.54,-72.54l0 -78.81c0,-40.46 -32.08,-72.54 -72.54,-72.54zm-62.77 -668.15l-200.87 0c-39.76,0 -72.53,32.77 -72.53,72.53 0,39.76 32.77,72.54 72.53,72.54l191.1 -0.01 0 347.33c0,39.76 32.78,72.53 72.54,72.53 39.76,0 72.54,-32.77 72.54,-72.53l0 -357.09c0,-73.93 -60.68,-135.3 -135.31,-135.3z"/>
   <path class="fil0" d="M6769.29 14772.76l-454.04 0c-114.39,0 -207.85,93.45 -207.85,207.84l0.01 866.23c0,114.38 93.45,207.85 207.84,207.85l454.04 0c-87.89,0 -159.72,-93.46 -159.72,-207.85l0 -866.23c0.7,-113.69 71.83,-207.84 159.72,-207.84z"/>
  </g>
  <polygon class="fil14" points="6034.17,18751.01 10352.79,18751.01 10352.79,16938.34 6034.17,16938.34 "/>
  <g id="_2113417990016">
   <g>
    <path class="fil8" d="M7459.77 18372.99c0,23.72 -19.53,43.25 -43.25,43.25l-342.45 0c-23.71,0 -43.24,-19.53 -43.24,-43.25l0 -1057.33c0,-23.72 19.53,-43.25 43.24,-43.25l342.45 0.01c23.72,0 43.25,19.53 43.25,43.24l0 1057.33z"/>
    <path class="fil8" d="M6716.98 18059.14c-23.71,0 -43.24,-19.53 -43.24,-43.24l0 -342.44c0,-23.72 19.53,-43.25 43.24,-43.25l1057.33 0c23.72,0 43.25,19.53 43.25,43.25l0 342.44c0,23.71 -19.53,43.24 -43.25,43.24l-1057.33 0z"/>
   </g>
   <g>
    <path class="fil15" d="M8509.43 17389.59c-23.72,0 -43.25,-19.53 -43.25,-43.24l0 -30.69c0,-23.72 19.53,-43.25 43.25,-43.25l1159.85 0.01c23.72,0 43.25,19.53 43.25,43.24l0 30.7c0,23.71 -19.53,43.24 -43.25,43.24l-1159.85 -0.01z"/>
    <path class="fil15" d="M8123.74 17646.25c-23.71,0 -43.24,-19.53 -43.24,-43.24l0 -30.69c0,-23.72 19.53,-43.25 43.24,-43.25l1545.54 0.01c23.72,0 43.25,19.53 43.25,43.24l0 30.7c0,23.71 -19.53,43.24 -43.25,43.24l-1545.54 -0.01z"/>
    <path class="fil15" d="M8123.74 17902.92c-23.71,0 -43.24,-19.53 -43.24,-43.25l0 -30.69c0,-23.71 19.53,-43.24 43.24,-43.24l1545.54 0c23.72,0 43.25,19.53 43.25,43.24l0 30.69c0,23.72 -19.53,43.25 -43.25,43.25l-1545.54 0z"/>
    <path class="fil15" d="M8123.74 18159.58c-23.71,0 -43.24,-19.53 -43.24,-43.25l0 -30.69c0,-23.71 19.53,-43.24 43.24,-43.24l1545.54 0.01c23.72,0 43.25,19.53 43.25,43.24l0 30.69c0,23.72 -19.53,43.24 -43.25,43.24l-1545.54 0z"/>
    <path class="fil15" d="M8123.74 18416.93c-23.71,0 -43.24,-19.52 -43.24,-43.24l0 -30.69c0,-23.71 19.53,-43.24 43.24,-43.24l1545.54 0.01c23.72,0 43.25,19.53 43.25,43.24l0 30.69c0,23.71 -19.53,43.24 -43.25,43.24l-1545.54 -0.01z"/>
   </g>
  </g>
  <rect class="fil8" x="6184.13" y="18751.02" width="4018.01" height="332.68"/>
  <g id="_2113417986368">
   <path class="fil16" d="M10075.2 17559.07c-34.87,0 -63.47,28.6 -63.47,63.47l0 48.13c0,34.87 28.6,63.47 63.47,63.47 34.88,0 63.47,-28.6 63.47,-63.47l0 -48.13c0,-35.57 -28.59,-63.47 -63.47,-63.47z"/>
   <path class="fil17" d="M10075.2 17076.44c-34.87,0 -63.47,28.59 -63.47,63.47l0 280.37c0,34.88 28.6,63.47 63.47,63.47 34.88,0 63.47,-28.59 63.47,-63.47l0 -280.37c0,-34.88 -28.59,-63.47 -63.47,-63.47z"/>
   <path class="fil18" d="M10075.2 16495.46l-331.98 0c-34.88,0 -63.47,28.59 -63.47,63.47 0,34.87 28.59,63.47 63.47,63.47l268.51 0 0 315.94c0,34.88 28.6,63.47 63.47,63.47 34.88,0 63.47,-28.59 63.47,-63.47l0 -379.41c0,-34.88 -28.59,-63.47 -63.47,-63.47z"/>
  </g>
  <path class="fil19" d="M8754.92 15502.99c27.2,-20.23 465.21,-730.23 779.76,-730.23l-2323.9 0c210.63,0 292.93,62.77 220.39,241.31 -72.54,178.55 -50.91,283.87 25.81,504.95 76.72,220.4 527.27,1964.72 606.08,2248.58 78.82,283.87 143.68,554.48 151.35,603.3 7.67,48.12 -87.88,108.8 -36.27,276.19 51.61,167.39 128.33,394.06 292.93,398.94 164.61,4.88 186.92,-110.89 184.13,-246.89 -2.8,-136 43.24,-349.43 0,-441.49 -43.24,-92.07 -108.8,-48.82 -108.8,-182.04 0,-133.21 110.19,-1507.19 127.63,-1986.33 17.43,-479.84 53.7,-666.06 80.89,-686.29z"/>
  <g id="_2113417980848">
   <path class="fil8" d="M11779.08 10834.95c0,-32.78 -27.2,-59.97 -59.98,-59.97l-781.15 0c-32.78,0 -59.98,27.19 -59.98,59.97l0 742.09c0,32.78 27.2,59.98 59.98,59.98l781.14 0c32.78,0 59.98,-27.2 59.98,-59.98l0.01 -742.09z"/>
  </g>
  <g id="_2113417982432">
   <path class="fil20" d="M10877.27 11577.74l0 -742.79c0,-32.78 27.2,-59.97 59.97,-59.97l-92.75 0c-32.78,0 -59.98,27.19 -59.98,59.97l0 742.09c0,32.78 27.2,59.98 59.98,59.98l92.76 0c-32.78,0.7 -59.98,-26.5 -59.98,-59.28z"/>
   <path class="fil20" d="M10877.27 11577.74l0 -742.79c0,-32.78 27.2,-59.97 59.97,-59.97l-92.75 0c-32.78,0 -59.98,27.19 -59.98,59.97l0 742.09c0,32.78 27.2,59.98 59.98,59.98l92.76 0c-32.78,0.7 -59.98,-26.5 -59.98,-59.28z"/>
  </g>
  <g id="_2113417978880">
   <polygon class="fil11" points="11783.26,10705.93 11338.98,11150.2 11150.67,10961.89 10942.83,11169.03 11338.98,11565.18 11990.4,10913.77 "/>
  </g>
  <g id="_2113417979552">
   <path class="fil8" d="M11779.08 12582.06c0,-32.78 -27.2,-59.97 -59.98,-59.97l-781.15 0c-32.78,0 -59.98,27.19 -59.98,59.97l0 742.09c0,32.78 27.2,59.98 59.98,59.98l781.14 0.01c32.78,0 59.98,-27.2 59.98,-59.98l0.01 -742.1z"/>
  </g>
  <g id="_2113417976432">
   <path class="fil20" d="M10877.27 13324.15l0 -742.09c0,-32.78 27.2,-59.97 59.97,-59.97l-92.75 0c-32.78,0 -59.98,27.19 -59.98,59.97l0 742.09c0,32.78 27.2,59.98 59.98,59.98l92.76 0.01c-32.78,0.69 -59.98,-26.51 -59.98,-59.99z"/>
   <path class="fil20" d="M10877.27 13324.15l0 -742.09c0,-32.78 27.2,-59.97 59.97,-59.97l-92.75 0c-32.78,0 -59.98,27.19 -59.98,59.97l0 742.09c0,32.78 27.2,59.98 59.98,59.98l92.76 0.01c-32.78,0.69 -59.98,-26.51 -59.98,-59.99z"/>
  </g>
  <g id="_2113417975472">
   <polygon class="fil11" points="11783.26,12453.04 11338.98,12897.31 11150.67,12708.31 10942.83,12916.14 11338.98,13312.3 11990.4,12660.88 "/>
  </g>
  <g id="_2113417975232">
   <path class="fil8" d="M11779.08 14329.18c0,-32.78 -27.2,-59.98 -59.98,-59.98l-781.15 0c-32.78,0 -59.98,27.2 -59.98,59.97l0 742.09c0,32.78 27.2,59.98 59.98,59.98l781.14 0.01c32.78,0 59.98,-27.2 59.98,-59.98l0.01 -742.09z"/>
  </g>
  <g id="_2113417976672">
   <path class="fil20" d="M10877.27 15071.26l0 -742.09c0,-32.77 27.2,-59.97 59.97,-59.97l-92.75 0c-32.78,0 -59.98,27.2 -59.98,59.97l0 742.09c0,32.78 27.2,59.98 59.98,59.98l92.76 0.01c-32.78,0.7 -59.98,-26.51 -59.98,-59.99z"/>
   <path class="fil20" d="M10877.27 15071.26l0 -742.09c0,-32.77 27.2,-59.97 59.97,-59.97l-92.75 0c-32.78,0 -59.98,27.2 -59.98,59.97l0 742.09c0,32.78 27.2,59.98 59.98,59.98l92.76 0.01c-32.78,0.7 -59.98,-26.51 -59.98,-59.99z"/>
  </g>
  <g id="_2075066690720">
   <polygon class="fil11" points="11783.26,14200.15 11338.98,14644.43 11150.67,14455.42 10942.83,14663.26 11338.98,15059.41 11990.4,14407.99 "/>
  </g>
  <g id="_2075066691296">
   <path class="fil8" d="M11779.08 16076.29c0,-32.78 -27.2,-59.97 -59.98,-59.97l-781.15 0c-32.78,0 -59.98,27.19 -59.98,59.97l0 742.09c0,32.78 27.2,59.98 59.98,59.98l781.14 0c32.78,0 59.98,-27.2 59.98,-59.98l0.01 -742.09z"/>
  </g>
  <g id="_2075066691632">
   <path class="fil20" d="M10877.27 16818.38l0 -742.09c0,-32.78 27.2,-59.97 59.97,-59.97l-92.75 0c-32.78,0 -59.98,27.19 -59.98,59.97l0 742.09c0,32.78 27.2,59.98 59.98,59.98l92.76 0c-32.78,0 -59.98,-27.2 -59.98,-59.98z"/>
   <path class="fil20" d="M10877.27 16818.38l0 -742.09c0,-32.78 27.2,-59.97 59.97,-59.97l-92.75 0c-32.78,0 -59.98,27.19 -59.98,59.97l0 742.09c0,32.78 27.2,59.98 59.98,59.98l92.76 0c-32.78,0 -59.98,-27.2 -59.98,-59.98z"/>
  </g>
  <g id="_2075066690384">
   <polygon class="fil11" points="11783.26,15947.26 11338.98,16390.84 11150.67,16202.53 10942.83,16410.37 11338.98,16806.52 11990.4,16155.11 "/>
  </g>
  <g id="_2075066687312">
   <path class="fil8" d="M11779.08 17822.71c0,-32.78 -27.2,-59.98 -59.98,-59.98l-781.15 0c-32.78,0 -59.98,27.2 -59.98,59.97l0 742.09c0,32.78 27.2,59.98 59.98,59.98l781.14 0.01c32.78,0 59.98,-27.2 59.98,-59.98l0.01 -742.09z"/>
  </g>
  <g id="_2075066687984">
   <path class="fil20" d="M10877.27 18565.49l0 -742.09c0,-32.78 27.2,-59.97 59.97,-59.97l-92.75 0c-32.78,0 -59.98,27.19 -59.98,59.97l0 742.09c0,32.78 27.2,59.98 59.98,59.98l92.76 0.01c-32.78,0 -59.98,-27.21 -59.98,-59.99z"/>
   <path class="fil20" d="M10877.27 18565.49l0 -742.09c0,-32.78 27.2,-59.97 59.97,-59.97l-92.75 0c-32.78,0 -59.98,27.19 -59.98,59.97l0 742.09c0,32.78 27.2,59.98 59.98,59.98l92.76 0.01c-32.78,0 -59.98,-27.21 -59.98,-59.99z"/>
  </g>
  <g id="_2075066709104">
   <polygon class="fil11" points="11783.26,17694.37 11338.98,18137.96 11150.67,17949.64 10942.83,18157.49 11338.98,18553.64 11990.4,17901.52 "/>
  </g>
  <g id="_2075066707904">
   <path class="fil21" d="M16425.49 10847.5c0,39.76 -32.78,72.54 -72.54,72.54l-3418.2 0c-39.76,0 -72.54,-32.78 -72.54,-72.54l0 0c0,-39.75 32.78,-72.53 72.54,-72.53l3418.2 0.01c39.76,0 72.54,32.78 72.54,72.52l0 0z"/>
   <path class="fil21" d="M16425.49 11205.99c0,39.76 -32.78,72.54 -72.54,72.54l-3935.01 0c-39.76,0 -72.54,-32.78 -72.54,-72.54l0 0c0,-39.75 32.78,-72.53 72.54,-72.53l3935.01 0.01c39.76,0 72.54,32.78 72.54,72.52l0 0z"/>
   <path class="fil21" d="M16425.49 11565.18c0,39.76 -32.78,72.54 -72.54,72.54l-3935.01 0c-39.76,0 -72.54,-32.78 -72.54,-72.54l0 0c0,-39.75 32.78,-72.53 72.54,-72.53l3935.01 0c39.76,0 72.54,32.78 72.54,72.53l0 0z"/>
   <path class="fil21" d="M16425.49 12594.62c0,39.76 -32.78,72.54 -72.54,72.54l-3418.2 0c-39.76,0 -72.54,-32.78 -72.54,-72.54l0 0c0,-39.75 32.78,-72.53 72.54,-72.53l3418.2 0c39.76,0 72.54,32.08 72.54,72.53l0 0z"/>
   <path class="fil21" d="M16425.49 12953.11c0,39.76 -32.78,72.54 -72.54,72.54l-3935.01 0c-39.76,0 -72.54,-32.78 -72.54,-72.54l0 0c0,-39.75 32.78,-72.53 72.54,-72.53l3935.01 0c39.76,0 72.54,32.78 72.54,72.53l0 0z"/>
   <path class="fil21" d="M16425.49 13312.3c0,39.76 -32.78,72.54 -72.54,72.54l-3935.01 -0.01c-39.76,0 -72.54,-32.78 -72.54,-72.54l0 0c0,-39.75 32.78,-72.53 72.54,-72.53l3935.01 0c39.76,0 72.54,32.09 72.54,72.54l0 0z"/>
   <path class="fil21" d="M16425.49 14341.03c0,39.76 -32.78,72.54 -72.54,72.54l-3418.2 0c-39.76,0 -72.54,-32.78 -72.54,-72.54l0 0c0,-39.75 32.78,-72.53 72.54,-72.53l3418.2 0c39.76,0 72.54,32.79 72.54,72.53l0 0z"/>
   <path class="fil21" d="M16425.49 14700.22c0,39.76 -32.78,72.54 -72.54,72.54l-3935.01 0c-39.76,0 -72.54,-32.78 -72.54,-72.54l0 0c0,-39.75 32.78,-72.53 72.54,-72.53l3935.01 0c39.76,0 72.54,32.78 72.54,72.53l0 0z"/>
   <path class="fil21" d="M16425.49 15059.41c0,39.76 -32.78,72.54 -72.54,72.54l-3935.01 0c-39.76,0 -72.54,-32.78 -72.54,-72.54l0 0c0,-39.76 32.78,-72.53 72.54,-72.53l3935.01 0c39.76,0 72.54,32.08 72.54,72.53l0 0z"/>
   <path class="fil21" d="M16425.49 16088.15c0,39.76 -32.78,72.54 -72.54,72.54l-3418.2 -0.01c-39.76,0 -72.54,-32.78 -72.54,-72.53l0 0c0,-39.76 32.78,-72.54 72.54,-72.54l3418.2 0.01c39.76,0 72.54,32.78 72.54,72.53l0 0z"/>
   <path class="fil21" d="M16425.49 16447.33c0,39.76 -32.78,72.54 -72.54,72.54l-3935.01 0c-39.76,0 -72.54,-32.78 -72.54,-72.54l0 0c0,-39.75 32.78,-72.53 72.54,-72.53l3935.01 0c39.76,0 72.54,32.78 72.54,72.53l0 0z"/>
   <path class="fil21" d="M16425.49 16805.82c0,39.76 -32.78,72.54 -72.54,72.54l-3935.01 0c-39.76,0 -72.54,-32.78 -72.54,-72.54l0 0c0,-39.75 32.78,-72.53 72.54,-72.53l3935.01 0c39.76,0 72.54,32.78 72.54,72.53l0 0z"/>
   <path class="fil21" d="M16425.49 17835.26c0,39.76 -32.78,72.54 -72.54,72.54l-3418.2 0c-39.76,0 -72.54,-32.78 -72.54,-72.54l0 0c0,-39.75 32.78,-72.53 72.54,-72.53l3418.2 0c39.76,0 72.54,32.78 72.54,72.53l0 0z"/>
   <path class="fil21" d="M16425.49 18194.45c0,39.76 -32.78,72.54 -72.54,72.54l-3935.01 0c-39.76,0 -72.54,-32.78 -72.54,-72.54l0 0c0,-39.76 32.78,-72.53 72.54,-72.53l3935.01 0c39.76,0 72.54,32.08 72.54,72.53l0 0z"/>
   <path class="fil21" d="M16425.49 18552.94c0,39.76 -32.78,72.54 -72.54,72.54l-3935.01 0c-39.76,0 -72.54,-32.78 -72.54,-72.54l0 0c0,-39.76 32.78,-72.53 72.54,-72.53l3935.01 0c39.76,0 72.54,32.77 72.54,72.53l0 0z"/>
  </g>
  <g id="_2075066694128">
   <g>
    <g>
     <rect class="fil11" x="10784.51" y="12009.46" width="108.8" height="72.54"/>
    </g>
    <g>
     <path class="fil11" d="M16099.78 12081.99l-216.91 0 0 -72.53 216.91 0 0 72.53zm-433.82 0l-216.91 0 0 -72.53 216.91 0 0 72.53zm-433.81 0l-216.91 0 0 -72.53 216.91 0 0 72.53zm-433.81 0l-216.91 0 0 -72.53 216.91 0 0 72.53zm-433.82 0l-216.9 0 0 -72.53 216.9 0 0 72.53zm-433.81 0l-216.91 0 0 -72.53 216.91 0 0 72.53zm-433.82 0l-216.91 0 0 -72.53 216.91 0 0 72.53zm-433.81 0l-216.91 0 0 -72.53 216.91 0 0 72.53zm-433.81 0l-216.91 0 0 -72.53 216.91 0 0 72.53zm-434.51 0l-216.91 0 0 -72.53 216.91 0 0 72.53zm-433.82 0l-216.91 0 0 -72.53 216.91 0 0 72.53zm-433.82 0l-216.9 0 0 -72.53 216.9 0 0 72.53z"/>
    </g>
    <g>
     <rect class="fil11" x="16316.69" y="12009.46" width="108.8" height="72.54"/>
    </g>
   </g>
   <g>
    <g>
     <rect class="fil11" x="10784.51" y="13755.87" width="108.8" height="72.54"/>
    </g>
    <g>
     <path class="fil11" d="M16099.78 13828.41l-216.91 0 0 -72.53 216.91 0 0 72.53zm-433.82 0l-216.91 0 0 -72.53 216.91 0 0 72.53zm-433.81 0l-216.91 0 0 -72.53 216.91 0 0 72.53zm-433.81 0l-216.91 0 0 -72.53 216.91 0 0 72.53zm-433.82 0l-216.9 0 0 -72.53 216.9 0 0 72.53zm-433.81 0l-216.91 0 0 -72.53 216.91 0 0 72.53zm-433.82 0l-216.91 0 0 -72.53 216.91 0 0 72.53zm-433.81 0l-216.91 0 0 -72.53 216.91 0 0 72.53zm-433.81 0l-216.91 0 0 -72.53 216.91 0 0 72.53zm-434.51 0l-216.91 0 0 -72.53 216.91 0 0 72.53zm-433.82 0l-216.91 0 0 -72.53 216.91 0 0 72.53zm-433.82 0l-216.9 0 0 -72.53 216.9 0 0 72.53z"/>
    </g>
    <g>
     <rect class="fil11" x="16316.69" y="13755.87" width="108.8" height="72.54"/>
    </g>
   </g>
   <g>
    <g>
     <rect class="fil11" x="10784.51" y="15502.98" width="108.8" height="72.54"/>
    </g>
    <g>
     <path class="fil11" d="M16099.78 15575.52l-216.91 0 0 -72.53 216.91 0 0 72.53zm-433.82 0l-216.91 0 0 -72.53 216.91 0 0 72.53zm-433.81 0l-216.91 0 0 -72.53 216.91 0 0 72.53zm-433.81 0l-216.91 0 0 -72.53 216.91 0 0 72.53zm-433.82 0l-216.9 0 0 -72.53 216.9 0 0 72.53zm-433.81 0l-216.91 0 0 -72.53 216.91 0 0 72.53zm-433.82 0l-216.91 0 0 -72.53 216.91 0 0 72.53zm-433.81 0l-216.91 0 0 -72.53 216.91 0 0 72.53zm-433.81 0l-216.91 0 0 -72.53 216.91 0 0 72.53zm-434.51 0l-216.91 0 0 -72.53 216.91 0 0 72.53zm-433.82 0l-216.91 0 0 -72.53 216.91 0 0 72.53zm-433.82 0l-216.9 0 0 -72.53 216.9 0 0 72.53z"/>
    </g>
    <g>
     <rect class="fil11" x="16316.69" y="15502.98" width="108.8" height="72.54"/>
    </g>
   </g>
   <g>
    <g>
     <rect class="fil11" x="10784.51" y="17250.1" width="108.8" height="72.54"/>
    </g>
    <g>
     <path class="fil11" d="M16099.78 17322.64l-216.91 0 0 -72.54 216.91 0 0 72.54zm-433.82 0l-216.91 0 0 -72.54 216.91 0 0 72.54zm-433.81 0l-216.91 0 0 -72.54 216.91 0 0 72.54zm-433.81 0l-216.91 0 0 -72.54 216.91 0 0 72.54zm-433.82 0l-216.9 0 0 -72.54 216.9 0 0 72.54zm-433.81 0l-216.91 0 0 -72.54 216.91 0 0 72.54zm-433.82 0l-216.91 0 0 -72.54 216.91 0 0 72.54zm-433.81 0l-216.91 0 0 -72.54 216.91 0 0 72.54zm-433.81 0l-216.91 0 0 -72.54 216.91 0 0 72.54zm-434.51 0l-216.91 0 0 -72.54 216.91 0 0 72.54zm-433.82 0l-216.91 0 0 -72.54 216.91 0 0 72.54zm-433.82 0l-216.9 0 0 -72.54 216.9 0 0 72.54z"/>
    </g>
    <g>
     <rect class="fil11" x="16316.69" y="17250.1" width="108.8" height="72.54"/>
    </g>
   </g>
  </g>
  <g id="_2075066694752">
   <g>
    <path class="fil22" d="M18651.05 9559.32c-102.53,-96.95 -260.15,71.83 -94.85,373.83 165.29,302 366.15,245.51 304.08,41.85 -62.76,-203.66 -209.23,-415.68 -209.23,-415.68z"/>
    <path class="fil22" d="M18742.42 9849.45c-92.77,-170.17 -244.11,-530.76 306.18,-549.59 550.29,-18.13 802.06,125.55 800.67,592.14 -2.1,466.59 -324.32,545.41 -324.32,545.41 0,0 -717.67,-469.38 -782.53,-587.96z"/>
   </g>
   <g>
    <path class="fil23" d="M18042.88 19399.65c0,0 583.76,-149.96 626.31,-163.91 46.73,-14.64 121.36,-41.14 130.42,112.99 9.07,154.14 14.65,202.96 14.65,202.96 0,0 -676.52,1.4 -749.06,-6.98 -72.54,-7.67 -129.73,-62.07 -22.32,-145.06z"/>
    <path class="fil11" d="M18523.42 13711.94c0,0 34.17,1964.72 57.19,2358.07 23.01,393.37 779.05,474.97 987.59,-34.17 208.53,-508.45 484.03,-1216.35 486.12,-1733.86 2.09,-517.51 -122.75,-912.27 -495.89,-1217.75 -373.83,-305.48 -1044.78,98.34 -1035.01,627.71z"/>
    <path class="fil11" d="M19194.37 15660.61c-389.18,-64.86 -603.3,91.37 -610.97,302.7 -16.73,481.94 16.05,484.73 13.25,1067.8 -1.4,273.4 -24.41,783.93 -29.29,1255.41l454.04 -0.01c177.85,-580.28 463.8,-1683.65 531.46,-1948.68 85.08,-335.46 30.68,-611.66 -358.49,-677.22z"/>
    <path class="fil24" d="M18574.33 19295.72c0,0 36.96,46.73 85.78,46.03 73.94,-1.4 87.19,-41.84 87.19,-41.84 0,0 41.84,-414.29 142.28,-680.02 21.61,-55.79 59.28,-169.49 107.41,-332.68l-410.8 0c-6.28,525.88 -11.86,1008.51 -11.86,1008.51z"/>
   </g>
   <path class="fil11" d="M18042.88 19399.65c0,0 24.41,-6.28 62.77,-16.05 -0.7,147.86 322.92,120.66 468.69,120.66 146.46,0 128.33,-68.35 128.33,-228.76 0,-161.11 73.23,-498.68 166.69,-888.55 93.45,-389.87 269.21,-1302.83 419.16,-2054.69 149.96,-752.54 147.16,-931.09 92.77,-1452.09 -55.8,-536.34 -219,-520.3 -493.1,-633.98 -183.44,-76.02 -301.3,-177.15 -359.89,-235.74 -3.49,-182.04 -5.58,-298.51 -5.58,-298.51 -9.77,-529.37 661.18,-933.19 1035.01,-627.71 373.14,305.48 497.98,700.93 495.89,1217.75 -2.1,506.34 -266.43,1195.43 -472.87,1701.78 15.34,99.03 2.78,212.72 -28.6,334.77 -66.95,265.04 -352.91,1368.4 -531.46,1948.68l-25.1 0c-47.43,163.2 -85.79,276.89 -107.41,332.68 -76.02,200.17 -117.87,484.03 -134.61,612.36 23.01,13.25 41.15,46.03 45.34,117.17 9.06,154.14 14.64,202.96 14.64,202.96 0,0 -676.52,1.4 -749.06,-6.98 -71.83,-8.36 -129.02,-62.76 -21.61,-145.75z"/>
   <g>
    <g>
     <g>
      <path class="fil25" d="M18231.18 12367.25c0,0 -112.98,465.2 -121.36,608.88 -6.27,103.22 137.4,99.73 225.98,99.03 87.88,-0.7 281.77,-266.42 365.47,-532.15 64.16,-202.26 -439.39,-204.36 -470.09,-175.76z"/>
      <path class="fil25" d="M18783.57 10823.1c-222.48,408.7 -698.15,1772.92 -698.15,1772.92 0,0 73.24,109.5 312.46,207.15 359.19,146.46 518.9,94.15 518.9,94.15 0,0 202.26,-330.59 408.01,-756.04 101.13,-207.84 152.74,-430.33 -18.83,-901.1 -105.32,-288.75 -387.79,-663.98 -522.39,-417.08z"/>
     </g>
    </g>
   </g>
   <path class="fil25" d="M19306.65 11240.87c-87.18,-237.83 -294.32,-534.94 -440.09,-493.8 -69.05,117.87 -134.61,170.88 -137.39,456.14 -4.19,371.74 -90.67,843.22 -168.09,1151.49 -52.31,208.53 -94.85,431.72 -276.19,338.26 -145.07,-75.32 -149.95,-89.97 -185.52,-136.7 -9.07,25.81 -13.95,40.46 -13.95,40.46 0,0 20.93,31.38 77.42,75.32 -25.11,119.27 -48.82,242.71 -52.31,304.79 -6.28,103.22 137.4,99.73 225.98,99.03 50.91,-0.7 137.39,-89.97 217.6,-216.91 249.69,75.32 363.37,39.06 363.37,39.06 0,0 202.26,-330.59 408.01,-756.04 100.43,-208.53 152.74,-431.02 -18.84,-901.1z"/>
   <g>
    <path class="fil26" d="M20250.31 19353.61c0.7,-15.34 2.09,-27.9 4.18,-39.76 18.13,-106.01 80.9,-84.38 122.75,-71.83 7.67,2.09 33.48,9.06 69.74,18.83 36.27,-9.77 62.08,-17.44 69.74,-19.53 41.15,-13.25 103.92,-36.27 124.15,69.74 2.1,11.86 4.18,24.41 4.88,39.76 10.47,151.34 16.74,198.77 16.74,198.77 0,0 -92.77,1.39 -212.72,2.78 -119.96,0.7 -212.72,0.7 -212.72,0.7 0,0 4.88,-48.11 13.26,-199.46z"/>
    <path class="fil11" d="M19452.42 13859.8c0,0 347.33,1929.14 497.99,2436.19 110.19,369.65 875.3,392.67 991.08,-133.21 115.08,-525.88 136.69,-1392.81 153.44,-2676.82 7.66,-622.13 -1740.85,-135.3 -1642.51,373.84z"/>
    <path class="fil11" d="M20898.93 16791.87c43.95,-336.86 44.64,-1039.2 -341.74,-1057.33 -386.39,-18.13 -637.48,239.92 -631.89,308.97 28.59,348.02 159.02,1431.86 280.37,2261.83l480.54 -4.18c82.3,-481.24 179.95,-1254.71 212.72,-1509.29z"/>
    <path class="fil24" d="M20670.87 18301.16l-442.18 4.18c84.39,577.49 145.07,979.22 145.07,979.22 0,0 -2.78,61.37 91.37,66.96 69.74,4.18 79.51,-53.71 79.51,-53.71 0,0 -6.98,-378.72 59.97,-648.63 16.04,-66.94 39.75,-191.79 66.26,-348.02z"/>
   </g>
   <path class="fil11" d="M21094.92 13485.96c8.37,-621.43 -1740.84,-135.31 -1642.5,373.84 0,0 34.88,191.8 86.49,470.77l0 0c58.59,313.85 139.49,737.21 217.6,1120.8 -36.26,-178.55 37.66,-154.14 195.98,-154.14l607.48 0.01c175.76,0 203.66,58.59 200.87,148.56 -13.25,364.77 -58.59,752.54 -99.04,1155.67 -60.67,592.14 -89.27,1541.36 -129.72,1962.63 -40.46,421.96 -19.53,555.87 -19.53,665.37 0,108.8 16.73,112.98 51.61,112.98 34.87,0 27.2,54.4 27.2,103.92 0,47.42 -163.91,29.29 -348.03,27.2 -4.18,57.88 -6.28,78.81 -6.28,78.81 0,0 92.76,0 212.72,-0.7 119.96,-1.39 212.72,-2.78 212.72,-2.78 0,0 -6.28,-47.43 -16.74,-198.77 -1.39,-15.35 -2.78,-27.9 -4.88,-39.76 -16.04,-83.69 -58.59,-87.18 -96.25,-78.12 1.4,-119.96 9.77,-382.2 59.98,-583.77 16.73,-66.25 39.76,-191.8 66.95,-348.02l15.35 0c82.3,-480.54 179.24,-1254.71 212.72,-1508.59 18.13,-138.09 28.59,-338.26 8.37,-526.57 13.94,-31.38 25.8,-65.56 33.47,-102.53 115.1,-525.87 136.02,-1392.81 153.46,-2676.81z"/>
   <path class="fil0" d="M19317.82 10649.43c-455.44,15.35 -576.79,47.43 -587.26,508.45 -35.57,1568.57 -232.25,1933.33 -238.52,2745.16 0,0 200.16,295.02 1180.78,270.61 1273.54,-31.39 1484.87,-194.59 1484.87,-194.59 0,0 -152.74,-1936.82 -502.86,-2829.56 -170.18,-434.51 -421.27,-493.1 -926.92,-518.9 -144.37,-6.28 -258.05,13.25 -410.09,18.83z"/>
   <path class="fil0" d="M20654.83 11150.2c-170.18,-434.51 -421.27,-493.1 -926.92,-518.9 -144.37,-7.67 -258.05,12.55 -410.09,17.43 -378.02,13.25 -525.88,36.97 -571.21,308.97 22.31,-105.31 116.47,-146.46 206.44,-142.28 90.67,4.19 -103.22,474.97 341.06,482.64 444.28,7.67 543.31,-324.31 674.44,-304.09 131.81,20.23 99.03,314.55 283.16,668.16 184.13,353.61 172.27,471.47 172.27,564.94 0,93.45 -27.2,108.8 -165.29,108.8 -138.09,0 -269.22,0 -433.81,0 -164.6,0 -438.7,-29.3 -438.7,251.77 0,281.08 -4.18,604 -4.18,842.53 0,238.52 0,415.68 -52.31,336.17 -52.31,-79.51 -551.69,-669.55 -629.1,-763.01 -76.72,-92.76 -95.55,-209.93 -76.02,-371.04 0,0 0,-0.7 0,-0.7 -62.77,484.73 -129.03,803.47 -132.51,1270.76 0,0 200.17,295.02 1180.78,270.61 1273.54,-31.39 1484.87,-194.59 1484.87,-194.59 0,0 -153.46,-1935.43 -502.88,-2828.17z"/>
   <path class="fil22" d="M19079.99 10670.36c-27.2,183.43 -139.5,590.05 293.63,551.69 508.44,-44.64 598.41,-576.09 567.72,-634.68 -69.74,-133.21 -269.92,-51.61 -398.25,-38.36 -128.33,13.24 -439.39,-34.19 -463.1,121.35z"/>
   <path class="fil24" d="M19806.72 10582.48c-24.41,-0.7 -49.52,-1.4 -76.02,-1.4 -144.37,1.4 -258.06,16.74 -408.7,41.85 -47.43,7.66 -91.37,18.83 -131.13,32.08 -11.16,119.26 -116.47,451.25 209.94,431.72 336.17,-21.62 417.77,-391.27 405.91,-504.25z"/>
   <path class="fil24" d="M19633.06 10471.58c-170.87,-325.71 -243.41,-359.19 -412.19,-596.32 -2.79,-9.76 -419.87,177.16 -573.31,0.7 0,0 73.24,251.08 165.3,460.32 86.48,197.38 175.75,293.63 352.21,144.38 25.11,100.43 86.48,207.14 107.41,295.71 42.54,178.55 175.75,186.92 256.66,154.84 80.91,-32.09 262.24,-158.33 103.92,-459.63z"/>
   <path class="fil24" d="M19455.21 9899.67c42.54,41.85 26.5,126.25 -34.87,189.01 -61.38,62.07 -116.48,48.12 -158.33,6.28 -42.54,-41.85 -56.49,-94.85 5.58,-157.62 61.38,-62.08 145.78,-79.51 187.62,-37.67z"/>
  </g>
  <g id="_2075066693600">
   <g>
    <path class="fil24" d="M21730.3 12148.25c277.58,389.18 1231.69,948.53 1489.05,1264.48 92.76,112.98 229.46,-57.19 117.17,-178.55 -87.19,-94.16 -830.67,-908.78 -1059.43,-1144.52 -168.78,-184.12 -311.06,-274.1 -405.91,-223.88 -133.22,71.84 -244.11,138.1 -140.88,282.47z"/>
   </g>
   <g>
    <g>
     <path class="fil27" d="M21636.83 11490.56c0,0 359.19,316.64 448.46,429.63 64.17,80.9 -55.79,160.41 -128.33,210.63 -72.53,50.21 -383.6,-56.49 -604.68,-225.98 -168.09,-129.73 243.41,-420.56 284.55,-414.28z"/>
     <path class="fil27" d="M20393.28 10766.6c433.12,169.49 1494.64,827.88 1494.64,827.88 0,0 2.79,131.81 -137.4,348.72 -210.63,325.71 -371.05,374.54 -371.05,374.54 0,0 -198.77,-76.03 -611.66,-306.88 -202.26,-112.29 -355,-211.33 -567.72,-719.08 -119.97,-283.16 -110.2,-644.44 193.19,-525.18z"/>
    </g>
   </g>
  </g>
  <path class="fil25" d="M22459.83 12282.16c39.05,41.85 -12.56,50.21 -101.83,50.21 -89.28,0 -96.95,-20.92 -96.95,-96.94 0,-76.02 -6.28,-170.18 61.37,-99.04 0,0 0,0 0,0 -16.73,-17.43 -32.08,-33.48 -45.34,-47.42 -73.23,-79.51 -140.88,-141.58 -202.96,-182.74 -42.54,-50.91 -125.54,-130.42 -207.14,-207.14 20.92,-68.36 20.22,-106.02 20.22,-106.02 0,0 -43.94,-27.2 -117.16,-71.84 50.91,30.7 81.6,69.75 68.35,124.15 -13.95,54.4 -65.56,44.64 -228.76,44.64l-609.56 0.01c-258.06,0 -690.48,-88.58 -829.97,-477.06 8.37,26.5 18.13,53.01 29.3,78.82 213.41,507.74 366.15,606.08 567.72,719.07 412.89,230.16 611.66,306.88 611.66,306.88 0,0 113.69,-34.87 275.49,-239.92 16.05,6.28 31.39,12.55 46.03,18.13 6.98,16.04 16.05,33.48 30,52.31 277.58,389.18 1231.69,948.53 1489.05,1264.47 92.76,112.99 229.46,-57.19 117.17,-178.55 -69.75,-76.02 -567.03,-620.73 -876.69,-952.02z"/>
  <g id="_2112620468128">
   <g>
    <path class="fil11" d="M21986.26 11838.58l-622.82 0 0 181.34 622.82 0c22.31,0 41.14,18.83 41.14,41.15l0 720.46 181.35 0.01 0 -720.47c0,-122.75 -99.74,-222.49 -222.49,-222.49z"/>
    <path class="fil28" d="M22172.48 12134.3c-9.77,0 -18.14,8.37 -18.14,18.14l0 6.27c0,9.77 8.37,18.14 18.14,18.14 9.76,0 18.13,-8.37 18.13,-18.14l0 -6.27c0,-9.77 -8.37,-18.14 -18.13,-18.14zm10.46 -128.33c-2.79,-9.76 -12.55,-15.34 -22.32,-12.55 -9.76,2.79 -15.34,12.55 -12.55,22.32 4.18,14.64 6.28,29.99 6.28,45.34l0 31.38c0,9.76 8.37,18.13 18.13,18.13 9.77,0 18.13,-8.37 18.13,-18.13l0 -31.38c0,-18.84 -2.79,-36.97 -7.67,-55.11zm-25.11 -55.09c-28.6,-43.94 -71.84,-75.32 -122.05,-87.88 -9.77,-2.1 -19.53,3.48 -22.32,13.25 -2.78,9.76 3.49,19.53 13.25,22.31 41.15,10.47 76.72,36.27 100.43,71.84 3.49,5.58 9.07,8.37 15.35,8.37 3.49,0 6.98,-0.7 9.76,-2.79 8.37,-5.58 11.16,-16.73 5.58,-25.1z"/>
    <path class="fil8" d="M21867.69 12048.52c0,20.22 -16.04,36.26 -36.26,36.26l-912.27 0c-20.23,0 -36.26,-16.04 -36.26,-36.26l0 -239.23c0,-20.23 16.04,-36.26 36.26,-36.26l912.97 0c20.22,0 36.26,16.04 36.26,36.26l0 239.23 -0.7 0z"/>
    <path class="fil29" d="M21831.43 11930.65c-9.77,0 -18.14,8.37 -18.14,18.13l0 16.05c0,9.76 8.37,18.13 18.14,18.13 9.76,0 18.13,-8.37 18.13,-18.13l0 -16.05c0,-10.46 -7.68,-18.13 -18.13,-18.13zm0 -139.49l-59.29 0c-9.76,0 -18.13,8.37 -18.13,18.13 0,9.77 8.37,18.13 18.13,18.13l41.15 0 0 66.26c0,9.76 8.36,18.13 18.13,18.13 9.76,0 18.13,-8.37 18.13,-18.13l0 -84.39c0.01,-9.76 -7.67,-18.13 -18.12,-18.13z"/>
    <path class="fil30" d="M21117.93 12048.52l0 -239.23c0,-20.23 -16.04,-36.26 -36.26,-36.26l-162.51 0c-20.23,0 -36.26,16.04 -36.26,36.26l0 239.23c0,20.22 16.04,36.26 36.26,36.26l162.51 0c19.52,0 36.26,-16.04 36.26,-36.26z"/>
    <path class="fil11" d="M21039.12 11838.58l-115.77 0 -64.87 0 -94.15 0c-122.75,0 -222.49,99.74 -222.49,222.49l0 720.46 181.34 0.01 0 -720.47c0,-22.32 18.83,-41.15 41.15,-41.15l94.15 0 64.87 0 115.77 0c4.88,0 9.06,-4.18 9.06,-9.06l0 -163.21c0.01,-4.88 -4.18,-9.07 -9.06,-9.07z"/>
   </g>
   <path class="fil11" d="M23116.13 12405.61l-3480.98 0c-72.54,0 -131.81,59.29 -131.81,131.81l0 2487.11c0,72.54 59.28,131.81 131.81,131.81l3480.98 0.02c72.54,0 131.81,-59.29 131.81,-131.82l0 -2487.11c0,-72.53 -59.27,-131.82 -131.81,-131.82z"/>
   <path class="fil19" d="M22127.84 13780.98c0,-341.06 -276.88,-617.94 -617.94,-617.94 -341.06,0 -617.94,276.88 -617.94,617.94 0,341.06 276.88,617.94 617.94,617.94 341.06,0 617.94,-276.88 617.94,-617.94z"/>
   <path class="fil8" d="M22069.95 13661.03c-4.18,-18.14 -9.06,-36.27 -14.64,-54.41 -7.67,-23.71 -33.48,-36.96 -57.19,-29.29 -23.72,7.67 -36.97,33.48 -29.3,57.19 4.88,14.65 9.07,29.99 11.86,45.34 4.89,21.61 23.72,35.57 43.94,35.57 3.49,0 6.28,0 9.77,-0.7 25.1,-5.58 40.45,-29.3 35.56,-53.7zm-104.61 -226.68c-75.33,-99.03 -182.74,-172.27 -302.7,-205.75 -24.41,-6.98 -48.82,7.67 -55.79,31.38 -6.98,24.42 7.67,48.83 31.38,55.8 100.43,27.9 191.1,89.27 254.57,172.97 9.07,11.86 22.32,18.13 36.27,18.13 9.76,0 19.52,-2.79 27.19,-9.07 20.23,-14.64 24.42,-43.23 9.08,-63.46z"/>
   <g>
    <path class="fil8" d="M21622.19 14057.88c0,12.55 -10.47,23.01 -23.02,23.01l-179.24 0c-12.55,0 -23.01,-10.46 -23.01,-23.01l0 -553.78c0,-12.55 10.46,-23.01 23.01,-23.01l179.24 -0.01c12.55,0 23.02,10.46 23.02,23.01l0 553.79z"/>
    <path class="fil8" d="M21233.01 13893.27c-12.55,0 -23.01,-10.46 -23.01,-23.01l0 -179.24c0,-12.55 10.46,-23.02 23.01,-23.02l553.78 0c12.55,0 23.01,10.46 23.01,23.01l0 179.24c0,12.55 -10.46,23.02 -23.01,23.02l-553.78 0z"/>
   </g>
   <path class="fil31" d="M23121.01 12838.73c-34.87,0 -63.47,28.6 -63.47,63.47l0 46.73c0,34.87 28.6,63.47 63.47,63.47 34.88,0 63.47,-28.6 63.47,-63.47l0 -46.73c-0.01,-34.87 -28.6,-63.47 -63.47,-63.47zm-4.88 -369.65l-248.99 0c-34.88,0 -63.47,28.6 -63.47,63.47 0,34.87 28.59,63.47 63.47,63.47l191.1 -0.01 0 126.24c0,34.88 28.6,63.47 63.47,63.47 34.87,0 63.47,-28.59 63.47,-63.47l0 -184.82c-0.71,-37.66 -31.39,-68.35 -69.05,-68.35zm-425.45 0l-21.62 0c-34.88,0 -63.47,28.6 -63.47,63.47 0,34.87 28.59,63.47 63.47,63.47l21.62 -0.01c34.88,0 63.47,-28.59 63.47,-63.47 0,-34.87 -28.59,-63.46 -63.47,-63.46z"/>
  </g>
  <g id="_2112620465344">
   <g>
    <path class="fil24" d="M18146.8 13083.53c241.31,412.89 1093.6,1044.78 1284,1309.81 85.09,118.57 171.57,-133.21 71.14,-264.33 -78.82,-101.83 -597.72,-799.28 -804.86,-1055.24 -151.35,-198.77 -285.26,-300.6 -383.6,-259.46 -87.19,36.96 -195.99,64.17 -201.57,127.63 -4.87,46.04 0.71,83.71 34.89,141.59z"/>
   </g>
   <path class="fil19" d="M18697.08 13074.46c-151.34,-198.77 -285.25,-300.6 -383.59,-259.45 -87.19,36.96 -195.99,64.17 -201.57,127.63 -4.18,45.34 1.4,83 35.57,140.89 18.83,32.08 41.85,66.26 67.66,100.43 -85.09,-121.36 57.19,-354.3 194.58,-246.89 138.8,108.8 583.07,677.92 760.92,895.53 178.55,217.6 216.91,250.39 220.4,304.08 3.49,53.01 -4.18,197.38 -61.37,140.19 0,0 0,0 0,0 42.54,43.94 77.41,83.69 101.83,117.17 85.08,118.57 171.57,-133.21 71.13,-264.33 -79.51,-101.83 -598.42,-799.28 -805.56,-1055.25z"/>
   <g>
    <path class="fil24" d="M19444.05 14014.63c16.73,-57.89 107.41,-163.9 150.64,-142.97 87.19,43.24 -30.69,108.8 -34.17,254.57 -2.1,92.76 -138.79,136 -138.79,136 0,0 -13.25,-126.94 22.32,-247.6z"/>
    <path class="fil24" d="M19649.8 14511.22c-143.68,39.06 -200.87,10.46 -212.03,-126.94 -5.58,-64.16 -29.99,-192.49 -13.95,-260.84 25.81,-110.2 4.88,-146.46 275.49,-79.51 130.43,32.08 80.91,431.71 -49.51,467.29z"/>
   </g>
   <path class="fil19" d="M19698.62 14043.92c-46.03,-11.16 -83.69,-19.53 -114.38,-25.11 30.69,-73.93 71.84,-115.78 9.76,-146.46 -0.69,0 -0.69,0 -1.39,-0.7 24.41,13.95 -15.35,89.27 -39.76,123.45 -27.2,37.66 -13.95,25.11 43.94,36.96 57.89,11.86 150.65,55.79 106.01,230.86 -39.75,155.53 -103.22,185.52 -163.9,178.55 -60.67,-6.98 -96.25,-29.3 -107.41,-109.5 2.79,20.23 4.88,38.36 6.28,53.01 11.16,137.39 68.35,165.99 212.03,126.93 11.86,-3.49 22.31,-9.07 32.78,-18.13l64.17 -105.32c46.72,-131.81 41.14,-322.92 -48.13,-344.54z"/>
  </g>
  <g id="_2112620465296">
   <path class="fil24" d="M23383.95 13128.17c-16.73,-57.89 -106.71,-164.6 -149.95,-143.68 -87.89,42.55 29.99,108.81 32.77,254.58 1.4,92.76 138.1,136.69 138.1,136.69 0,0 13.95,-126.93 -20.92,-247.59z"/>
   <path class="fil24" d="M23176.11 13623.36c143.67,39.75 200.86,11.86 212.72,-126.24 5.58,-64.17 31.38,-192.5 15.34,-260.85 -25.11,-110.2 -4.18,-146.46 -274.79,-80.9 -131.82,32.09 -83.69,431.72 46.73,467.99z"/>
  </g>
  <path class="fil24" d="M23407.66 13325.55c2.1,-32.08 1.4,-62.07 -3.48,-85.79 -3.49,-34.87 -9.07,-73.93 -20.23,-112.28 -16.73,-57.89 -106.71,-164.6 -149.95,-143.68 -62.08,30 -20.93,72.54 9.06,146.47 -30.69,5.58 -68.35,13.25 -115.08,25.11 -131.12,31.38 -83,431.72 46.73,467.98 143.67,39.76 200.87,11.86 212.72,-126.24 2.78,-30.69 9.76,-76.02 14.65,-122.05 1.39,0.7 2.09,0.7 2.09,0.7 0,0 2.8,-19.54 3.49,-50.22z"/>
  <path class="fil32" d="M23176.11 13623.36c143.67,39.75 200.86,11.86 212.72,-126.24 0.69,-6.98 1.39,-15.35 2.78,-24.42 -6.98,51.61 -11.86,103.22 -131.12,91.37 -119.27,-11.86 -138.8,-225.28 -131.13,-306.18 7.67,-80.9 92.77,-110.2 120.66,-115.78 27.9,-5.58 35.58,-7.67 30,-17.43 -5.58,-9.77 -25.11,-50.91 -39.06,-79.51 -13.95,-28.59 10.46,-78.82 57.19,-39.76 -23.02,-18.83 -46.73,-29.29 -62.77,-21.61 -62.08,29.99 -20.93,72.53 9.06,146.46 -30.69,5.58 -68.35,13.25 -115.08,25.11 -131.8,32.09 -83.67,431.72 46.75,467.99z"/>
  <g id="_2112620459536">
   <g>
    <g>
     <path class="fil20" d="M6122.75 11888.8c0,0 -244.11,412.19 -294.32,546.8 -36.27,96.95 102.53,136.01 186.91,161.11 84.39,25.11 347.33,-172.27 504.96,-401.73 120.66,-175.06 -360.58,-324.31 -397.55,-306.18z"/>
     <path class="fil20" d="M7062.92 10613.86c-331.99,325.71 -1147.31,1451.39 -1147.31,1451.39 0,0 38.36,126.24 238.53,289.44 300.6,244.81 468.68,242.01 468.68,242.01 0,0 290.14,-257.35 611.67,-603.99 156.92,-169.49 272,-366.86 245.5,-866.94 -16.04,-306.86 -215.52,-709.28 -417.07,-511.91z"/>
    </g>
   </g>
  </g>
  <g id="_2112620458672">
   <path class="fil23" d="M4469.79 16565.91c0,0 582.37,157.62 625.61,166.69 48.13,10.46 126.24,23.71 57.89,162.5 -68.35,138.8 -87.18,183.43 -87.18,183.43 0,0 -589.35,-331.99 -648.63,-375.22 -58.58,-42.55 -81.6,-118.57 52.31,-137.4z"/>
   <path class="fil24" d="M4955.22 16754.21c0,0 25.11,53.71 72.54,64.17 71.83,15.35 94.15,-20.23 94.15,-20.23 0,0 136.01,-393.36 295.02,-628.39 33.48,-49.53 96.95,-151.35 180.64,-299.21l-400.34 -94.85c-125.54,510.52 -242.01,978.51 -242.01,978.51z"/>
   <path class="fil11" d="M8420.16 13306.02c0,0 -1964.72,-25.81 -2358.78,-14.65 -393.36,11.17 -497.98,766.51 4.18,989.69 502.17,223.88 1018.98,490.3 1436.05,490.3 517.51,0 748.36,0 1178.69,0 482.64,0 269.22,-1459.06 -260.14,-1465.34z"/>
   <path class="fil11" d="M6396.85 13360.42c-364.07,-153.44 -608.18,-50.21 -663.97,154.14 -127.64,465.2 -96.25,474.96 -233.65,1041.99 -64.17,265.72 -205.05,757.43 -318.03,1214.96 0,0 103.91,62.07 217.6,87.88 163.9,36.96 224.58,17.43 224.58,17.43 306.88,-523.78 839.73,-1530.9 965.97,-1773.61 159.71,-308.27 170.87,-589.35 -192.5,-742.79z"/>
  </g>
  <path class="fil11" d="M4469.79 16565.91c0,0 6.98,2.09 20.23,5.58 -23.71,48.82 -36.27,111.59 23.71,141.58 83,42.54 217.6,123.44 387.79,209.23 170.17,86.48 159.71,-65.56 183.43,-180.64 24.41,-115.08 208.53,-555.87 414.28,-969.45 205.75,-412.9 723.95,-1604.14 809.74,-1699.69 86.49,-94.85 453.35,208.54 834.15,335.48 380.81,126.93 439.4,-212.72 562.14,-502.87 143.68,-340.35 -49.52,-355.7 -192.49,-469.38 -141.58,-112.29 -303.4,-145.07 -469.39,-145.77 655.6,5.59 1376.77,15.35 1376.77,15.35 529.36,6.28 742.79,1465.34 260.15,1465.34l-1178.69 -0.01c-320.83,0 -700.93,-159.72 -1088.02,-334.07 -219,412.19 -565.63,1055.94 -790.9,1440.23 0,0 -9.07,2.79 -30,4.19 -80.9,142.28 -142.27,239.92 -175.05,288.75 -124.15,182.73 -233.65,461.01 -276.19,576.09 35.57,16.04 60.67,50.91 12.55,149.95 -68.35,138.79 -87.18,183.43 -87.18,183.43 0,0 -589.35,-331.99 -648.63,-375.22 -59.29,-43.25 -82.31,-119.27 51.6,-138.1z"/>
  <g id="_2112620456464">
   <path class="fil23" d="M8361.57 18922.59c-61.38,-164.61 -71.14,-264.34 -92.77,-352.91 -11.86,-49.53 -36.26,-112.99 76.02,-189.71 48.13,-32.78 122.75,-61.37 184.83,-28.59 46.72,25.11 89.97,98.33 87.18,170.87 -7.67,198.08 -18.83,322.92 -16.04,375.92 4.19,92.07 -191.8,151.36 -239.22,24.42z"/>
   <path class="fil24" d="M8350.41 18460.88c0,0 22.31,48.82 84.38,52.3 73.94,4.19 95.56,-46.02 95.56,-46.02 0,0 -71.84,-410.1 -46.73,-693.27 5.58,-59.98 11.86,-179.24 13.25,-349.42l-396.15 110.89c138.1,508.44 249.69,925.52 249.69,925.52z"/>
   <path class="fil11" d="M8266.02 12976.13c0,0 -653.51,1853.12 -768.59,2229.74 -115.78,376.63 564.93,716.98 937.37,312.46 372.44,-403.82 878.09,-970.85 1060.13,-1455.57 182.03,-484.03 202.96,-897.62 -39.76,-1314.7 -244.11,-416.38 -1014.1,-271.31 -1189.15,228.07z"/>
   <path class="fil11" d="M7979.36 14842.5c-392.66,42.54 -535.64,333.38 -486.12,538.43 113.69,468.69 126.25,380.11 280.38,942.26 72.53,263.64 187.61,761.62 310.36,1217.05 0,0 114.38,-4.89 232.25,-34.18 120.66,-29.99 205.75,-88.57 205.75,-88.57 14.64,-606.78 -7.67,-1746.41 -14.65,-2019.82 -8.37,-345.93 -135.3,-597.71 -527.97,-555.17z"/>
  </g>
  <path class="fil11" d="M8630.09 13852.13c-302.7,-33.48 -506.35,-103.92 -617.95,-153.44 140.19,-401.73 253.88,-723.26 253.88,-723.26 73.93,-210.63 253.87,-357.79 455.43,-426.84 184.83,5.58 375.93,15.34 552.38,25.11 73.94,39.75 136.7,97.64 181.34,174.36 243.41,417.08 222.48,829.97 39.76,1314.7 -170.88,452.64 -623.53,978.52 -986.2,1374.67 7.67,330.59 27.89,1399.08 13.25,1980.06 0,0 -8.37,5.59 -24.41,14.65 -2.1,165.99 -7.67,282.47 -13.25,341.06 -16.74,186.22 8.36,426.84 27.89,570.52 5.58,2.09 11.16,4.18 16.74,6.97 46.73,25.11 89.97,98.34 87.18,170.88 -7.67,198.08 -18.83,322.91 -16.04,375.92 4.88,91.37 -191.1,151.34 -239.23,23.71 -11.86,-31.38 -21.62,-59.97 -29.99,-87.18 0,0 0,0 0,0 18.13,61.37 59.98,98.34 147.16,81.6 87.18,-16.73 62.77,-218.3 64.86,-363.37 2.09,-145.07 -65.56,-117.87 -74.63,-183.43 -9.06,-65.56 -74.62,-281.07 -83.69,-603.3 -9.06,-322.22 -18.13,-938.07 -45.33,-1423.49 -27.2,-484.74 -85.79,-992.47 -81.61,-1092.21 4.89,-99.73 362.68,-553.07 630.5,-929.7 267.84,-373.84 98.35,-428.24 -258.04,-467.99z"/>
  <path class="fil8" d="M8142.57 10271.41c516.11,-11.86 684.9,341.75 901.1,749.76 352.21,665.37 447.06,1461.86 633.98,2252.77 0,0 0,663.27 -1151.49,427.54 -1161.95,-237.83 -746.27,-410.8 -1486.96,-410.8 0,-472.87 39.75,-1201.01 -85.79,-2422.94 -47.43,-464.51 1036.42,-592.84 1189.16,-596.33z"/>
  <path class="fil8" d="M8142.57 10271.41c516.11,-11.86 684.9,341.75 901.1,749.76 352.21,665.37 447.06,1461.86 633.98,2252.77 0,0 0,663.27 -1151.49,427.54 -1161.95,-237.83 -746.27,-410.8 -1486.96,-410.8 0,-15.34 0,-31.38 0,-47.42 137.39,-17.44 311.76,-16.05 484.03,71.14 220.39,111.59 758.82,274.79 1221.23,332.68 462.41,57.89 235.74,-719.08 204.35,-1050.36 -31.38,-331.29 -149.25,-130.43 -206.44,-12.55 -57.2,117.87 -119.97,99.73 -231.56,108.8 -110.9,9.06 -210.63,-59.29 -258.06,29.29 -47.42,88.57 -154.14,224.58 -340.36,224.58 -186.21,0 -387.78,-310.36 -450.55,-376.62 -62.77,-65.56 -157.62,-20.93 -260.15,-20.93 -102.53,0 -150.65,-2.09 -150.65,77.42l0 0c0,-105.31 -4.18,-218.3 -6.28,-339.66 0,46.73 17.43,50.91 130.43,50.91 113.68,0 139.49,-19.53 117.16,-63.47 -23.01,-43.94 -96.94,-193.19 -159.02,-278.28 -62.07,-84.39 -99.03,14.65 -99.03,14.65l0 0c-9.77,-268.52 -27.9,-573.31 -59.29,-921.33 4.88,50.91 15.35,93.45 64.86,152.74 49.52,58.58 432.42,418.46 571.21,545.4 138.79,126.94 187.62,187.62 219,99.04 32.08,-87.88 282.47,-936.68 336.86,-1096.4 54.41,-160.41 -5.58,-235.74 -54.4,-122.74 -48.82,112.98 -217.6,306.88 -571.21,325.01 -353.61,18.13 -281.07,-265.73 -350.82,-325.01 -69.74,-59.29 -253.87,29.29 -230.86,269.21l0 0c-2.09,-23.01 -4.18,-46.03 -6.98,-69.05 -46.69,-464.5 1037.16,-592.83 1189.9,-596.32z"/>
  <path class="fil22" d="M7289.58 10393.46c-15.34,184.83 -101.83,597.72 327.8,532.16 504.95,-76.72 560.76,-613.06 525.88,-669.55 -78.12,-128.33 -272.7,-34.18 -399.64,-13.25 -126.93,21.62 -440.79,-6.28 -454.04,150.64z"/>
  <path class="fil24" d="M8009.36 10259.55c-25.11,0.7 -49.52,1.4 -76.02,3.49 -144.38,10.46 -256.66,32.78 -405.22,67.65 -46.73,11.16 -89.97,24.41 -129.03,39.76 -3.48,119.26 -87.18,457.53 237.13,417.08 334.08,-41.85 391.97,-415.68 373.14,-527.98z"/>
  <g id="_2112620518912">
   <path class="fil22" d="M7020.37 9756c-222.48,-127.63 -352.91,-702.33 -129.03,-796.49 506.35,-212.02 610.97,93.46 887.16,93.46 140.19,0 323.61,137.39 304.08,475.66 -13.94,242.01 -115.08,389.18 -301.99,555.17 -67.66,59.98 -136.01,-253.88 -374.54,-323.62 -239.22,-70.44 -385.68,-4.18 -385.68,-4.18z"/>
   <path class="fil24" d="M7853.82 10210.74c-142.28,-338.96 -210.63,-379.42 -357.79,-629.8 -1.4,-9.76 -396.85,124.15 -534.25,-64.86 0,0 13.95,272.01 87.19,488.22 69.05,203.65 149.25,307.58 338.26,175.06 16.04,102.52 68.35,214.11 81.6,304.08 26.5,181.34 159.02,201.57 242.01,176.46 82.31,-25.11 274.11,-135.31 142.98,-449.16z"/>
   <path class="fil24" d="M7726.19 9625.57c38.36,45.34 15.35,127.64 -51.61,184.83 -66.95,56.49 -119.96,37.66 -158.32,-7.67 -38.36,-45.34 -48.13,-99.04 19.53,-156.23 66.95,-56.49 152.04,-66.26 190.4,-20.93z"/>
  </g>
  <g id="_2112620517856">
   <g>
    <g>
     <path class="fil20" d="M7910.31 12113.38c0,0 -80.9,472.17 -79.5,615.84 0.7,103.22 144.37,89.97 232.25,83.69 87.88,-6.27 262.93,-285.25 328.49,-555.17 50.22,-206.44 -452.64,-175.05 -481.24,-144.36z"/>
     <path class="fil20" d="M8334.37 10586.66c-193.89,422.66 -553.78,1765.25 -553.78,1765.25 0,0 80.21,104.62 325.72,185.52 368.25,121.36 524.48,59.29 524.48,59.29 0,0 179.24,-343.84 355.7,-781.84 86.48,-214.12 123.45,-440.09 -79.51,-897.62 -124.85,-281.78 -454.74,-585.87 -572.61,-330.6z"/>
    </g>
   </g>
  </g>
  <path class="fil20" d="M7780.59 12351.91c0,0 20.22,-76.72 54.4,-198.77 80.21,73.24 196.68,190.4 278.29,301.3 112.98,154.14 235.74,-49.52 412.89,-398.94 176.45,-348.73 493.8,-1001.54 291.53,-1295.87l0 0c34.88,50.21 65.56,103.92 89.27,156.93 202.97,457.52 166,682.8 79.51,897.61 -177.15,438.7 -355.7,781.84 -355.7,781.84 0,0 -110.2,44.64 -364.77,-13.95 -71.14,131.82 -151.35,227.37 -202.26,230.86 -87.89,6.28 -230.86,19.53 -232.25,-83.69 -0.7,-62.77 14.64,-186.92 31.38,-307.58 -59.27,-39.75 -82.29,-69.74 -82.29,-69.74z"/>
  <g id="_2112620512720">
   <path class="fil22" d="M7403.27 12468.38c19.53,0 48.82,-4.88 48.82,-24.41l0 -24.41c0,-19.53 -29.29,-41.85 -48.82,-41.85l-1021.77 0c-19.53,0 -18.13,22.32 -18.13,41.85l0 24.41c0,19.53 -1.4,24.41 18.13,24.41l1021.77 0z"/>
   <path class="fil22" d="M6449.86 12379.11c12.55,51.61 -20.93,88.57 -73.94,88.57l-1913.8 0c-53.01,0 -107.41,-36.96 -119.96,-88.57l-330.59 -1361.42c-12.55,-51.61 20.92,-90.67 73.93,-90.67l1913.8 0c53.01,0 107.41,39.06 119.96,90.67l330.6 1361.42z"/>
   <path class="fil19" d="M6449.86 12379.11l-330.6 -1361.42c-12.55,-51.61 -66.25,-90.67 -119.96,-90.67l-92.07 0c53.01,0 107.42,41.84 119.97,93.45l330.59 1359.34c12.55,51.61 -20.93,88.57 -73.93,88.57l92.06 0c53.71,0 87.19,-36.96 73.94,-89.27z"/>
   <g>
    <path class="fil8" d="M4956.61 11721.42c-34.87,-156.93 43.94,-283.87 175.76,-283.87 131.81,0 267.12,126.93 301.99,283.87 34.88,156.22 -43.94,283.16 -175.75,283.16 -131.82,0 -267.13,-126.94 -302,-283.16z"/>
    <path class="fil8" d="M5317.89 11721.42c-29.29,-132.52 -131.12,-244.11 -241.31,-274.79 17.43,-5.59 36.26,-9.07 56.49,-9.07 131.82,0 267.12,126.93 302,283.86 34.87,156.23 -43.94,283.17 -175.76,283.17 -20.22,0 -40.45,-3.48 -59.97,-9.06 95.54,-30.01 147.85,-141.6 118.55,-274.11z"/>
   </g>
   <path class="fil24" d="M5617.8 12427.23c0,30.7 99.73,-12.55 117.86,42.55 46.73,168.78 -462.41,148.56 -531.46,136 -111.59,-20.22 -93.45,-85.78 -93.45,-176.45 -0.7,-135.31 507.05,-186.23 507.05,-2.1z"/>
   <path class="fil24" d="M5094.71 12586.95c-59.28,-13.95 -139.49,-101.14 -105.31,-132.52 71.14,-66.95 64.17,19.53 209.93,15.35 92.76,-2.79 143.67,140.19 143.67,140.19 0,0 -125.54,6.27 -248.29,-23.02z"/>
  </g>
  <path class="fil24" d="M6030.69 12598.81l-588.65 14.64 216.9 -142.27c0,0 175.06,-1.4 278.29,-1.4 103.22,0 93.46,129.03 93.46,129.03z"/>
  <g id="_2112620507392">
   <path class="fil24" d="M6695.36 10858.67c-48.12,-36.97 -203.65,-92.77 -234.34,-55.8 -61.38,76.02 85.78,93.46 149.25,224.58 40.46,83.69 207.85,-16.04 207.85,-16.04 0,0 -45.35,-93.46 -122.76,-152.74z"/>
   <g>
    <path class="fil24" d="M8141.87 12612.06c-213.42,-427.54 -1189.85,-1279.13 -1262.39,-1492.55 -47.42,-138.09 -274.1,-20.93 -182.03,116.48 71.84,106.71 705.12,1080.35 894.83,1348.87 138.09,208.53 265.03,318.73 366.16,283.86 143.67,-49.52 262.94,-97.64 183.43,-256.66z"/>
    <path class="fil24" d="M6497.98 11391.52c25.81,-167.39 237.13,-50.91 322.92,-76.02 163.2,-48.12 28.59,-255.96 -10.47,-314.55 -63.47,-93.45 -364.77,-217.6 -498.68,90.67 -53.69,124.14 161.82,462.41 186.23,299.9z"/>
   </g>
  </g>
  <path class="fil24" d="M6311.76 11092.31c48.13,-110.89 118.57,-165.99 191.1,-186.22 -45.34,-36.26 -76.02,-59.97 -41.84,-102.53 29.99,-37.66 186.22,18.83 234.34,55.8 77.42,59.28 123.45,152.74 123.45,152.74 0,0 -0.7,0 -1.4,0.7 11.86,18.13 28.6,43.94 43.24,73.93 7.67,9.07 13.95,20.23 18.83,33.48 72.54,213.42 1048.97,1064.31 1262.39,1492.55 72.54,145.07 -20.93,198.07 -147.16,244.1 11.86,-4.18 98.34,-61.37 80.21,-145.76 -18.14,-83.69 -202.97,-327.11 -424.05,-578.19 -220.4,-251.08 -681.42,-784.63 -778.36,-915.75 -96.95,-131.82 -153.44,-292.24 -207.15,-341.75 -53.7,-48.82 -172.97,-80.21 -182.03,-58.59 -9.07,20.93 8.36,43.24 66.25,78.82 57.89,36.26 -27.89,80.9 -131.12,147.16 -103.22,65.56 -97.65,192.5 -51.61,293.63 -46.02,-78.82 -80.9,-185.53 -55.09,-244.12z"/>
 </g>
</svg>
