<?xml version="1.0" encoding="UTF-8"?>
<!DOCTYPE svg PUBLIC "-//W3C//DTD SVG 1.1//EN" "http://www.w3.org/Graphics/SVG/1.1/DTD/svg11.dtd">
<!-- Creator: CorelDRAW 2020 (64-Bit Evaluation Version) -->
<?xml-stylesheet href="Minimal Hardware Rqts.css" type="text/css"?>
<svg xmlns="http://www.w3.org/2000/svg" xml:space="preserve" width="150mm" height="150mm" version="1.1" style="shape-rendering:geometricPrecision; text-rendering:geometricPrecision; image-rendering:optimizeQuality; fill-rule:evenodd; clip-rule:evenodd"
viewBox="0 0 15000 15000"
 xmlns:xlink="http://www.w3.org/1999/xlink"
 xmlns:xodm="http://www.corel.com/coreldraw/odm/2003">
 <g id="Layer_x0020_1">
  <metadata id="CorelCorpID_0Corel-Layer"/>
  <path class="fil0" d="M1842.96 4077.35l1402.3 0 0 1058.33 -1402.3 0 0 -1058.33zm829.47 326.79l367.78 0c23.29,0 42.33,19.04 42.33,42.33l0 259.3c0,23.29 -19.04,42.33 -42.33,42.33l-367.78 0c-23.29,0 -42.33,-19.04 -42.33,-42.33l0 -259.3c0,-23.29 19.04,-42.33 42.33,-42.33zm80.04 142.89l207.7 0 0 58.18 -207.7 0 0 -58.18zm-704.46 -142.89l367.78 0c23.29,0 42.33,19.04 42.33,42.33l0 259.3c0,23.29 -19.04,42.33 -42.33,42.33l-367.78 0c-23.29,0 -42.33,-19.04 -42.33,-42.33l0 -259.3c0,-23.29 19.04,-42.33 42.33,-42.33zm80.04 142.89l207.7 0 0 58.18 -207.7 0 0 -58.18z"/>
  <path class="fil0" d="M3131.48 9168.42l0 212.5c0,47.3 -38.69,85.99 -85.99,85.99l0 488.16c0,35.66 -29.16,64.82 -64.82,64.82l-0.01 0c-35.66,0 -64.82,-29.16 -64.82,-64.82l0 -488.16 -743.47 0 0 488.16c0,35.66 -29.16,64.82 -64.82,64.82l-0.01 0c-35.66,0 -64.82,-29.16 -64.82,-64.82l0 -488.16c-47.3,0 -85.99,-38.69 -85.99,-85.99l0 -212.51c174.91,95.28 375.09,149.5 587.38,149.5 212.29,0 412.46,-54.22 587.37,-149.49z"/>
  <path class="fil0" d="M1774.16 5241.49l1539.9 0c173.17,0 314.84,141.67 314.84,314.84l0 2526.79c0,596.64 -488.15,1084.79 -1084.79,1084.79l0 0c-596.64,0 -1084.79,-488.15 -1084.79,-1084.79l0 -2526.79c0,-173.17 141.67,-314.84 314.84,-314.84zm230.2 478.91l1079.5 0c41.28,0 78.95,16.95 106.35,44.27l0.2 0.2c27.32,27.4 44.27,65.05 44.27,106.35l0 2148.42c0,41.3 -16.95,78.95 -44.27,106.35l-0.2 0.2c-27.4,27.32 -65.07,44.27 -106.35,44.27l-1079.5 0c-41.3,0 -78.95,-16.95 -106.35,-44.27l-0.2 -0.2c-27.32,-27.4 -44.27,-65.05 -44.27,-106.35l0 -2148.42c0,-41.3 16.95,-78.95 44.27,-106.35l0.2 -0.2c27.4,-27.32 65.05,-44.27 106.35,-44.27zm1079.5 105.84l-1079.5 0c-12.45,0 -23.69,5.01 -31.73,13.05l-0.2 0.2c-8.04,8.04 -13.05,19.28 -13.05,31.73l0 2148.42c0,12.45 5.01,23.69 13.05,31.73l0.2 0.2c8.04,8.04 19.28,13.05 31.73,13.05l1079.5 0c12.45,0 23.69,-5.01 31.73,-13.05l0.2 -0.2c8.04,-8.04 13.05,-19.28 13.05,-31.73l0 -2148.42c0,-12.45 -5.01,-23.69 -13.05,-31.73l-0.2 -0.2c-8.04,-8.04 -19.28,-13.05 -31.73,-13.05z"/>
  <circle class="fil0" cx="1718.65" cy="9932.58" r="97.89"/>
  <circle class="fil0" cx="1045.28" cy="9359.76" r="329.4"/>
  <circle class="fil0" cx="4398.89" cy="9268.45" r="100.54"/>
  <circle class="fil0" cx="6034.03" cy="8413.87" r="111.13"/>
  <circle class="fil0" cx="730.46" cy="8097.67" r="128.32"/>
  <circle class="fil0" cx="1001.66" cy="6447.97" r="121.71"/>
  <circle class="fil0" cx="897.13" cy="4454.34" r="123.03"/>
  <circle class="fil0" cx="4351.29" cy="4312.78" r="100.54"/>
  <circle class="fil0" cx="5601.47" cy="4986.15" r="424.66"/>
  <circle class="fil0" cx="6000.99" cy="5954.53" r="112.44"/>
  <path class="fil0" d="M4988.99 6236.3c588.89,0 1066.28,477.39 1066.28,1066.28 0,588.89 -477.39,1066.28 -1066.28,1066.28 -588.89,0 -1066.28,-477.39 -1066.28,-1066.28 0,-588.89 477.39,-1066.28 1066.28,-1066.28zm-539.76 1341.45l1079.51 0c47.3,0 85.99,38.69 85.99,85.99l0 0c0,47.3 -38.69,85.99 -85.99,85.99l-1079.51 0c-47.3,0 -85.99,-38.69 -85.99,-85.99l0 0c0,-47.3 38.69,-85.99 85.99,-85.99zm0 -312.21l1079.51 0c47.3,0 85.99,38.69 85.99,85.99l0 0c0,47.3 -38.69,85.99 -85.99,85.99l-1079.51 0c-47.3,0 -85.99,-38.69 -85.99,-85.99l0 0c0,-47.3 38.69,-85.99 85.99,-85.99zm0 -312.21l1079.51 0c47.3,0 85.99,38.69 85.99,85.99l0 0c0,47.3 -38.69,85.99 -85.99,85.99l-1079.51 0c-47.3,0 -85.99,-38.69 -85.99,-85.99l0 0c0,-47.3 38.69,-85.99 85.99,-85.99z"/>
 </g>
</svg>
